<svg viewBox="0 0 19 18" fill="none" xmlns="http://www.w3.org/2000/svg"><path d="M18.003 0H0v18h18.003V0z" fill="#FFCB0A"/><path d="M12.708 3.783l.33-.128-.385-.95-2.012.711.254.624h-.017s.017.017.017.038l.073.2c.458 1.155 2.25 6.401-2.177 6.75h-.239c-4.721-.364-2.36-6.365-2.122-6.933l.33-.77-1.994-.75-.405.95.347.128C2.292 7.84 2.586 9.855 2.586 9.855c.44 4.666 5.416 4.995 5.928 5.013h.018l.018.02v-.02h.239v.02s5.505-.11 5.983-5.033c.005.002.279-1.974-2.064-6.072z" fill="#181819"/><path d="M5.488 6.895c0 .219-.2.402-.44.402a.41.41 0 01-.42-.402c0-.221.184-.405.42-.405.24.003.44.186.44.405zM4.702 9.77a.41.41 0 01-.422.402c-.239 0-.44-.181-.44-.403 0-.238.201-.42.44-.42a.41.41 0 01.422.42zm1.024 2.798c0 .219-.201.402-.44.402a.41.41 0 01-.42-.402.41.41 0 01.42-.402c.239 0 .44.184.44.402zm6.881-5.673c0 .219.2.402.44.402.254 0 .457-.183.457-.402 0-.221-.2-.405-.457-.405-.24.003-.44.186-.44.405zm.64 2.875c0 .22.2.402.457.402.239 0 .438-.181.438-.403a.428.428 0 00-.438-.42c-.259-.002-.457.182-.457.42zm-.899 2.798c0 .219.201.402.457.402.24 0 .44-.183.44-.402 0-.218-.2-.402-.44-.402-.256 0-.457.184-.457.402z" fill="#FFCB0A"/></svg>