<?xml version="1.0" encoding="utf-8"?>
<!-- Generator: Adobe Illustrator 28.1.0, SVG Export Plug-In . SVG Version: 6.00 Build 0)  -->
<svg version="1.1" id="Layer_1" xmlns="http://www.w3.org/2000/svg" xmlns:xlink="http://www.w3.org/1999/xlink" x="0px" y="0px"
	 viewBox="0 0 1268.8 596.8" style="enable-background:new 0 0 1268.8 596.8;" xml:space="preserve">
<style type="text/css">
	.st0{fill:#FF0039;}
</style>
<g>
	<g>
		<path class="st0" d="M331.5,325.5v-97.1H355v52.4c7.7-9.6,20.3-16,35.3-16c28.7,0,51.5,22.7,51.5,54.5v7.1
			c0,31.4-23.3,54.3-55.6,54.3C355.6,380.7,331.5,360.2,331.5,325.5L331.5,325.5z M418.3,326v-5.8c0-21-12.4-34.4-31.6-34.4
			c-19.2,0-31.6,13.5-31.6,34.4v5.8c0,20.5,12.4,33.8,31.6,33.8C405.9,359.8,418.3,346.1,418.3,326z"/>
		<path class="st0" d="M472.9,225.9c8.6,0,15,5.3,15,13.5v1.5c0,8.1-6.4,13.5-15,13.5c-8.6,0-15.2-5.3-15.2-13.5v-1.5
			C457.7,231.2,464.3,225.9,472.9,225.9z M484.6,378.1h-23.5V267.4h23.5V378.1z"/>
		<path class="st0" d="M578.1,269.3l-5.6,21.4c-4.3-1.9-8.6-3.2-13.7-3.2c-15,0-26.3,11.5-26.3,30.8v59.9H509V267.4h23.5v15.4
			c6.4-13,17.1-18,28.7-18C567.6,264.8,573.4,266.3,578.1,269.3L578.1,269.3z"/>
		<path class="st0" d="M590.7,325.5v-97.1h23.5v52.4c7.7-9.6,20.3-16,35.3-16c28.7,0,51.5,22.7,51.5,54.5v7.1
			c0,31.4-23.3,54.3-55.6,54.3C614.9,380.7,590.7,360.2,590.7,325.5L590.7,325.5z M677.5,326v-5.8c0-21-12.4-34.4-31.6-34.4
			s-31.6,13.5-31.6,34.4v5.8c0,20.5,12.4,33.8,31.6,33.8S677.5,346.1,677.5,326z"/>
		<path class="st0" d="M717.2,326.4v-7.3c0-31.6,22.9-54.3,51.5-54.3c15,0,27.6,6.4,35.3,16v-13.5h23.5v110.8H804v-13.5
			c-7.7,9.6-20.3,16-35.3,16C740,380.7,717.2,358,717.2,326.4L717.2,326.4z M804,325.3v-5.1c0-21-12.2-34.4-31.4-34.4
			c-19.2,0-31.4,13.5-31.4,34.4v5.1c0,21,12.2,34.4,31.4,34.4C791.8,359.8,804,346.3,804,325.3z"/>
		<path class="st0" d="M872.8,314.2v63.9h-23.5V267.4h23.5v13.9c5.8-8.6,16.2-16.5,32.5-16.5c25,0,41.5,17.8,41.5,47.7v65.6h-23.5
			V314c0-18.6-9.2-28.2-24.2-28.2C885,285.8,872.8,296.5,872.8,314.2L872.8,314.2z"/>
		<path class="st0" d="M993.9,378.1h-23.5V228.5h23.5v86.4l44.7-47.5h30.6l-44.5,44.9l48.8,65.9h-28.9l-35.9-49.8l-14.8,14.8
			L993.9,378.1L993.9,378.1z"/>
	</g>
	<path class="st0" d="M262.4,167.8v198.7c0,4-1.6,7.9-4.5,10.7l-65.8,64.9c-2.6,2.5-6.9,0.7-6.9-2.9V241.1c0-4,1.6-7.8,4.4-10.6
		l65.8-65.5C258,162.4,262.4,164.2,262.4,167.8z"/>
</g>
</svg>
