<?xml version="1.0" encoding="utf-8"?>
<!DOCTYPE svg PUBLIC "-//W3C//DTD SVG 1.0//EN" "http://www.w3.org/TR/2001/REC-SVG-20010904/DTD/svg10.dtd">
<svg version="1.0" xmlns="http://www.w3.org/2000/svg" width="1080px" height="723px" viewBox="0 0 1080 723" preserveAspectRatio="xMidYMid meet">
 <g fill="#eafaf0">
  <path d="M514.05 681.60 c-3.50 -0.25 -5.30 -0.55 -5.45 -1 -0.10 -0.30 -0.40 -0.50 -0.65 -0.30 -0.25 0.15 -0.75 0.10 -1.05 -0.10 -0.85 -0.55 -2 -0.70 -6.40 -0.95 -2.05 -0.15 -4.75 -0.60 -6 -1.05 -3.40 -1.20 -4 -1.30 -7.75 -1.25 -1.90 0.05 -4.65 -0.25 -6.10 -0.65 -1.40 -0.40 -2.70 -0.55 -2.85 -0.45 -0.15 0.15 -0.65 0 -1.10 -0.35 -0.40 -0.40 -1.15 -0.75 -1.60 -0.80 -3.25 -0.50 -11.10 -2.20 -12.25 -2.65 -0.80 -0.30 -1.60 -0.45 -1.80 -0.35 -0.20 0.15 -1.05 -0.20 -1.95 -0.70 -0.85 -0.50 -2.60 -1 -3.85 -1.05 -1.60 -0.10 -2.70 -0.50 -3.55 -1.30 -0.80 -0.75 -2.55 -1.45 -4.65 -1.90 -1.90 -0.40 -4.30 -1.05 -5.35 -1.40 -1.05 -0.40 -3.75 -1.35 -5.95 -2.10 -2.20 -0.70 -6.25 -2.40 -9 -3.75 -2.75 -1.35 -6.90 -3.05 -9.25 -3.75 -2.35 -0.75 -5.40 -1.85 -6.80 -2.55 -1.40 -0.65 -2.80 -1.20 -3.10 -1.20 -0.30 0 -1.80 -0.55 -3.30 -1.20 -1.50 -0.65 -2.90 -1.05 -3.10 -0.90 -0.20 0.20 -0.20 0.05 0 -0.25 0.20 -0.35 0.10 -0.65 -0.20 -0.65 -0.35 0 -1 -0.50 -1.50 -1.10 -0.50 -0.65 -3.30 -2.40 -6.20 -3.90 -2.90 -1.50 -6.95 -3.95 -8.95 -5.45 -1.95 -1.45 -4.40 -3 -5.35 -3.40 -0.95 -0.40 -2.40 -1.35 -3.25 -2.15 -0.80 -0.75 -2.30 -1.65 -3.35 -1.95 -1 -0.35 -2.90 -1.60 -4.20 -2.80 -1.30 -1.25 -2.70 -2.25 -3.05 -2.25 -0.35 0 -1.05 -0.40 -1.55 -0.90 -0.50 -0.50 -1.80 -1.55 -2.85 -2.35 -1.10 -0.80 -2.90 -2.20 -3.95 -3.10 -1.10 -0.90 -2.20 -1.65 -2.45 -1.65 -0.25 0 -2.20 -1.80 -4.40 -4 -2.15 -2.20 -4.15 -4 -4.40 -4 -0.25 0 -1.60 -1.10 -3 -2.50 -1.40 -1.35 -2.85 -2.50 -3.25 -2.50 -0.40 0 -1.20 -0.65 -1.70 -1.40 -2.15 -2.95 -7.60 -8 -11.15 -10.20 -0.75 -0.45 -1.50 -1.30 -1.70 -1.85 -0.15 -0.60 -2.45 -3.20 -5.05 -5.85 -2.60 -2.70 -4.70 -5 -4.70 -5.15 0 -0.15 -1.05 -0.85 -2.30 -1.50 -1.90 -1.05 -2.55 -1.80 -4.05 -4.75 -1.70 -3.35 -2.30 -4.25 -6.45 -9.05 -3.10 -3.60 -4.20 -5 -4.20 -5.45 0 -0.20 -1.15 -1.75 -2.55 -3.45 -1.35 -1.65 -3 -3.95 -3.55 -5.05 -1.30 -2.55 -4.25 -7.20 -5.50 -8.60 -0.95 -1.05 -1.35 -1.75 -4.25 -6.90 -0.80 -1.35 -1.70 -2.90 -2 -3.50 -0.35 -0.60 -0.65 -1.55 -0.65 -2.15 0 -0.65 -0.65 -1.70 -1.45 -2.40 -0.75 -0.70 -2.05 -2.55 -2.80 -4.15 -0.80 -1.55 -1.80 -3.40 -2.25 -4.10 -0.45 -0.70 -1.35 -2.60 -2 -4.25 -1.50 -3.90 -3.95 -8.75 -4.75 -9.60 -0.35 -0.35 -0.80 -1.60 -1 -2.75 -0.35 -2.25 -1.80 -5.80 -3.20 -7.90 -0.50 -0.70 -1.40 -2.60 -2.05 -4.25 -0.65 -1.65 -1.40 -3.30 -1.65 -3.60 -0.25 -0.35 -0.35 -0.65 -0.15 -0.65 0.20 0 0 -0.60 -0.40 -1.40 -0.40 -0.75 -0.85 -2.45 -1.05 -3.75 -0.20 -1.30 -0.80 -2.90 -1.30 -3.55 -0.50 -0.65 -1.05 -1.90 -1.20 -2.85 -0.15 -0.95 -0.65 -2.35 -1.05 -3.20 -0.45 -0.80 -0.90 -2.05 -1 -2.75 -0.15 -0.65 -0.45 -1.45 -0.70 -1.75 -0.20 -0.25 -0.55 -1.40 -0.70 -2.50 -0.20 -1.15 -0.40 -2.60 -0.55 -3.25 -0.15 -0.70 -0.35 -1.90 -0.50 -2.75 -0.60 -3.70 -1.05 -5.85 -1.25 -6.10 -0.20 -0.25 -0.35 -1.10 -0.45 -2.15 0 -0.50 -0.70 -1.70 -1.45 -2.60 -1.85 -2.10 -2.05 -3.05 -2.35 -10.85 -0.20 -4.55 -0.60 -7.40 -1.30 -9.55 -0.55 -1.70 -0.95 -3.45 -0.90 -3.90 0.10 -0.45 0 -1.65 -0.20 -2.60 -0.20 -0.95 -0.45 -3.10 -0.60 -4.80 -0.15 -1.65 -0.40 -3.60 -0.60 -4.25 -0.65 -2.45 -0.80 -7.80 -0.85 -30.70 -0.05 -21.75 0 -23.65 0.85 -24.90 0.45 -0.75 0.75 -1.35 0.60 -1.35 -0.15 0 -0.05 -0.40 0.20 -0.90 0.25 -0.50 0.55 -3.45 0.60 -6.55 0.05 -3.10 0.25 -6.45 0.45 -7.45 0.25 -1 0.55 -3.75 0.70 -6.10 0.25 -4.20 1 -10.85 1.50 -13.75 0.15 -0.80 0.40 -2.20 0.50 -3.10 0.10 -0.90 0.55 -2.35 1 -3.20 0.45 -0.90 0.80 -2.25 0.80 -3.05 0 -0.75 0.20 -1.40 0.45 -1.40 0.70 0 1.90 -4.45 2.35 -8.50 0.15 -1.50 0.85 -4 1.60 -5.50 0.70 -1.50 1.35 -2.85 1.35 -3 0.05 -0.15 0.70 -1.60 1.45 -3.25 1.40 -2.95 2.35 -6.15 3 -9.80 0.20 -1.05 0.75 -2.40 1.25 -3 0.50 -0.65 1.15 -2.40 1.50 -3.85 0.30 -1.45 1 -3.55 1.55 -4.60 0.55 -1.10 0.85 -2 0.65 -2 -0.25 0 0 -0.25 0.50 -0.55 0.45 -0.30 0.75 -0.70 0.60 -1 -0.20 -0.25 -0.05 -0.45 0.30 -0.45 0.35 0 0.45 -0.15 0.30 -0.35 -0.20 -0.15 0.40 -1.70 1.35 -3.40 0.90 -1.70 1.85 -3.80 2.05 -4.75 0.20 -0.90 0.80 -2.35 1.30 -3.20 0.50 -0.85 0.95 -1.95 0.95 -2.45 0 -0.50 0.55 -1.45 1.20 -2.10 0.70 -0.70 1.55 -1.85 2 -2.60 2 -3.80 3.20 -6.65 3.80 -9.05 0.35 -1.50 0.90 -2.80 1.30 -2.95 0.85 -0.30 5.60 -7.70 6.30 -9.80 0.30 -0.90 0.85 -1.80 1.25 -2 0.35 -0.25 0.55 -0.60 0.40 -0.85 -0.15 -0.25 0.40 -0.90 1.25 -1.50 0.80 -0.60 1.50 -1.35 1.50 -1.70 0 -0.40 1.40 -2.45 3.05 -4.60 1.70 -2.20 3.20 -4.30 3.35 -4.70 0.15 -0.40 1.15 -2.05 2.20 -3.60 1.05 -1.55 1.90 -3.05 1.90 -3.30 0 -0.30 0.35 -0.60 0.75 -0.80 0.40 -0.15 0.75 -0.45 0.75 -0.70 0 -0.20 1.35 -1.85 3 -3.60 1.70 -1.85 3.20 -4 3.50 -5 0.50 -1.70 3.60 -5.50 4.55 -5.50 0.25 0 1.40 -1.30 2.60 -2.85 2.35 -3.15 13.10 -14.15 13.85 -14.15 0.25 0 0.60 -0.45 0.75 -1 0.20 -0.60 1.45 -1.95 2.85 -3.05 1.40 -1.10 3.25 -2.90 4.10 -3.95 0.85 -1.10 2.80 -2.90 4.30 -4.05 1.50 -1.10 3.40 -2.65 4.25 -3.35 0.80 -0.75 3.45 -2.65 5.85 -4.25 2.40 -1.60 4.75 -3.55 5.25 -4.35 0.45 -0.85 1.15 -1.50 1.50 -1.50 0.40 0 0.90 -0.55 1.15 -1.20 0.35 -1 1.20 -1.70 5.05 -4.05 0.45 -0.25 1.60 -0.95 2.50 -1.45 0.95 -0.50 2.35 -1.45 3.10 -2.10 0.80 -0.65 1.70 -1.20 2.10 -1.20 0.35 0 1.80 -0.80 3.25 -1.80 1.45 -1 3.80 -2.35 5.25 -2.95 1.50 -0.70 3.10 -1.90 3.95 -2.95 0.75 -1 1.70 -1.80 2.10 -1.80 0.35 0 0.70 -0.15 0.70 -0.40 0 -0.20 1 -0.80 2.25 -1.35 1.25 -0.55 2.25 -1.15 2.25 -1.35 0 -0.25 0.25 -0.40 0.50 -0.40 1.15 0 10.70 -4.55 13.50 -6.45 1.25 -0.85 2.80 -1.55 3.45 -1.55 0.65 0 1.60 -0.55 2.10 -1.20 0.50 -0.65 1.60 -1.30 2.50 -1.50 0.85 -0.15 2.15 -0.75 2.95 -1.30 0.75 -0.55 1.75 -1 2.20 -1 0.45 0 0.80 -0.15 0.80 -0.35 0 -0.25 0.65 -0.45 1.50 -0.50 0.80 -0.05 3.35 -1 5.60 -2.10 3.40 -1.60 13.75 -5.45 15.65 -5.75 0.30 -0.05 1 -0.35 1.60 -0.70 0.60 -0.35 1.55 -0.60 2.10 -0.60 0.90 0 4.75 -1.30 7.30 -2.50 0.55 -0.25 2 -0.70 3.25 -1.05 1.25 -0.30 2.50 -0.75 2.85 -1.05 0.35 -0.25 2.25 -0.70 4.25 -0.95 2.30 -0.30 4.15 -0.85 5 -1.45 1.05 -0.75 2.05 -1 4 -0.95 2.85 0.10 7.05 -0.95 6.60 -1.60 -0.15 -0.25 0.70 -0.50 1.90 -0.50 2.30 -0.10 2.50 -0.10 7.15 -0.90 1.65 -0.25 3.90 -0.60 5 -0.70 1.10 -0.15 2.65 -0.50 3.40 -0.80 0.75 -0.30 2.80 -0.65 4.50 -0.80 6.40 -0.60 7.65 -0.80 9.35 -1.40 1.30 -0.45 8.70 -0.60 29 -0.60 24.30 0 27.65 0.10 30.85 0.90 2 0.45 3.80 0.80 4 0.75 0.65 -0.15 7.70 0.60 12.15 1.35 2.35 0.40 6.15 0.95 8.50 1.25 2.35 0.30 4.70 0.65 5.25 0.75 0.55 0.10 1.40 0.20 1.85 0.20 0.45 0.05 1.20 0.40 1.65 0.85 0.45 0.45 2.25 1 4.15 1.20 1.85 0.25 4.20 0.80 5.20 1.20 1.05 0.45 2.50 0.80 3.30 0.80 0.75 0 2.30 0.50 3.35 1.05 1.10 0.60 3.25 1.25 4.85 1.45 1.80 0.25 3.40 0.85 4.50 1.65 0.95 0.75 2.90 1.50 4.60 1.80 1.60 0.30 3.20 0.75 3.50 1 0.30 0.25 2.20 0.85 4.20 1.30 1.95 0.45 3.70 1.05 3.85 1.30 0.20 0.25 1.30 0.45 2.55 0.45 2.55 0 5.60 1.10 6 2.20 0.35 0.90 3.75 2.30 5.60 2.30 0.75 0 2.35 0.70 3.60 1.50 1.25 0.85 3.10 1.75 4.10 2 1 0.30 2.50 1.10 3.30 1.75 0.85 0.70 1.65 1.25 1.80 1.25 0.50 0 4.70 1.85 7.40 3.30 1.30 0.70 2.65 1.20 3 1.15 2.10 -0.25 3.20 0.25 5.10 2.30 1.45 1.55 3.35 2.80 6.45 4.20 2.40 1.15 4.35 2.25 4.35 2.50 0 0.25 0.75 0.80 1.65 1.25 0.95 0.40 3.30 2.10 5.25 3.75 1.95 1.65 5.50 4.05 7.90 5.40 4.40 2.45 5.90 3.60 7.20 5.45 0.40 0.60 1.95 1.65 3.35 2.40 1.45 0.70 4 2.65 5.65 4.30 1.70 1.60 3.80 3.45 4.75 4 0.90 0.55 2.35 1.80 3.15 2.75 2.35 2.60 12.40 11.60 13.45 11.95 0.50 0.20 1.50 1.15 2.25 2.15 1.50 1.95 5.80 6.55 8.20 8.75 0.80 0.75 2.30 2.55 3.30 4 1.05 1.45 2.90 3.45 4.15 4.40 1.25 0.95 2.40 2.30 2.55 3 0.20 0.70 1.85 2.85 3.65 4.75 3.50 3.65 5.05 5.80 7.20 10.05 0.70 1.35 2.05 3.40 3.05 4.45 0.95 1.10 2.50 3.45 3.40 5.25 0.90 1.75 2.15 3.80 2.80 4.50 0.60 0.65 1.10 1.50 1.10 1.80 0 0.30 0.35 0.90 0.80 1.25 0.45 0.40 1.25 1.60 1.70 2.70 0.50 1.10 1.45 2.55 2.20 3.20 0.70 0.70 1.30 1.50 1.30 1.90 0 0.35 0.20 0.65 0.45 0.65 0.25 0 0.85 1.15 1.30 2.55 0.50 1.40 1.15 2.65 1.55 2.80 0.40 0.15 0.70 0.50 0.70 0.85 0 0.30 0.55 1.20 1.25 2 0.70 0.85 1.40 2.05 1.60 2.75 0.45 2 2.80 6.15 3.95 7.15 0.95 0.75 1.50 2.25 1.80 4.80 0.05 0.30 0.20 0.60 0.40 0.60 0.15 0 0.30 0.45 0.35 1.05 0.05 0.55 0.80 2.50 1.60 4.30 0.85 1.80 1.55 3.55 1.55 3.95 0 0.40 0.45 1.15 1.05 1.75 0.90 0.90 2.65 4.25 2.35 4.55 -0.05 0.10 0.50 1.40 1.20 2.90 2.30 5 3.30 7.70 3.80 10.60 0.30 1.55 1.30 4.50 2.30 6.50 1.75 3.70 4 10.90 4.60 14.90 0.20 1.25 0.80 3.15 1.35 4.25 0.65 1.35 1.05 3.45 1.20 6.25 0.20 3.10 0.50 4.50 1.15 5.25 0.80 0.90 1.90 5.05 3 11.30 0.50 2.90 0.90 7.75 1.25 14.95 0.30 7.10 0.55 8.90 1.30 9.80 0.85 1.05 1.25 41.95 0.45 43.95 -0.90 2.20 -1.05 3 -1.25 8 -0.25 5.15 -0.60 12.05 -0.90 16.75 -0.10 1.80 -0.55 4.95 -1.05 7 -0.45 2.05 -1.75 7.80 -2.90 12.75 -1.10 4.95 -2.45 11.05 -2.95 13.50 -0.50 2.50 -1 5.05 -1.15 5.70 -0.45 2.10 -1.95 6.25 -2.60 7.30 -0.45 0.80 -1.90 5.25 -2.30 7.10 -0.05 0.25 -0.35 0.65 -0.70 1 -0.30 0.35 -0.75 1.70 -0.95 3 -0.15 1.30 -0.65 2.90 -1.05 3.55 -0.45 0.65 -1.05 2.10 -1.45 3.25 -0.80 2.45 -2.80 7.30 -3.50 8.35 -0.25 0.40 -0.50 0.85 -0.50 1 -0.05 0.55 -2.20 5.90 -3.50 8.75 -2 4.50 -2.15 4.85 -2.50 6.90 -0.15 1.05 -1.05 3.10 -1.95 4.50 -0.90 1.45 -2.15 3.70 -2.80 5.10 -0.65 1.35 -2.15 3.45 -3.35 4.75 -1.20 1.25 -2.15 2.55 -2.15 2.85 0 0.80 -3.35 7.10 -4.30 8.20 -0.40 0.40 -0.70 0.95 -0.70 1.20 0 0.20 -1.35 2.30 -3 4.55 -1.70 2.30 -3.40 5 -3.90 6.05 -0.45 1.05 -1.45 2.70 -2.20 3.70 -0.80 1 -1.40 2.05 -1.40 2.30 0 0.60 -4.55 6.35 -7.80 9.90 -5.70 6.15 -8.20 8.95 -8.20 9.10 0 0.90 -9.80 11.15 -16.05 16.90 -1.20 1.10 -3.60 3.50 -5.35 5.40 -1.75 1.85 -3.30 3.35 -3.45 3.35 -0.35 0 -5.65 5.50 -5.65 5.85 0 0.35 -1.10 1.35 -3 2.60 -0.95 0.70 -2.70 2.15 -3.85 3.25 -1.15 1.15 -3.20 3 -4.50 4.15 -1.35 1.15 -3.50 3.05 -4.90 4.30 -1.35 1.20 -3.45 2.70 -4.60 3.35 -1.20 0.65 -2.15 1.35 -2.15 1.55 0 0.20 -0.85 0.70 -1.85 1.10 -1.05 0.45 -3 1.60 -4.40 2.60 -4.90 3.50 -9.05 6.15 -11.80 7.50 -1.50 0.75 -2.95 1.85 -3.25 2.40 -0.50 1.15 -14.95 8.80 -20.95 11.10 -1.90 0.75 -4.05 1.65 -4.75 2 -0.70 0.35 -2.20 0.90 -3.35 1.20 -1.20 0.35 -2.15 0.80 -2.15 1.10 0 0.30 -0.20 0.40 -0.45 0.20 -0.30 -0.15 -0.65 0.05 -0.90 0.45 -0.20 0.35 -1.50 1.25 -2.90 1.90 -1.35 0.65 -2.95 1.45 -3.50 1.75 -0.55 0.30 -2.45 0.90 -4.25 1.40 -5.55 1.35 -9.70 2.85 -11.25 4.05 -1.30 0.95 -9.40 3.20 -9.55 2.65 -0.05 -0.10 -0.50 0.15 -1 0.60 -1.35 1.15 -2.70 1.60 -4.45 1.50 -0.80 -0.05 -2.60 0.45 -3.90 1.20 -1.65 0.85 -3.10 1.25 -4.60 1.15 -1.20 0 -2.55 0.25 -3 0.60 -0.40 0.35 -0.75 0.50 -0.75 0.30 0 -0.20 -0.70 0.05 -1.50 0.45 -0.85 0.45 -1.70 0.70 -1.90 0.55 -0.45 -0.25 -4.85 0.55 -6.35 1.20 -1.55 0.60 -9.25 1.95 -11.25 1.90 -1.85 0 -6.65 1.10 -7.30 1.75 -0.20 0.20 -1.70 0.35 -3.30 0.35 -3.35 0 -7.40 0.90 -7.40 1.60 0 0.25 -0.20 0.30 -0.50 0.15 -0.25 -0.15 -0.50 -0.10 -0.50 0.10 0 0.25 -0.40 0.45 -0.85 0.50 -3.80 0.30 -52.50 0.50 -56.60 0.25z m45.80 -92.95 c1.40 -0.40 4.25 -0.80 6.25 -0.90 2 -0.15 4.65 -0.45 5.90 -0.70 1.25 -0.30 4.50 -0.85 7.25 -1.30 7.80 -1.25 13.85 -2.75 15.35 -3.80 0.75 -0.50 2 -0.95 2.80 -0.95 0.80 0 3.50 -0.65 6 -1.50 2.50 -0.80 4.90 -1.50 5.30 -1.50 0.45 0 1.50 -0.45 2.40 -1 0.90 -0.55 2.15 -1 2.80 -1 1.20 0 4.85 -1.70 5.90 -2.75 0.35 -0.35 1.75 -0.80 3.05 -1 1.30 -0.20 2.75 -0.65 3.15 -1 0.40 -0.35 2.10 -1.30 3.75 -2.05 1.65 -0.75 4.05 -2.05 5.30 -2.80 1.30 -0.80 3.05 -1.65 4 -2 1.90 -0.65 8.55 -4.50 10.55 -6.10 0.70 -0.55 2.45 -1.70 3.90 -2.55 1.45 -0.80 3.65 -2.40 4.90 -3.45 1.30 -1.05 3.05 -2.25 3.95 -2.60 1 -0.45 1.65 -1.10 1.75 -1.80 0.10 -0.75 0.65 -1.20 1.70 -1.50 0.90 -0.20 1.95 -0.95 2.40 -1.65 0.50 -0.75 1.30 -1.25 2 -1.25 0.90 0 1.25 -0.35 1.45 -1.40 0.20 -0.95 0.90 -1.75 2.45 -2.60 1.15 -0.65 3.70 -2.70 5.60 -4.50 7.45 -7.10 13.80 -13.55 13.80 -14 0 -0.30 0.80 -0.90 1.75 -1.35 1.20 -0.55 1.75 -1.15 1.75 -1.90 0 -0.60 1.10 -2.35 2.45 -3.90 1.40 -1.60 3.10 -3.70 3.85 -4.75 0.75 -1 2.15 -2.65 3.10 -3.70 0.95 -1 1.85 -2.55 2.05 -3.45 0.20 -1.05 0.80 -1.90 1.70 -2.40 1.50 -0.90 3.85 -3.85 3.85 -4.90 0 -1.20 3.75 -6.20 4.85 -6.45 0.80 -0.20 1.15 -0.70 1.15 -1.45 0 -1.05 2.85 -6.90 6.25 -13 0.60 -1.10 1.25 -2.80 1.45 -3.80 0.20 -1.05 0.75 -2.40 1.30 -3.10 0.55 -0.70 1 -1.80 1 -2.45 0 -0.70 0.55 -1.75 1.20 -2.35 0.65 -0.60 1.30 -1.75 1.45 -2.50 0.15 -0.80 0.85 -2.10 1.55 -2.95 0.75 -0.85 1.30 -2.10 1.30 -3 0 -0.80 0.55 -2.70 1.25 -4.20 0.70 -1.45 1.25 -3.15 1.25 -3.75 0 -0.65 0.55 -2.75 1.20 -4.75 0.65 -2 1.55 -5.35 1.95 -7.40 0.90 -4.60 2.10 -9.55 3.45 -14.50 0.60 -2.20 1.20 -6.35 1.40 -10 0.20 -3.45 0.75 -7.50 1.20 -9 0.65 -2.20 0.80 -5.15 0.80 -15.50 0 -14.75 -0.50 -21.65 -2.65 -34.50 -0.80 -5.10 -1.70 -10.80 -1.90 -12.75 -0.25 -2.15 -0.80 -3.95 -1.40 -4.80 -0.55 -0.75 -1.15 -2.35 -1.35 -3.55 -0.15 -1.20 -0.70 -3.50 -1.20 -5.15 -0.50 -1.65 -1.20 -4.55 -1.55 -6.50 -0.70 -4.10 -1.65 -6.45 -3.25 -8.40 -0.65 -0.75 -1.30 -2.20 -1.50 -3.25 -0.20 -1 -0.95 -2.95 -1.70 -4.35 -0.75 -1.35 -1.55 -3.25 -1.75 -4.10 -0.40 -2.05 -3 -7.35 -4.60 -9.45 -0.65 -0.85 -1.15 -1.70 -1.15 -1.90 0 -0.20 -0.75 -1.65 -1.70 -3.25 -0.90 -1.60 -1.90 -3.65 -2.25 -4.60 -0.30 -0.95 -1.10 -2.30 -1.80 -3.05 -0.70 -0.75 -1.25 -1.50 -1.25 -1.70 0 -0.20 -0.60 -1.15 -1.35 -2.15 -1.40 -1.80 -2.10 -2.90 -3.55 -5.80 -0.40 -0.80 -1.35 -2.20 -2.05 -3.10 -0.70 -0.90 -1.95 -2.50 -2.80 -3.65 -0.80 -1.10 -2.75 -3.55 -4.25 -5.40 -1.55 -1.85 -3.70 -4.60 -4.85 -6.10 -3.10 -4.20 -7.35 -8.50 -8.30 -8.50 -0.55 0 -1.20 -0.70 -1.65 -1.75 -0.55 -1.30 -1.10 -1.85 -2.20 -2.10 -1.10 -0.20 -1.75 -0.75 -2.30 -1.95 -0.45 -0.95 -1.75 -2.45 -2.90 -3.35 -1.10 -0.85 -2.45 -1.95 -3 -2.35 -0.50 -0.40 -1.20 -1.40 -1.55 -2.15 -0.70 -1.65 -4.60 -4.95 -7.55 -6.30 -1.10 -0.50 -2.90 -1.85 -3.95 -3 -1.10 -1.10 -2.25 -2.05 -2.55 -2.05 -0.55 0 -3.25 -2 -6.35 -4.75 -0.75 -0.70 -1.80 -1.25 -2.30 -1.25 -0.50 0 -1.30 -0.45 -1.80 -1 -0.90 -1 -2 -1.65 -5.35 -3.30 -0.90 -0.40 -2 -1 -2.40 -1.25 -0.40 -0.25 -1.85 -1.05 -3.20 -1.85 -1.30 -0.75 -3.65 -2.20 -5.25 -3.20 -1.55 -1.05 -3.60 -2.05 -4.55 -2.20 -0.95 -0.15 -2.65 -0.80 -3.75 -1.45 -1.10 -0.60 -2.55 -1.30 -3.25 -1.50 -0.70 -0.20 -3.25 -1.35 -5.75 -2.50 -5.75 -2.75 -9.95 -4.35 -15.45 -5.95 -2.45 -0.70 -4.65 -1.45 -5 -1.70 -0.80 -0.65 -4.70 -1.70 -7.55 -2.15 -1.35 -0.20 -3.85 -0.60 -5.50 -0.90 -3 -0.60 -3.85 -0.80 -10.75 -2.55 -2.05 -0.55 -5.10 -1.10 -6.75 -1.25 -1.65 -0.20 -3.85 -0.65 -4.90 -1.05 -2.80 -1.05 -41.70 -1 -44.60 0.10 -1.10 0.40 -4.90 0.95 -8.50 1.25 -3.55 0.30 -7.80 1 -9.35 1.50 -1.60 0.50 -3.20 0.95 -3.65 0.95 -2.50 0 -30.15 8.90 -35.50 11.50 -2.20 1 -4.80 2.15 -5.80 2.45 -1 0.30 -2.55 1.15 -3.45 1.80 -0.95 0.70 -2.40 1.25 -3.25 1.25 -0.95 0 -2.70 0.80 -4.85 2.25 -1.85 1.25 -3.60 2.25 -3.85 2.25 -0.25 0 -1.60 0.80 -3.05 1.75 -1.45 0.95 -2.85 1.75 -3.10 1.75 -0.80 0 -5.50 3.25 -6.50 4.45 -0.55 0.65 -1.50 1.05 -2.40 1.05 -1.15 0 -1.65 0.30 -1.95 1.15 -0.45 1.10 -11.15 9.30 -14.05 10.75 -1.85 0.95 -5.50 4.45 -5.50 5.30 0 0.45 -0.85 1.20 -1.90 1.75 -1.05 0.55 -2.70 1.90 -3.65 3.05 -0.95 1.15 -2.65 3.05 -3.85 4.20 -6.65 6.35 -12.85 12.85 -14.35 15.05 -2.90 4.20 -6.65 8.90 -7.45 9.35 -0.45 0.25 -1.15 1.15 -1.60 2.05 -0.45 0.85 -1.35 2 -2 2.50 -0.65 0.50 -1.20 1.20 -1.20 1.50 0 0.95 -2 4.45 -3.55 6.25 -0.80 0.90 -1.45 1.95 -1.45 2.30 0 0.35 -0.65 1.50 -1.50 2.55 -0.80 1.05 -1.50 2.10 -1.50 2.40 0 0.30 -0.30 0.90 -0.70 1.30 -1.10 1.30 -8.30 14.90 -8.30 15.70 0 0.25 -0.80 2.10 -1.75 4.15 -0.95 2 -1.75 4.15 -1.75 4.70 0 1.10 -1.85 5.05 -2.60 5.55 -0.20 0.15 -0.65 1.55 -0.90 3.10 -0.25 1.60 -0.75 3.50 -1.15 4.25 -1.20 2.25 -3.35 9.80 -3.35 11.70 0 2 -0.85 4.80 -1.80 5.90 -0.55 0.70 -1.95 7.75 -3.30 16.50 -0.25 1.80 -0.70 4.40 -0.90 5.75 -1.35 7.50 -1.50 37.15 -0.20 45.85 0.40 2.70 0.70 5.90 0.70 7.20 0 1.25 0.20 3.20 0.45 4.35 0.25 1.15 0.75 3.55 1.05 5.35 0.35 1.80 0.80 4 1.10 4.90 0.25 0.90 0.70 2.80 0.90 4.25 0.25 1.45 0.80 3.75 1.25 5.10 0.45 1.40 1.50 4.75 2.30 7.50 0.85 2.75 1.75 5.40 2 5.85 0.85 1.70 2.45 6.15 2.45 6.95 0 0.45 0.45 1.30 0.95 1.90 1.05 1.20 1.50 2.25 3.10 7.55 0.60 2.05 1.40 4.20 1.80 4.75 0.35 0.55 0.65 1.55 0.65 2.25 0 1.30 2.20 5 3 5 0.25 0 0.65 0.80 0.95 1.75 0.25 0.95 0.95 2.40 1.50 3.20 0.60 0.80 1.05 1.60 1.05 1.80 0 0.20 0.45 0.90 1 1.60 0.55 0.70 1 1.80 1 2.45 0 0.60 0.60 1.75 1.35 2.55 0.80 0.80 1.85 2.20 2.40 3.15 0.55 0.95 1.40 2.30 1.85 3 0.50 0.70 1.25 1.95 1.70 2.85 0.50 0.90 1.50 1.85 2.30 2.20 0.90 0.35 1.40 0.95 1.40 1.65 0 1.10 5.80 9.15 8.90 12.30 0.90 0.95 2 2.45 2.40 3.35 0.35 0.85 1.35 2 2.20 2.50 0.80 0.45 1.50 1.25 1.50 1.65 0 0.80 4.30 4.85 6.05 5.70 0.45 0.25 1.15 1 1.45 1.75 0.30 0.70 1.65 2.10 3 3.05 1.35 0.95 2.50 2 2.50 2.25 0.05 0.55 4.80 4.25 7.40 5.80 1 0.55 1.60 1.35 1.60 1.95 0 0.75 0.55 1.30 1.80 1.80 0.95 0.40 2.45 1.50 3.25 2.45 0.85 0.95 2.35 2.20 3.35 2.85 1 0.60 3 2 4.45 3.15 2.55 2 5 3.60 10.10 6.65 1.55 0.95 2.90 1.85 3.05 2.05 0.45 0.65 6.80 3.55 7.75 3.55 0.55 0 1.75 0.55 2.70 1.15 4.85 3.20 6.80 4.35 7.35 4.35 0.80 0 5 1.85 9.80 4.30 1.85 0.95 3.85 1.70 4.40 1.70 0.55 0 1.90 0.45 3 1 1.10 0.55 2.35 1 2.75 1 0.45 0 2.50 0.70 4.60 1.50 2.05 0.85 4.40 1.50 5.20 1.50 0.85 0 2.55 0.55 3.85 1.25 1.30 0.70 2.85 1.25 3.45 1.25 0.55 0 2.50 0.45 4.25 1 1.70 0.55 4.10 1 5.25 1 1.15 0 2.20 0.20 2.35 0.45 0.15 0.20 1.85 0.55 3.80 0.65 1.90 0.15 3.85 0.55 4.25 0.90 2.60 2.15 44.65 3.10 51.60 1.15z"/>
  <path d="M625.35 471.65 c-0.20 -0.15 -0.35 -1.05 -0.35 -1.95 0 -2.15 1.50 -3.20 4.60 -3.20 l2.40 0 0 2.15 c0 1.20 -0.25 2.40 -0.60 2.75 -0.65 0.65 -5.50 0.85 -6.05 0.25z"/>
 </g>
 <g fill="#d7f5e3">
  <path d="M523 591 c-9.15 -0.50 -13.90 -1 -15.50 -1.65 -1.90 -0.75 -2.55 -0.90 -5.45 -1.10 -1.50 -0.10 -2.95 -0.45 -3.25 -0.75 -0.25 -0.25 -1.40 -0.50 -2.50 -0.50 -1.15 0 -3.50 -0.45 -5.20 -1 -1.75 -0.55 -3.70 -1 -4.25 -1 -0.60 0 -2.15 -0.55 -3.45 -1.25 -1.30 -0.70 -3 -1.25 -3.85 -1.25 -0.80 0 -3.15 -0.65 -5.20 -1.50 -2.10 -0.80 -4.15 -1.50 -4.60 -1.50 -0.40 0 -1.65 -0.45 -2.75 -1 -1.10 -0.55 -2.45 -1 -3 -1 -0.55 0 -2.55 -0.75 -4.40 -1.70 -4.80 -2.45 -9 -4.30 -9.80 -4.30 -0.55 0 -2.50 -1.15 -7.35 -4.35 -0.95 -0.60 -2.15 -1.15 -2.70 -1.15 -0.95 0 -7.30 -2.90 -7.75 -3.55 -0.15 -0.20 -1.50 -1.10 -3.05 -2.05 -5.10 -3.05 -7.55 -4.65 -10.10 -6.65 -1.45 -1.15 -3.45 -2.55 -4.45 -3.15 -1 -0.65 -2.50 -1.90 -3.35 -2.85 -0.80 -0.95 -2.30 -2.05 -3.25 -2.45 -1.25 -0.50 -1.80 -1.05 -1.80 -1.80 0 -0.60 -0.60 -1.40 -1.60 -1.95 -2.60 -1.55 -7.35 -5.25 -7.40 -5.80 0 -0.25 -1.15 -1.30 -2.50 -2.25 -1.35 -0.95 -2.70 -2.35 -3 -3.05 -0.30 -0.75 -1 -1.50 -1.45 -1.75 -1.75 -0.85 -6.05 -4.90 -6.05 -5.70 0 -0.40 -0.70 -1.20 -1.50 -1.65 -0.85 -0.50 -1.85 -1.65 -2.20 -2.50 -0.40 -0.90 -1.50 -2.40 -2.40 -3.35 -3.10 -3.15 -8.90 -11.20 -8.90 -12.30 0 -0.70 -0.50 -1.30 -1.40 -1.65 -0.80 -0.35 -1.80 -1.30 -2.30 -2.20 -0.45 -0.90 -1.20 -2.15 -1.70 -2.85 -0.45 -0.70 -1.30 -2.05 -1.85 -3 -0.55 -0.95 -1.60 -2.35 -2.40 -3.15 -0.75 -0.80 -1.35 -1.95 -1.35 -2.55 0 -0.65 -0.45 -1.75 -1 -2.45 -0.55 -0.70 -1 -1.40 -1 -1.60 0 -0.20 -0.45 -1 -1.05 -1.80 -0.55 -0.80 -1.25 -2.25 -1.50 -3.20 -0.30 -0.95 -0.70 -1.75 -0.95 -1.75 -0.80 0 -3 -3.70 -3 -5 0 -0.70 -0.30 -1.70 -0.65 -2.25 -0.40 -0.55 -1.20 -2.70 -1.80 -4.75 -1.40 -4.65 -2.60 -7.50 -3.10 -7.50 -0.40 0 -0.80 -1 -1.20 -2.85 -0.25 -1.20 -1.55 -4.80 -2.15 -5.95 -0.30 -0.55 -1.20 -3.20 -2.05 -5.95 -0.80 -2.75 -1.85 -6.10 -2.30 -7.50 -0.45 -1.35 -1 -3.65 -1.25 -5.10 -0.20 -1.45 -0.65 -3.35 -0.95 -4.25 -0.55 -1.75 -0.70 -2.60 -1.55 -7.85 -0.30 -1.80 -0.65 -3.35 -0.75 -3.55 -0.10 -0.20 -0.35 -2.35 -0.50 -4.80 -0.15 -2.45 -0.50 -5.90 -0.80 -7.70 -1.05 -6.55 -0.65 -42.65 0.55 -46.75 0.20 -0.80 0.55 -2.85 0.70 -4.50 0.15 -1.65 0.40 -3.55 0.55 -4.25 0.60 -2.70 1.70 -8.85 1.90 -10.65 0.15 -1.05 0.60 -2.30 1 -2.75 1 -1.20 1.85 -3.90 1.85 -6 0 -1.90 2.15 -9.45 3.35 -11.70 0.40 -0.75 0.90 -2.65 1.15 -4.25 0.25 -1.55 0.70 -2.95 0.90 -3.10 0.75 -0.50 2.60 -4.45 2.60 -5.55 0 -0.60 0.70 -2.45 1.50 -4.20 0.85 -1.75 1.60 -3.55 1.75 -4.10 0.30 -1.45 7.40 -14.85 8.55 -16.25 0.40 -0.40 0.70 -1 0.70 -1.30 0 -0.30 0.70 -1.35 1.50 -2.40 0.85 -1.05 1.50 -2.20 1.50 -2.55 0 -0.35 0.65 -1.40 1.45 -2.30 1.55 -1.80 3.55 -5.30 3.55 -6.25 0 -0.30 0.55 -1 1.20 -1.50 0.65 -0.50 1.55 -1.65 2 -2.50 0.45 -0.90 1.15 -1.80 1.60 -2.05 0.80 -0.45 4.55 -5.15 7.45 -9.35 1.50 -2.20 7.70 -8.70 14.35 -15.05 1.20 -1.15 2.90 -3.05 3.85 -4.20 0.95 -1.15 2.60 -2.50 3.65 -3.05 1.05 -0.55 1.90 -1.30 1.90 -1.75 0 -0.85 3.65 -4.35 5.50 -5.30 0.70 -0.35 4.05 -2.65 7.45 -5.10 4.25 -3.10 6.30 -4.95 6.65 -5.90 0.45 -1.25 0.75 -1.40 2.25 -1.30 1.20 0.05 1.90 -0.15 2.20 -0.75 0.55 -0.90 5.50 -4.35 6.35 -4.35 0.25 0 1.65 -0.80 3.10 -1.75 1.45 -0.95 2.80 -1.75 3.05 -1.75 0.25 0 2 -1 3.85 -2.25 2.15 -1.45 3.90 -2.25 4.85 -2.25 0.85 0 2.30 -0.55 3.25 -1.25 0.90 -0.65 2.45 -1.50 3.45 -1.80 1 -0.30 3.60 -1.45 5.80 -2.45 5.20 -2.50 33.30 -11.60 35.75 -11.60 0.40 0 2 -0.40 3.50 -0.90 2.50 -0.85 6.20 -1.30 12.75 -1.70 1.40 -0.10 3.60 -0.55 4.95 -1 2.10 -0.70 5.20 -0.80 24.05 -0.80 17.65 0 22.05 0.10 23.60 0.70 1.05 0.40 3.25 0.85 4.90 1.05 1.65 0.15 4.70 0.70 6.75 1.25 6.90 1.75 7.75 1.95 10.75 2.55 1.65 0.30 4.15 0.70 5.50 0.90 2.85 0.45 6.75 1.50 7.55 2.15 0.35 0.25 2.55 1 5 1.70 5.50 1.60 9.70 3.20 15.45 5.95 2.50 1.15 5.05 2.30 5.75 2.50 0.70 0.20 2.15 0.90 3.25 1.50 1.10 0.65 2.80 1.30 3.75 1.45 0.95 0.15 3 1.15 4.55 2.20 1.60 1 3.95 2.45 5.25 3.20 1.35 0.80 2.80 1.60 3.20 1.85 0.40 0.25 1.50 0.85 2.40 1.25 3.35 1.65 4.45 2.30 5.35 3.30 0.50 0.55 1.30 1 1.80 1 0.50 0 1.55 0.55 2.30 1.25 3.10 2.75 5.80 4.75 6.35 4.75 0.30 0 1.45 0.95 2.55 2.05 1.05 1.15 2.85 2.50 3.95 3 2.95 1.35 6.85 4.65 7.55 6.30 0.35 0.75 1.05 1.75 1.55 2.15 0.55 0.40 1.90 1.50 3 2.35 1.15 0.90 2.45 2.40 2.90 3.35 0.55 1.20 1.20 1.75 2.30 1.95 1.10 0.25 1.65 0.80 2.20 2.10 0.45 1.05 1.10 1.75 1.65 1.75 0.95 0 5.20 4.30 8.30 8.50 1.15 1.50 3.30 4.25 4.85 6.10 1.50 1.85 3.45 4.30 4.25 5.40 0.85 1.15 2.10 2.75 2.80 3.65 0.70 0.90 1.65 2.30 2.05 3.10 1.45 2.90 2.15 4 3.55 5.80 0.75 1 1.35 1.95 1.35 2.15 0 0.20 0.55 0.95 1.25 1.70 0.70 0.75 1.50 2.10 1.80 3.05 0.35 0.95 1.35 3 2.25 4.60 0.95 1.60 1.70 3.05 1.70 3.25 0 0.20 0.50 1.05 1.15 1.90 1.60 2.10 4.20 7.40 4.60 9.45 0.20 0.85 1 2.75 1.75 4.10 0.75 1.40 1.50 3.35 1.70 4.35 0.20 1.05 0.90 2.50 1.55 3.30 1.75 2.05 3.55 7.60 4 12.05 0.10 0.70 0.40 2 0.75 2.80 0.30 0.85 0.80 2.80 1.05 4.40 0.25 1.65 0.95 3.55 1.50 4.30 0.60 0.85 1.15 2.70 1.45 5.05 0.25 2.05 1.15 7.80 2.05 12.75 1.95 11.05 1.90 10.55 2.25 32.25 0.20 15.75 0.15 18.05 -0.60 20.50 -0.45 1.50 -1 5.55 -1.20 9 -0.20 3.65 -0.80 7.80 -1.40 10 -1.35 4.95 -2.55 9.90 -3.45 14.50 -0.40 2.05 -1.30 5.40 -1.95 7.40 -0.65 2 -1.20 4.10 -1.20 4.75 0 0.60 -0.60 2.35 -1.30 3.85 -0.75 1.60 -1.15 3.25 -1.05 4 0.20 0.85 -0.15 1.70 -1.20 2.90 -0.85 0.95 -1.60 2.30 -1.80 3.10 -0.15 0.80 -0.80 1.95 -1.45 2.55 -0.65 0.60 -1.20 1.65 -1.20 2.35 0 0.65 -0.45 1.75 -1 2.45 -0.55 0.70 -1.10 2.05 -1.30 3.10 -0.20 1 -0.85 2.70 -1.45 3.80 -3.95 7.05 -6.25 11.95 -6 12.85 0.25 0.70 0 1.05 -1.10 1.45 -1.45 0.50 -5.15 5.25 -5.15 6.60 0 1.05 -2.35 4 -3.85 4.90 -0.90 0.50 -1.50 1.35 -1.70 2.40 -0.20 0.90 -1.10 2.45 -2.05 3.45 -0.95 1.05 -2.35 2.70 -3.10 3.70 -0.75 1.05 -2.45 3.15 -3.85 4.75 -1.35 1.55 -2.45 3.30 -2.45 3.90 0 0.75 -0.55 1.35 -1.75 1.90 -0.95 0.45 -1.75 1.05 -1.75 1.35 0 0.45 -5.40 5.95 -13.60 13.80 -1.70 1.70 -4.15 3.70 -5.40 4.45 -2.85 1.75 -2.65 1.55 -2.75 2.90 -0.05 0.80 -0.45 1.15 -1.40 1.25 -0.80 0.10 -1.70 0.70 -2.15 1.40 -0.45 0.65 -1.50 1.40 -2.40 1.60 -1.05 0.30 -1.60 0.75 -1.70 1.50 -0.10 0.70 -0.75 1.35 -1.75 1.80 -0.90 0.35 -2.65 1.55 -3.95 2.60 -1.25 1.05 -3.45 2.65 -4.90 3.45 -1.45 0.85 -3.20 2 -3.90 2.55 -2 1.60 -8.65 5.45 -10.55 6.10 -0.95 0.35 -2.70 1.20 -4 2 -1.25 0.75 -3.65 2.05 -5.30 2.80 -1.65 0.75 -3.35 1.70 -3.75 2.05 -0.40 0.35 -1.85 0.80 -3.15 1 -1.30 0.20 -2.70 0.65 -3.05 1 -1.05 1.05 -4.70 2.75 -5.90 2.75 -0.65 0 -1.90 0.45 -2.80 1 -0.90 0.55 -1.95 1 -2.40 1 -0.40 0 -2.80 0.70 -5.30 1.50 -2.50 0.85 -5.20 1.50 -6.05 1.50 -0.85 0 -1.90 0.35 -2.40 0.80 -1 0.90 -8.85 3 -12.95 3.50 -1.50 0.15 -3.10 0.45 -3.50 0.65 -0.40 0.20 -1.75 0.45 -3 0.50 -1.25 0.05 -3.35 0.45 -4.75 0.85 -1.35 0.35 -3.60 0.70 -5 0.70 -1.35 0 -2.90 0.05 -3.35 0.05 -0.50 0 -1 0.25 -1.15 0.50 -0.20 0.25 -0.55 0.35 -0.80 0.20 -0.25 -0.20 -0.75 -0.15 -1.05 0.10 -0.90 0.55 -0.15 0.50 -16.15 0.75 -7.95 0.15 -17.75 0.10 -21.75 -0.10z m35 -92.30 c13.25 -2.25 26.05 -6.40 35.30 -11.50 6.65 -3.60 8.25 -4.55 11.70 -6.90 11 -7.40 24.50 -20.40 30.55 -29.40 4.55 -6.65 6.25 -9.50 8.75 -14.15 6.85 -12.95 10.75 -24.90 12.95 -39.75 4 -27.10 -3.10 -56.70 -19.20 -80.25 -5.90 -8.60 -8.25 -11.40 -16.05 -19 -6.20 -6.05 -9.70 -9.05 -14 -11.90 -1.50 -1 -3.65 -2.50 -4.75 -3.25 -2.65 -1.95 -12.35 -7 -18.25 -9.55 -7.25 -3.10 -18.40 -6.35 -27 -7.85 -6.70 -1.15 -9.10 -1.35 -18 -1.35 -9.35 0 -11 0.15 -18.75 1.60 -8.85 1.60 -25.90 6.60 -28 8.15 -0.25 0.25 -3.25 1.75 -6.55 3.40 -13.60 6.70 -26.10 16.60 -36.55 28.95 -11.95 14.10 -19.60 28.65 -24.35 46.05 -1.10 3.95 -1.45 5.55 -2.75 12.25 -2.90 14.55 -1.45 33.95 3.75 51.15 1 3.20 2.10 6.55 2.45 7.35 0.40 0.85 1.20 2.75 1.75 4.25 3.10 7.90 11.25 21.60 17.40 29.15 3.20 3.95 13.30 13.95 18.10 17.95 9.45 7.90 23.45 15.70 35.20 19.60 6.95 2.35 12.10 3.75 15.80 4.30 2.05 0.30 4.85 0.80 6.15 1.10 7.65 1.70 23.15 1.50 34.35 -0.40z m71.90 -28.80 c0.90 -0.90 0.70 -1.90 -0.40 -1.90 -0.55 0 -1 0.25 -1 0.60 0 0.30 -0.15 0.40 -0.35 0.25 -0.45 -0.45 -1.70 0.65 -1.35 1.20 0.40 0.65 2.40 0.55 3.10 -0.15z"/>
  <path d="M518.95 421.15 c-0.90 -0.80 -7.70 -7.35 -15.05 -14.65 l-13.40 -13.20 0 -3.20 c0 -1.95 0.25 -3.40 0.65 -3.75 0.35 -0.35 2 -1.90 3.70 -3.45 2.85 -2.70 3.25 -2.90 5.50 -2.90 l2.40 0 9.65 9.75 c5.25 5.35 9.70 9.75 9.80 9.75 0.15 0 12.50 -12.25 27.45 -27.25 l27.25 -27.25 2.10 0 c2.75 0 3.70 0.55 7.40 4.30 2.95 3.05 3.10 3.35 3.10 5.60 0 1.30 -0.20 2.65 -0.45 3.05 -0.45 0.70 -53.65 54.10 -60.70 60.95 -3.40 3.25 -3.95 3.60 -5.75 3.60 -1.45 0 -2.45 -0.35 -3.65 -1.35z"/>
 </g>
 <g fill="#29c768">
  <path d="M529.40 501.50 c-2.65 -0.20 -5.90 -0.60 -7.25 -0.90 -1.30 -0.30 -4.10 -0.80 -6.15 -1.10 -3.70 -0.55 -8.85 -1.95 -15.80 -4.30 -11.75 -3.90 -25.75 -11.70 -35.20 -19.60 -4.80 -4 -14.90 -14 -18.10 -17.95 -6.15 -7.55 -14.30 -21.25 -17.40 -29.15 -0.55 -1.50 -1.35 -3.40 -1.75 -4.25 -1.20 -2.60 -4.20 -13.05 -5.25 -18.30 -2.85 -13.85 -3.25 -31.75 -0.95 -43.20 1.30 -6.70 1.65 -8.30 2.75 -12.25 1.85 -6.75 2.90 -9.85 5.65 -16.25 3.25 -7.45 5 -10.70 10 -18.20 11.60 -17.55 27.60 -31.85 45.25 -40.55 3.30 -1.65 6.40 -3.30 6.80 -3.65 0.40 -0.30 1.20 -0.65 1.80 -0.70 0.65 -0.05 1.75 -0.40 2.55 -0.80 2.90 -1.45 17.15 -5.35 24.40 -6.65 6.70 -1.20 8.70 -1.35 19.25 -1.35 10.55 0 12.55 0.15 19.50 1.35 8.60 1.50 19.75 4.75 27 7.85 5.90 2.55 15.60 7.60 18.25 9.55 1.10 0.75 3.25 2.25 4.75 3.25 4.30 2.85 7.80 5.85 14 11.90 6.35 6.15 7.70 7.60 11.05 12 22.20 29.05 30.05 63.15 22.70 99 -0.65 3.25 -1.75 7 -4.15 14.50 -3.70 11.45 -12.65 27.20 -21.20 37.35 -6.20 7.35 -17.25 17.20 -25.40 22.70 -3.45 2.35 -5.05 3.30 -11.70 6.90 -3.05 1.70 -12 5.55 -15.70 6.75 -15.40 5.05 -34.20 7.35 -49.70 6.05z m-2.55 -84.10 c7.05 -6.85 60.25 -60.25 60.70 -60.95 0.90 -1.45 0.40 -2.50 -2.65 -5.65 -3.05 -3.10 -4.70 -4.30 -5.90 -4.30 -0.35 0 -13.20 12.60 -28.55 28 -15.40 15.40 -28.10 28 -28.25 28 -0.10 0 -4.75 -4.60 -10.30 -10.25 -5.50 -5.60 -10.45 -10.35 -10.95 -10.50 -1.20 -0.40 -1.75 -0.05 -5.65 3.60 -5.25 5 -5.80 4 10.10 19.65 13.85 13.70 16.30 16 17.20 16 0.25 0 2.20 -1.65 4.25 -3.60z"/>
 </g>
</svg>