<svg width="54" height="39" fill="none" xmlns="http://www.w3.org/2000/svg"><rect x=".5" y=".5" width="53" height="37.118" rx="3.5" fill="#fff" stroke="#D9D9D9"/><path d="M25.087 19.538l1.137-7.269h1.787l-1.137 7.27h-1.787zM19.806 12.269h2.842c1.787 0 2.274 1.074 2.03 2.313-.162 1.074-.893 1.735-1.867 1.983l1.787 2.973h-2.356l-1.38-2.89-.406 2.89h-1.868l1.218-7.269zm1.624 1.404l-.325 1.818h.569c.487 0 .974-.413 1.056-.909.08-.496-.244-.909-.813-.909h-.487zM33.45 19.538l1.137-7.269h1.868l-1.137 7.27H33.45zM39.458 13.839l-.243 1.239h2.111l-.243 1.57H38.97l-.162 1.32H41l-.243 1.57h-4.061l1.137-7.269h4.06l-.243 1.57h-2.193zM16.233 13.839l-.162 1.239h2.111l-.243 1.57h-2.112l-.244 1.32h2.193l-.244 1.57h-4.06l1.137-7.269h4.06l-.243 1.57h-2.193zM31.015 13.839l-.163 1.239h2.03l-.243 1.57h-2.03l-.487 2.89h-1.868l1.137-7.269h4.142l-.244 1.57h-2.274zM45.388 12.269H42.95l-1.137 7.27h2.437c2.274 0 4.142-1.57 4.466-3.635.163-1.405-.487-3.635-3.33-3.635zm1.38 3.552c-.243 1.322-1.137 2.148-2.355 2.148h-.487l.65-4.13h.405c1.381 0 1.95.99 1.787 1.982zM6 11.278h3.41l.407 5.287A391.762 391.762 0 0116.72 5h1.137a801.71 801.71 0 00-7.228 14.539H8.112l-.65-5.865c-.163-1.405-.406-2.065-1.462-2.148v-.248z" fill="#074784"/><path d="M10.63 12.847l2.68-4.626v-.165H7.3v.165l2.924 1.322.244 3.304h.162z" fill="#F09C11"/><path d="M21.267 23.586c-.488 0-.894.248-1.218.578l.406-2.891h-1.219l-.893 6.36h1.218l.081-.495c.244.33.569.578 1.056.578.975 0 1.868-.908 2.03-2.065.163-1.156-.487-2.065-1.461-2.065zm.162 2.065c-.081.496-.487.909-.893.909s-.731-.413-.65-.909c.081-.495.487-.909.893-.909.407 0 .731.413.65.91z" fill="#074784"/><path d="M26.14 23.669h1.38l-3.654 5.948h-1.381l1.543-2.479-1.218-3.47h1.38l.65 2.066 1.3-2.065zM35.724 27.634h-1.705l1.949-6.361h1.705l-1.949 6.36zM33.289 21.273l-2.274 4.13-.163-4.13H27.93v.248c.974 0 1.137.165 1.299.908l.569 5.205h1.786l3.574-6.361h-1.868zM44.413 26.725l-.406.909H42.14l3.411-6.361h2.274l.569 6.36H46.525l-.081-.908h-2.03zm.569-1.24h1.462l-.163-2.973-1.3 2.974zM39.46 27.8c-1.218 0-2.03-.414-2.599-.744l.813-1.24c.487.33.893.661 1.867.661.325 0 .569-.082.731-.33.244-.413-.08-.66-.73-.991l-.325-.33c-.975-.662-1.462-1.323-.975-2.479.325-.743 1.056-1.24 2.355-1.24.893 0 1.706.414 2.193.744l-.975 1.074c-.487-.413-.893-.578-1.299-.578-.325 0-.65.165-.73.33-.163.33.08.579.568.91l.406.247c1.218.743 1.462 1.57 1.218 2.313-.406 1.404-1.462 1.652-2.518 1.652z" fill="#074784"/></svg>