<?xml version="1.0" encoding="UTF-8"?>
<!DOCTYPE svg PUBLIC "-//W3C//DTD SVG 1.1//EN" "http://www.w3.org/Graphics/SVG/1.1/DTD/svg11.dtd">
<!-- Creator: CorelDRAW 2019 (64-Bit) -->
<svg xmlns="http://www.w3.org/2000/svg" xml:space="preserve" width="6.1862in" height="3.51059in" version="1.1" style="shape-rendering:geometricPrecision; text-rendering:geometricPrecision; image-rendering:optimizeQuality; fill-rule:evenodd; clip-rule:evenodd"
viewBox="0 0 12168.43 6905.42"
 xmlns:xlink="http://www.w3.org/1999/xlink"
 xmlns:xodm="http://www.corel.com/coreldraw/odm/2003">
 <defs>
  <style type="text/css">
   <![CDATA[
    .fil1 {fill:none}
    .fil5 {fill:#FEFEFE}
    .fil4 {fill:#01D063}
    .fil0 {fill:#383E4C}
    .fil3 {fill:#FF8A12}
    .fil7 {fill:#01D063;fill-rule:nonzero}
    .fil2 {fill:#6F7FA6;fill-rule:nonzero}
    .fil6 {fill:#D2D3D5;fill-rule:nonzero}
   ]]>
  </style>
    <clipPath id="id0">
     <path d="M8667.15 2666.13c-132.53,83.68 -236.05,200.11 -310.7,349.3 -74.62,149.26 -111.96,316.52 -111.96,501.8 0,187.83 37.34,355.75 111.96,503.68 74.65,148 178.82,263.79 312.6,347.39 133.77,83.58 284.39,125.44 451.61,125.44 120.95,0 229,-23.83 324.27,-71.39 95.15,-47.61 168.43,-116.42 219.97,-206.54l15.45 0 23.14 227.73 550.63 0 0 -2701.83 -585.36 0 0 1076.88 -11.59 0c-54.04,-90.05 -128,-158.84 -221.9,-206.48 -93.94,-47.62 -201.4,-71.43 -322.34,-71.43 -164.66,0 -313.28,41.86 -445.77,125.44zm175.65 851.1c0,-128.65 37.92,-234.15 113.89,-316.52 75.78,-82.33 178.06,-123.52 306.85,-123.52 128.61,0 231.54,41.19 308.75,123.52 77.21,82.38 115.81,187.87 115.81,316.52 0,128.69 -38.6,234.84 -115.81,318.4 -77.21,83.65 -180.15,125.44 -308.75,125.44 -126.1,0 -227.75,-41.79 -304.96,-125.44 -77.22,-83.56 -115.78,-189.72 -115.78,-318.4zm-2313.9 -851.1c-132.53,83.68 -236.75,200.11 -312.63,349.3 -75.94,149.26 -113.85,316.52 -113.85,501.8 0,185.25 37.91,352.55 113.85,501.77 75.89,149.25 180.1,265.7 312.63,349.3 132.5,83.58 282.35,125.44 449.69,125.44 123.51,0 232.82,-23.83 328.08,-71.39 95.15,-47.61 168.44,-116.42 220.03,-206.54l15.4 0 23.16 227.73 544.24 0 0 -1852.68 -544.24 0 -23.16 227.73 -15.4 0c-51.58,-90.05 -124.88,-158.84 -220.03,-206.48 -95.25,-47.62 -204.56,-71.43 -328.08,-71.43 -167.34,0 -317.19,41.86 -449.69,125.44zm175.65 851.1c0,-128.65 37.92,-234.15 113.89,-316.52 75.81,-82.33 178.06,-123.52 306.85,-123.52 128.6,0 231.53,41.19 308.75,123.52 77.22,82.38 115.81,187.87 115.81,316.52 0,128.69 -38.59,234.84 -115.81,318.4 -77.22,83.65 -180.15,125.44 -308.75,125.44 -126.11,0 -227.76,-41.79 -304.97,-125.44 -77.18,-83.56 -115.77,-189.72 -115.77,-318.4zm-2192.37 -810.57c-146.61,110.65 -220,257.32 -220,440 0,151.89 51.48,276.66 154.43,374.4 102.87,97.82 253.39,158.25 451.56,181.42l254.79 27.03c102.87,12.91 174.92,31.52 216.14,55.97 41.08,24.49 61.73,61.15 61.73,109.98 0,56.64 -23.16,99.75 -69.47,129.33 -46.31,29.6 -114.52,44.35 -204.57,44.35 -90.1,0 -162.09,-17.36 -216.13,-52.1 -54.07,-34.74 -83.65,-81.64 -88.8,-140.86l-567.39 0c12.9,192.95 93.94,344.18 243.21,453.5 149.18,109.4 360.15,164.05 632.94,164.05 270.21,0 479.27,-55.32 627.23,-165.97 147.99,-110.62 221.96,-264.99 221.96,-463.15 0,-159.56 -50.83,-286.26 -152.44,-380.2 -101.7,-93.91 -248.96,-151.14 -441.95,-171.77l-254.8 -30.9c-105.53,-10.25 -179.43,-27.6 -221.89,-52.09 -42.48,-24.41 -63.73,-57.23 -63.73,-98.43 0,-48.85 23.17,-87.46 69.47,-115.81 46.31,-28.29 113.2,-42.45 200.74,-42.45 177.6,0 272.71,66.93 285.62,200.7l559.63 0c-12.86,-205.82 -89.45,-362.82 -229.62,-470.91 -140.28,-108.07 -344.18,-162.09 -611.81,-162.09 -277.88,0 -490.19,55.36 -636.86,165.97zm-1613.34 -115.78l0 1852.68 586.74 0 0 -733.36c0,-388.5 165.9,-582.81 497.84,-582.81 64.31,0 128.69,6.44 193,19.28l0 -567.37c-41.15,-15.46 -92.63,-23.15 -154.35,-23.15 -121.01,0 -229.65,30.26 -326.19,90.71 -96.45,60.47 -169.25,147.3 -218.06,260.5l-15.42 0 -23.16 -316.47 -540.41 0zm-490.39 -243.18c105.54,0 193,-34.07 262.46,-102.29 69.47,-68.14 104.28,-153.71 104.28,-256.67 0,-105.5 -34.81,-192.33 -104.28,-260.55 -69.46,-68.14 -156.92,-102.29 -262.46,-102.29 -108.03,0 -196.24,34.14 -264.37,102.29 -68.22,68.21 -102.29,155.05 -102.29,260.55 0,105.53 34.07,191.73 102.29,258.57 68.13,66.97 156.34,100.38 264.37,100.38zm293.37 2095.86l0 -1852.68 -586.65 0 0 1852.68 586.65 0z"/>
    </clipPath>
     <clipPath id="id1">
     </clipPath>
     <clipPath id="id2">
      <path d="M8667.15 2666.13c-132.53,83.68 -236.05,200.11 -310.7,349.3 -74.62,149.26 -111.96,316.52 -111.96,501.8 0,187.83 37.34,355.75 111.96,503.68 74.65,148 178.82,263.79 312.6,347.39 133.77,83.58 284.39,125.44 451.61,125.44 120.95,0 229,-23.83 324.27,-71.39 95.15,-47.61 168.43,-116.42 219.97,-206.54l15.45 0 23.14 227.73 550.63 0 0 -2701.83 -585.36 0 0 1076.88 -11.59 0c-54.04,-90.05 -128,-158.84 -221.9,-206.48 -93.94,-47.62 -201.4,-71.43 -322.34,-71.43 -164.66,0 -313.28,41.86 -445.77,125.44zm175.65 851.1c0,-128.65 37.92,-234.15 113.89,-316.52 75.78,-82.33 178.06,-123.52 306.85,-123.52 128.61,0 231.54,41.19 308.75,123.52 77.21,82.38 115.81,187.87 115.81,316.52 0,128.69 -38.6,234.84 -115.81,318.4 -77.21,83.65 -180.15,125.44 -308.75,125.44 -126.1,0 -227.75,-41.79 -304.96,-125.44 -77.22,-83.56 -115.78,-189.72 -115.78,-318.4zm-2313.9 -851.1c-132.53,83.68 -236.75,200.11 -312.63,349.3 -75.94,149.26 -113.85,316.52 -113.85,501.8 0,185.25 37.91,352.55 113.85,501.77 75.89,149.25 180.1,265.7 312.63,349.3 132.5,83.58 282.35,125.44 449.69,125.44 123.51,0 232.82,-23.83 328.08,-71.39 95.15,-47.61 168.44,-116.42 220.03,-206.54l15.4 0 23.16 227.73 544.24 0 0 -1852.68 -544.24 0 -23.16 227.73 -15.4 0c-51.58,-90.05 -124.88,-158.84 -220.03,-206.48 -95.25,-47.62 -204.56,-71.43 -328.08,-71.43 -167.34,0 -317.19,41.86 -449.69,125.44zm175.65 851.1c0,-128.65 37.92,-234.15 113.89,-316.52 75.81,-82.33 178.06,-123.52 306.85,-123.52 128.6,0 231.53,41.19 308.75,123.52 77.22,82.38 115.81,187.87 115.81,316.52 0,128.69 -38.59,234.84 -115.81,318.4 -77.22,83.65 -180.15,125.44 -308.75,125.44 -126.11,0 -227.76,-41.79 -304.97,-125.44 -77.18,-83.56 -115.77,-189.72 -115.77,-318.4zm-2192.37 -810.57c-146.61,110.65 -220,257.32 -220,440 0,151.89 51.48,276.66 154.43,374.4 102.87,97.82 253.39,158.25 451.56,181.42l254.79 27.03c102.87,12.91 174.92,31.52 216.14,55.97 41.08,24.49 61.73,61.15 61.73,109.98 0,56.64 -23.16,99.75 -69.47,129.33 -46.31,29.6 -114.52,44.35 -204.57,44.35 -90.1,0 -162.09,-17.36 -216.13,-52.1 -54.07,-34.74 -83.65,-81.64 -88.8,-140.86l-567.39 0c12.9,192.95 93.94,344.18 243.21,453.5 149.18,109.4 360.15,164.05 632.94,164.05 270.21,0 479.27,-55.32 627.23,-165.97 147.99,-110.62 221.96,-264.99 221.96,-463.15 0,-159.56 -50.83,-286.26 -152.44,-380.2 -101.7,-93.91 -248.96,-151.14 -441.95,-171.77l-254.8 -30.9c-105.53,-10.25 -179.43,-27.6 -221.89,-52.09 -42.48,-24.41 -63.73,-57.23 -63.73,-98.43 0,-48.85 23.17,-87.46 69.47,-115.81 46.31,-28.29 113.2,-42.45 200.74,-42.45 177.6,0 272.71,66.93 285.62,200.7l559.63 0c-12.86,-205.82 -89.45,-362.82 -229.62,-470.91 -140.28,-108.07 -344.18,-162.09 -611.81,-162.09 -277.88,0 -490.19,55.36 -636.86,165.97zm-1613.34 -115.78l0 1852.68 586.74 0 0 -733.36c0,-388.5 165.9,-582.81 497.84,-582.81 64.31,0 128.69,6.44 193,19.28l0 -567.37c-41.15,-15.46 -92.63,-23.15 -154.35,-23.15 -121.01,0 -229.65,30.26 -326.19,90.71 -96.45,60.47 -169.25,147.3 -218.06,260.5l-15.42 0 -23.16 -316.47 -540.41 0zm-490.39 -243.18c105.54,0 193,-34.07 262.46,-102.29 69.47,-68.14 104.28,-153.71 104.28,-256.67 0,-105.5 -34.81,-192.33 -104.28,-260.55 -69.46,-68.14 -156.92,-102.29 -262.46,-102.29 -108.03,0 -196.24,34.14 -264.37,102.29 -68.22,68.21 -102.29,155.05 -102.29,260.55 0,105.53 34.07,191.73 102.29,258.57 68.13,66.97 156.34,100.38 264.37,100.38zm293.37 2095.86l0 -1852.68 -586.65 0 0 1852.68 586.65 0z"/>
     </clipPath>
     <clipPath id="id3">
      <path d="M6481.41 2518.27c-93.43,177.12 71.8,281.73 81.69,298.36 7.71,12.96 -7.91,18.59 -13.86,17.55 3.64,4.4 112.09,48.83 216.02,-5.81 28.06,-14.74 25.92,-29.55 29.78,-24.67 18.98,23.95 7.77,51.58 11.67,59.59 30.75,-12.42 72.78,-73.72 89.73,-118.96 31.84,-84.92 9.84,-128.79 13.51,-171.48 0.67,-7.74 22.58,-23.83 44.85,-6.17 -60.95,-107.56 -168.44,-139.72 -172.18,-149.48 -5.32,-13.75 20.82,-22.93 20.96,-24.77 -70.04,-13.66 -192.57,34 -252.03,87.58 -25.14,22.64 -22.51,-14.88 -18.5,-26.84 2.97,-8.81 -23.36,22.17 -40.73,47.56 -4.42,6.45 -8.27,12.55 -10.9,17.54z"/>
     </clipPath>
      <clipPath id="id4">
      </clipPath>
      <clipPath id="id5">
       <path d="M6481.41 2518.27c-93.43,177.12 71.8,281.73 81.69,298.36 7.71,12.96 -7.91,18.59 -13.86,17.55 3.64,4.4 112.09,48.83 216.02,-5.81 28.06,-14.74 25.92,-29.55 29.78,-24.67 18.98,23.95 7.77,51.58 11.67,59.59 30.75,-12.42 72.78,-73.72 89.73,-118.96 31.84,-84.92 9.84,-128.79 13.51,-171.48 0.67,-7.74 22.58,-23.83 44.85,-6.17 -60.95,-107.56 -168.44,-139.72 -172.18,-149.48 -5.32,-13.75 20.82,-22.93 20.96,-24.77 -70.04,-13.66 -192.57,34 -252.03,87.58 -25.14,22.64 -22.51,-14.88 -18.5,-26.84 2.97,-8.81 -23.36,22.17 -40.73,47.56 -4.42,6.45 -8.27,12.55 -10.9,17.54z"/>
      </clipPath>
     <clipPath id="id6">
      <path d="M6492.3 2500.73c17.39,-25.39 43.7,-56.37 40.73,-47.54 -4.02,11.94 -6.64,49.48 18.49,26.84 16.21,-14.61 37.21,-28.84 60.62,-41.52 8.77,-4.74 17.87,-9.28 27.19,-13.52 56.3,-25.68 120.31,-41.11 164.23,-32.56 -0.15,1.84 -26.28,11.02 -20.96,24.78 3.76,9.75 111.25,41.92 172.18,149.47 -22.25,-17.66 -44.19,-1.57 -44.85,6.18 -3.66,42.69 18.34,86.56 -13.5,171.47 -16.96,45.25 -58.98,106.53 -89.73,118.97 -3.9,-8.02 7.31,-35.65 -11.67,-59.61 -3.86,-4.88 -1.72,9.93 -29.78,24.68 -103.93,54.64 -212.38,10.21 -216.02,5.8 5.96,1.05 21.59,-4.58 13.87,-17.55 -9.64,-16.22 -171.76,-119.28 -84.57,-292.77 0.93,-1.85 1.89,-3.71 2.88,-5.58 2.63,-4.99 6.47,-11.08 10.9,-17.54zm-632.86 -1075.68c253.11,54.05 290.35,258.33 716.11,954.01 -35.61,22.85 -84.43,66.05 -112.54,107.33 -77.52,-38.84 -163.5,-88.45 -231.44,-131.67 -108.4,-94.85 -140.44,-172.54 -243.24,-397.6 0,0 47.65,117.29 93.01,235.23 -41.02,-80.39 -101.4,-170.6 -177.41,-217.18 0,0 115,87.79 228.95,358.9 2.08,4.96 3.83,8.78 5.24,11.55 10.03,28.85 17.62,52.58 21.3,67.75 19.05,104.28 39.52,246.05 25.75,316.57 -82.19,-62.69 -148,-91.54 -201.95,-107.42 -18.07,-5.31 97.45,0.34 82.79,-7.3 -236.63,-123.12 -483.56,-146.15 -483.56,-146.15l98.2 -39.33c-140.74,-65.31 -453.98,-109.63 -595.64,-112.52l108.13 -30.8c-197.8,-42.96 -441.29,-52.68 -569.32,-15.13 -12.81,3.76 10.91,-31.37 10.91,-31.37l-57.45 6.13c130.4,-153.05 812.47,-921.27 1282.18,-820.99zm719.95 960.27c6.09,9.96 12.27,20 18.53,30.16 -8.55,4.17 -16.84,8.5 -24.78,12.94 -20.31,11.35 -2.95,-23.97 6.25,-43.1zm47.26 17.15c-388.43,-690.24 -492.66,-957.82 -746.37,-1011.02 -513.04,-107.59 -1211.87,684.62 -1361.96,863.41 -83.75,19.49 -125.17,55.48 -143.9,145.65l-27.84 158.21c-11,48.56 44.49,98.44 130.07,93.09 0,0 205.63,-8.31 800.1,134.54 561.57,134.96 740.87,306.84 740.87,306.84 87.28,57.42 150.2,17.86 198.72,-68.19l46.02 -138.95c2.69,-28.99 6.88,-51.52 -35.03,-108.15 37.93,-93.32 -36.72,-413.9 -36.72,-413.9 48.52,39.07 154.72,99.4 258.24,146.65 -82.3,164.87 60.06,276.48 84.26,301.7 13.58,14.16 -48.94,22.6 -48.05,24.66 8.5,19.63 136.38,57.42 281.24,22.87 12.47,-2.98 0.02,45.72 0.02,45.72 57.66,0.34 126.61,-81.1 147.66,-136.26 43.46,-113.84 6.92,-166.55 18.8,-179.56 19.99,-21.88 45.35,4.22 45.35,4.22 -31.61,-115.66 -151.07,-177.8 -160.23,-182.96 -6.57,-3.71 66.82,-30.07 60.09,-33.13 -64.87,-29.51 -166.71,-10.95 -251.35,24.56zm-700.22 211.79c0,0 37.09,14.57 56.26,22.86 41.17,17.82 132.77,63.2 192.91,121.06 13.71,13.2 25.78,27.03 35.25,41.34 16.87,25.49 25.46,52.47 20.29,79.94l-43.9 132.6c-48.52,84.36 -90.07,77.75 -104,75.43 -0.05,-0.01 -0.09,-0.02 -0.14,-0.02 -14.09,-2.35 -29.54,-8.87 -45.96,-19.39 -13.32,-12.04 -51.26,-53.8 -196.2,-121.92 -10.21,-4.79 36.3,0.29 36.3,0.29 -87.06,-27.4 -268.52,-99.18 -388.74,-135.66 -28.65,-8.69 76.93,-2.58 45.58,-11.16 -36.27,-9.9 -209.92,-34.47 -249.94,-44.09 -160.27,-38.52 -417.37,-69.52 -506.83,-136.97 -11.71,-8.85 42.07,39.66 28.04,37.32 -124.22,-20.75 -208.41,-31.23 -260.79,-33.3 -50.1,-1.97 -69.36,-27.79 -67.42,-22.54 8.68,23.37 -0.26,19.98 -2.49,20.13 -43.42,2.78 -104.26,-16.4 -96.85,-55.94l27.76 -157.73c10.4,-49.89 34.26,-84.87 79.75,-107.34 18.58,-9.2 40.77,-16.29 67.13,-21.47 11.95,-2.34 24.75,-4.3 38.46,-5.86l-26.17 34.75c131.21,-31.67 209.66,-69.84 507.07,-20.33 -5.51,5.43 -77.09,47.73 -77.09,47.73 0,0 258.31,9.34 609.45,103.36 -2.63,4.75 -64.11,35.37 -64.11,35.37 166.96,36.93 275.52,49.19 434.59,128.06 -30.88,-1.14 -47.29,11.9 -48.2,13.51z"/>
     </clipPath>
      <clipPath id="id7">
      </clipPath>
      <clipPath id="id8">
       <path d="M6492.3 2500.73c17.39,-25.39 43.7,-56.37 40.73,-47.54 -4.02,11.94 -6.64,49.48 18.49,26.84 16.21,-14.61 37.21,-28.84 60.62,-41.52 8.77,-4.74 17.87,-9.28 27.19,-13.52 56.3,-25.68 120.31,-41.11 164.23,-32.56 -0.15,1.84 -26.28,11.02 -20.96,24.78 3.76,9.75 111.25,41.92 172.18,149.47 -22.25,-17.66 -44.19,-1.57 -44.85,6.18 -3.66,42.69 18.34,86.56 -13.5,171.47 -16.96,45.25 -58.98,106.53 -89.73,118.97 -3.9,-8.02 7.31,-35.65 -11.67,-59.61 -3.86,-4.88 -1.72,9.93 -29.78,24.68 -103.93,54.64 -212.38,10.21 -216.02,5.8 5.96,1.05 21.59,-4.58 13.87,-17.55 -9.64,-16.22 -171.76,-119.28 -84.57,-292.77 0.93,-1.85 1.89,-3.71 2.88,-5.58 2.63,-4.99 6.47,-11.08 10.9,-17.54zm-632.86 -1075.68c253.11,54.05 290.35,258.33 716.11,954.01 -35.61,22.85 -84.43,66.05 -112.54,107.33 -77.52,-38.84 -163.5,-88.45 -231.44,-131.67 -108.4,-94.85 -140.44,-172.54 -243.24,-397.6 0,0 47.65,117.29 93.01,235.23 -41.02,-80.39 -101.4,-170.6 -177.41,-217.18 0,0 115,87.79 228.95,358.9 2.08,4.96 3.83,8.78 5.24,11.55 10.03,28.85 17.62,52.58 21.3,67.75 19.05,104.28 39.52,246.05 25.75,316.57 -82.19,-62.69 -148,-91.54 -201.95,-107.42 -18.07,-5.31 97.45,0.34 82.79,-7.3 -236.63,-123.12 -483.56,-146.15 -483.56,-146.15l98.2 -39.33c-140.74,-65.31 -453.98,-109.63 -595.64,-112.52l108.13 -30.8c-197.8,-42.96 -441.29,-52.68 -569.32,-15.13 -12.81,3.76 10.91,-31.37 10.91,-31.37l-57.45 6.13c130.4,-153.05 812.47,-921.27 1282.18,-820.99zm719.95 960.27c6.09,9.96 12.27,20 18.53,30.16 -8.55,4.17 -16.84,8.5 -24.78,12.94 -20.31,11.35 -2.95,-23.97 6.25,-43.1zm47.26 17.15c-388.43,-690.24 -492.66,-957.82 -746.37,-1011.02 -513.04,-107.59 -1211.87,684.62 -1361.96,863.41 -83.75,19.49 -125.17,55.48 -143.9,145.65l-27.84 158.21c-11,48.56 44.49,98.44 130.07,93.09 0,0 205.63,-8.31 800.1,134.54 561.57,134.96 740.87,306.84 740.87,306.84 87.28,57.42 150.2,17.86 198.72,-68.19l46.02 -138.95c2.69,-28.99 6.88,-51.52 -35.03,-108.15 37.93,-93.32 -36.72,-413.9 -36.72,-413.9 48.52,39.07 154.72,99.4 258.24,146.65 -82.3,164.87 60.06,276.48 84.26,301.7 13.58,14.16 -48.94,22.6 -48.05,24.66 8.5,19.63 136.38,57.42 281.24,22.87 12.47,-2.98 0.02,45.72 0.02,45.72 57.66,0.34 126.61,-81.1 147.66,-136.26 43.46,-113.84 6.92,-166.55 18.8,-179.56 19.99,-21.88 45.35,4.22 45.35,4.22 -31.61,-115.66 -151.07,-177.8 -160.23,-182.96 -6.57,-3.71 66.82,-30.07 60.09,-33.13 -64.87,-29.51 -166.71,-10.95 -251.35,24.56zm-700.22 211.79c0,0 37.09,14.57 56.26,22.86 41.17,17.82 132.77,63.2 192.91,121.06 13.71,13.2 25.78,27.03 35.25,41.34 16.87,25.49 25.46,52.47 20.29,79.94l-43.9 132.6c-48.52,84.36 -90.07,77.75 -104,75.43 -0.05,-0.01 -0.09,-0.02 -0.14,-0.02 -14.09,-2.35 -29.54,-8.87 -45.96,-19.39 -13.32,-12.04 -51.26,-53.8 -196.2,-121.92 -10.21,-4.79 36.3,0.29 36.3,0.29 -87.06,-27.4 -268.52,-99.18 -388.74,-135.66 -28.65,-8.69 76.93,-2.58 45.58,-11.16 -36.27,-9.9 -209.92,-34.47 -249.94,-44.09 -160.27,-38.52 -417.37,-69.52 -506.83,-136.97 -11.71,-8.85 42.07,39.66 28.04,37.32 -124.22,-20.75 -208.41,-31.23 -260.79,-33.3 -50.1,-1.97 -69.36,-27.79 -67.42,-22.54 8.68,23.37 -0.26,19.98 -2.49,20.13 -43.42,2.78 -104.26,-16.4 -96.85,-55.94l27.76 -157.73c10.4,-49.89 34.26,-84.87 79.75,-107.34 18.58,-9.2 40.77,-16.29 67.13,-21.47 11.95,-2.34 24.75,-4.3 38.46,-5.86l-26.17 34.75c131.21,-31.67 209.66,-69.84 507.07,-20.33 -5.51,5.43 -77.09,47.73 -77.09,47.73 0,0 258.31,9.34 609.45,103.36 -2.63,4.75 -64.11,35.37 -64.11,35.37 166.96,36.93 275.52,49.19 434.59,128.06 -30.88,-1.14 -47.29,11.9 -48.2,13.51z"/>
      </clipPath>
     <clipPath id="id9">
      <path d="M6159.41 2413.36c-3.67,-15.16 -11.26,-38.9 -21.29,-67.75 -1.41,-2.77 -3.16,-6.6 -5.24,-11.55 -113.95,-271.11 -228.95,-358.9 -228.95,-358.9 76.01,46.57 136.39,136.79 177.41,217.18 -45.36,-117.94 -93.01,-235.23 -93.01,-235.23 102.8,225.06 134.83,302.75 243.24,397.6 67.95,43.23 153.92,92.84 231.44,131.67 28.1,-41.28 76.93,-84.48 112.54,-107.33 -425.76,-695.68 -462.99,-899.96 -716.11,-954.01 -469.7,-100.29 -1151.77,667.94 -1282.18,820.99l57.45 -6.13c0,0 -23.72,35.13 -10.91,31.37 128.03,-37.55 371.52,-27.82 569.32,15.13l-108.13 30.8c141.66,2.89 454.9,47.22 595.64,112.52l-98.2 39.33c0,0 246.92,23.03 483.56,146.15 14.67,7.64 -100.85,1.98 -82.79,7.3 53.95,15.88 119.76,44.73 201.95,107.42 13.77,-70.52 -6.7,-212.29 -25.76,-316.57zm419.98 -28.03c-9.2,19.14 -26.55,54.45 -6.25,43.1 7.95,-4.44 16.23,-8.77 24.78,-12.94 -6.27,-10.16 -12.44,-20.2 -18.53,-30.16z"/>
     </clipPath>
      <clipPath id="id10">
      </clipPath>
      <clipPath id="id11">
       <path d="M6159.41 2413.36c-3.67,-15.16 -11.26,-38.9 -21.29,-67.75 -1.41,-2.77 -3.16,-6.6 -5.24,-11.55 -113.95,-271.11 -228.95,-358.9 -228.95,-358.9 76.01,46.57 136.39,136.79 177.41,217.18 -45.36,-117.94 -93.01,-235.23 -93.01,-235.23 102.8,225.06 134.83,302.75 243.24,397.6 67.95,43.23 153.92,92.84 231.44,131.67 28.1,-41.28 76.93,-84.48 112.54,-107.33 -425.76,-695.68 -462.99,-899.96 -716.11,-954.01 -469.7,-100.29 -1151.77,667.94 -1282.18,820.99l57.45 -6.13c0,0 -23.72,35.13 -10.91,31.37 128.03,-37.55 371.52,-27.82 569.32,15.13l-108.13 30.8c141.66,2.89 454.9,47.22 595.64,112.52l-98.2 39.33c0,0 246.92,23.03 483.56,146.15 14.67,7.64 -100.85,1.98 -82.79,7.3 53.95,15.88 119.76,44.73 201.95,107.42 13.77,-70.52 -6.7,-212.29 -25.76,-316.57zm419.98 -28.03c-9.2,19.14 -26.55,54.45 -6.25,43.1 7.95,-4.44 16.23,-8.77 24.78,-12.94 -6.27,-10.16 -12.44,-20.2 -18.53,-30.16z"/>
      </clipPath>
     <clipPath id="id12">
      <path d="M5974.63 2600.74c-159.06,-78.86 -267.62,-91.11 -434.59,-128.04 0,0 61.5,-30.62 64.12,-35.38 -351.13,-94.01 -609.45,-103.36 -609.45,-103.36 0,0 71.6,-42.29 77.1,-47.73 -297.42,-49.52 -375.86,-11.34 -507.07,20.32l26.17 -34.74c-88.41,10.1 -166.69,37.61 -185.34,134.69l-27.76 157.73c-7.41,39.53 53.43,58.71 96.86,55.93 2.21,-0.15 11.15,3.24 2.48,-20.13 -1.95,-5.23 17.32,20.58 67.41,22.54 52.38,2.08 136.58,12.55 260.8,33.31 14.02,2.34 -39.74,-46.17 -28.04,-37.33 89.47,67.46 346.57,98.45 506.83,136.97 40.02,9.63 213.68,34.19 249.95,44.1 31.33,8.57 -74.24,2.46 -45.58,11.16 120.2,36.48 301.68,108.25 388.73,135.65 0,0 -46.52,-5.07 -36.3,-0.27 144.93,68.11 182.89,109.87 196.21,121.91l46.09 19.43c13.92,2.32 55.47,8.92 104,-75.44l43.89 -132.6c5.17,-27.46 -3.41,-54.44 -20.27,-79.94 -60.41,-91.21 -209.22,-155.71 -284.43,-185.26 0.91,-1.6 17.32,-14.64 48.2,-13.51z"/>
     </clipPath>
      <clipPath id="id13">
      </clipPath>
      <clipPath id="id14">
       <path d="M5974.63 2600.74c-159.06,-78.86 -267.62,-91.11 -434.59,-128.04 0,0 61.5,-30.62 64.12,-35.38 -351.13,-94.01 -609.45,-103.36 -609.45,-103.36 0,0 71.6,-42.29 77.1,-47.73 -297.42,-49.52 -375.86,-11.34 -507.07,20.32l26.17 -34.74c-88.41,10.1 -166.69,37.61 -185.34,134.69l-27.76 157.73c-7.41,39.53 53.43,58.71 96.86,55.93 2.21,-0.15 11.15,3.24 2.48,-20.13 -1.95,-5.23 17.32,20.58 67.41,22.54 52.38,2.08 136.58,12.55 260.8,33.31 14.02,2.34 -39.74,-46.17 -28.04,-37.33 89.47,67.46 346.57,98.45 506.83,136.97 40.02,9.63 213.68,34.19 249.95,44.1 31.33,8.57 -74.24,2.46 -45.58,11.16 120.2,36.48 301.68,108.25 388.73,135.65 0,0 -46.52,-5.07 -36.3,-0.27 144.93,68.11 182.89,109.87 196.21,121.91l46.09 19.43c13.92,2.32 55.47,8.92 104,-75.44l43.89 -132.6c5.17,-27.46 -3.41,-54.44 -20.27,-79.94 -60.41,-91.21 -209.22,-155.71 -284.43,-185.26 0.91,-1.6 17.32,-14.64 48.2,-13.51z"/>
      </clipPath>
    <clipPath id="id15">
     <path d="M5183.04 4761.22l-3067.87 0 0 385.32 3067.87 0 0 -385.32z"/>
    </clipPath>
     <clipPath id="id16">
     </clipPath>
     <clipPath id="id17">
      <path d="M5183.04 4761.22l-3067.87 0 0 385.32 3067.87 0 0 -385.32z"/>
     </clipPath>
    <clipPath id="id18">
     <path d="M5183.04 4761.22l0 385.32 5071.06 0 0 -385.32 -5071.06 0z"/>
    </clipPath>
     <clipPath id="id19">
     </clipPath>
     <clipPath id="id20">
      <path d="M5183.04 4761.22l0 385.32 5071.06 0 0 -385.32 -5071.06 0z"/>
     </clipPath>
 </defs>
 <g id="Layer_x0020_1">
  <metadata id="CorelCorpID_0Corel-Layer"/>
  <g id="_1961376234048">
   <path class="fil0" d="M8667.15 2666.13c-132.53,83.68 -236.05,200.11 -310.7,349.3 -74.62,149.26 -111.96,316.52 -111.96,501.8 0,187.83 37.34,355.75 111.96,503.68 74.65,148 178.82,263.79 312.6,347.39 133.77,83.58 284.39,125.44 451.61,125.44 120.95,0 229,-23.83 324.27,-71.39 95.15,-47.61 168.43,-116.42 219.97,-206.54l15.45 0 23.14 227.73 550.63 0 0 -2701.83 -585.36 0 0 1076.88 -11.59 0c-54.04,-90.05 -128,-158.84 -221.9,-206.48 -93.94,-47.62 -201.4,-71.43 -322.34,-71.43 -164.66,0 -313.28,41.86 -445.77,125.44zm175.65 851.1c0,-128.65 37.92,-234.15 113.89,-316.52 75.78,-82.33 178.06,-123.52 306.85,-123.52 128.61,0 231.54,41.19 308.75,123.52 77.21,82.38 115.81,187.87 115.81,316.52 0,128.69 -38.6,234.84 -115.81,318.4 -77.21,83.65 -180.15,125.44 -308.75,125.44 -126.1,0 -227.75,-41.79 -304.96,-125.44 -77.22,-83.56 -115.78,-189.72 -115.78,-318.4zm-2313.9 -851.1c-132.53,83.68 -236.75,200.11 -312.63,349.3 -75.94,149.26 -113.85,316.52 -113.85,501.8 0,185.25 37.91,352.55 113.85,501.77 75.89,149.25 180.1,265.7 312.63,349.3 132.5,83.58 282.35,125.44 449.69,125.44 123.51,0 232.82,-23.83 328.08,-71.39 95.15,-47.61 168.44,-116.42 220.03,-206.54l15.4 0 23.16 227.73 544.24 0 0 -1852.68 -544.24 0 -23.16 227.73 -15.4 0c-51.58,-90.05 -124.88,-158.84 -220.03,-206.48 -95.25,-47.62 -204.56,-71.43 -328.08,-71.43 -167.34,0 -317.19,41.86 -449.69,125.44zm175.65 851.1c0,-128.65 37.92,-234.15 113.89,-316.52 75.81,-82.33 178.06,-123.52 306.85,-123.52 128.6,0 231.53,41.19 308.75,123.52 77.22,82.38 115.81,187.87 115.81,316.52 0,128.69 -38.59,234.84 -115.81,318.4 -77.22,83.65 -180.15,125.44 -308.75,125.44 -126.11,0 -227.76,-41.79 -304.97,-125.44 -77.18,-83.56 -115.77,-189.72 -115.77,-318.4zm-2192.37 -810.57c-146.61,110.65 -220,257.32 -220,440 0,151.89 51.48,276.66 154.43,374.4 102.87,97.82 253.39,158.25 451.56,181.42l254.79 27.03c102.87,12.91 174.92,31.52 216.14,55.97 41.08,24.49 61.73,61.15 61.73,109.98 0,56.64 -23.16,99.75 -69.47,129.33 -46.31,29.6 -114.52,44.35 -204.57,44.35 -90.1,0 -162.09,-17.36 -216.13,-52.1 -54.07,-34.74 -83.65,-81.64 -88.8,-140.86l-567.39 0c12.9,192.95 93.94,344.18 243.21,453.5 149.18,109.4 360.15,164.05 632.94,164.05 270.21,0 479.27,-55.32 627.23,-165.97 147.99,-110.62 221.96,-264.99 221.96,-463.15 0,-159.56 -50.83,-286.26 -152.44,-380.2 -101.7,-93.91 -248.96,-151.14 -441.95,-171.77l-254.8 -30.9c-105.53,-10.25 -179.43,-27.6 -221.89,-52.09 -42.48,-24.41 -63.73,-57.23 -63.73,-98.43 0,-48.85 23.17,-87.46 69.47,-115.81 46.31,-28.29 113.2,-42.45 200.74,-42.45 177.6,0 272.71,66.93 285.62,200.7l559.63 0c-12.86,-205.82 -89.45,-362.82 -229.62,-470.91 -140.28,-108.07 -344.18,-162.09 -611.81,-162.09 -277.88,0 -490.19,55.36 -636.86,165.97zm-1613.34 -115.78l0 1852.68 586.74 0 0 -733.36c0,-388.5 165.9,-582.81 497.84,-582.81 64.31,0 128.69,6.44 193,19.28l0 -567.37c-41.15,-15.46 -92.63,-23.15 -154.35,-23.15 -121.01,0 -229.65,30.26 -326.19,90.71 -96.45,60.47 -169.25,147.3 -218.06,260.5l-15.42 0 -23.16 -316.47 -540.41 0zm-490.39 -243.18c105.54,0 193,-34.07 262.46,-102.29 69.47,-68.14 104.28,-153.71 104.28,-256.67 0,-105.5 -34.81,-192.33 -104.28,-260.55 -69.46,-68.14 -156.92,-102.29 -262.46,-102.29 -108.03,0 -196.24,34.14 -264.37,102.29 -68.22,68.21 -102.29,155.05 -102.29,260.55 0,105.53 34.07,191.73 102.29,258.57 68.13,66.97 156.34,100.38 264.37,100.38zm293.37 2095.86l0 -1852.68 -586.65 0 0 1852.68 586.65 0z"/>
   <g style="clip-path:url(#id0)">
    <g>
    </g>
    <g style="clip-path:url(#id1)">
     <image id="Layer_x0020_1_0" x="-9359.46" y="-5043.95" width="31014.83" height="17449.23" xlink:href="logo_Images/logo_ImgID1.html"/>
    </g>
    <g style="clip-path:url(#id2)">
    </g>
   </g>
   <path class="fil1" d="M8667.15 2666.13c-132.53,83.68 -236.05,200.11 -310.7,349.3 -74.62,149.26 -111.96,316.52 -111.96,501.8 0,187.83 37.34,355.75 111.96,503.68 74.65,148 178.82,263.79 312.6,347.39 133.77,83.58 284.39,125.44 451.61,125.44 120.95,0 229,-23.83 324.27,-71.39 95.15,-47.61 168.43,-116.42 219.97,-206.54l15.45 0 23.14 227.73 550.63 0 0 -2701.83 -585.36 0 0 1076.88 -11.59 0c-54.04,-90.05 -128,-158.84 -221.9,-206.48 -93.94,-47.62 -201.4,-71.43 -322.34,-71.43 -164.66,0 -313.28,41.86 -445.77,125.44zm175.65 851.1c0,-128.65 37.92,-234.15 113.89,-316.52 75.78,-82.33 178.06,-123.52 306.85,-123.52 128.61,0 231.54,41.19 308.75,123.52 77.21,82.38 115.81,187.87 115.81,316.52 0,128.69 -38.6,234.84 -115.81,318.4 -77.21,83.65 -180.15,125.44 -308.75,125.44 -126.1,0 -227.75,-41.79 -304.96,-125.44 -77.22,-83.56 -115.78,-189.72 -115.78,-318.4zm-2313.9 -851.1c-132.53,83.68 -236.75,200.11 -312.63,349.3 -75.94,149.26 -113.85,316.52 -113.85,501.8 0,185.25 37.91,352.55 113.85,501.77 75.89,149.25 180.1,265.7 312.63,349.3 132.5,83.58 282.35,125.44 449.69,125.44 123.51,0 232.82,-23.83 328.08,-71.39 95.15,-47.61 168.44,-116.42 220.03,-206.54l15.4 0 23.16 227.73 544.24 0 0 -1852.68 -544.24 0 -23.16 227.73 -15.4 0c-51.58,-90.05 -124.88,-158.84 -220.03,-206.48 -95.25,-47.62 -204.56,-71.43 -328.08,-71.43 -167.34,0 -317.19,41.86 -449.69,125.44zm175.65 851.1c0,-128.65 37.92,-234.15 113.89,-316.52 75.81,-82.33 178.06,-123.52 306.85,-123.52 128.6,0 231.53,41.19 308.75,123.52 77.22,82.38 115.81,187.87 115.81,316.52 0,128.69 -38.59,234.84 -115.81,318.4 -77.22,83.65 -180.15,125.44 -308.75,125.44 -126.11,0 -227.76,-41.79 -304.97,-125.44 -77.18,-83.56 -115.77,-189.72 -115.77,-318.4zm-2192.37 -810.57c-146.61,110.65 -220,257.32 -220,440 0,151.89 51.48,276.66 154.43,374.4 102.87,97.82 253.39,158.25 451.56,181.42l254.79 27.03c102.87,12.91 174.92,31.52 216.14,55.97 41.08,24.49 61.73,61.15 61.73,109.98 0,56.64 -23.16,99.75 -69.47,129.33 -46.31,29.6 -114.52,44.35 -204.57,44.35 -90.1,0 -162.09,-17.36 -216.13,-52.1 -54.07,-34.74 -83.65,-81.64 -88.8,-140.86l-567.39 0c12.9,192.95 93.94,344.18 243.21,453.5 149.18,109.4 360.15,164.05 632.94,164.05 270.21,0 479.27,-55.32 627.23,-165.97 147.99,-110.62 221.96,-264.99 221.96,-463.15 0,-159.56 -50.83,-286.26 -152.44,-380.2 -101.7,-93.91 -248.96,-151.14 -441.95,-171.77l-254.8 -30.9c-105.53,-10.25 -179.43,-27.6 -221.89,-52.09 -42.48,-24.41 -63.73,-57.23 -63.73,-98.43 0,-48.85 23.17,-87.46 69.47,-115.81 46.31,-28.29 113.2,-42.45 200.74,-42.45 177.6,0 272.71,66.93 285.62,200.7l559.63 0c-12.86,-205.82 -89.45,-362.82 -229.62,-470.91 -140.28,-108.07 -344.18,-162.09 -611.81,-162.09 -277.88,0 -490.19,55.36 -636.86,165.97zm-1613.34 -115.78l0 1852.68 586.74 0 0 -733.36c0,-388.5 165.9,-582.81 497.84,-582.81 64.31,0 128.69,6.44 193,19.28l0 -567.37c-41.15,-15.46 -92.63,-23.15 -154.35,-23.15 -121.01,0 -229.65,30.26 -326.19,90.71 -96.45,60.47 -169.25,147.3 -218.06,260.5l-15.42 0 -23.16 -316.47 -540.41 0zm-490.39 -243.18c105.54,0 193,-34.07 262.46,-102.29 69.47,-68.14 104.28,-153.71 104.28,-256.67 0,-105.5 -34.81,-192.33 -104.28,-260.55 -69.46,-68.14 -156.92,-102.29 -262.46,-102.29 -108.03,0 -196.24,34.14 -264.37,102.29 -68.22,68.21 -102.29,155.05 -102.29,260.55 0,105.53 34.07,191.73 102.29,258.57 68.13,66.97 156.34,100.38 264.37,100.38zm293.37 2095.86l0 -1852.68 -586.65 0 0 1852.68 586.65 0z"/>
   <path class="fil2" d="M2122.87 2224.65c-129.62,121.72 -180.86,221.58 -177.95,309.06 4.89,146.22 165.02,264.42 362.1,394.92 437.69,289.83 522.81,460.17 447.56,573.82 -13.08,19.75 -31.01,37.47 -52.76,53.57l0 -52.33c7.47,-7.44 13.96,-15.22 19.34,-23.35 62.22,-93.97 -23.98,-245.3 -436.25,-518.3 -206.59,-136.8 -374.49,-261.7 -379.99,-427.08 -3.3,-98.51 52.39,-209.07 194.09,-341.88 7.26,10.91 15.22,21.44 23.86,31.56zm159.39 2038.11c-322.16,-207.85 -396.24,-337.21 -344.91,-428.39 28.34,-50.31 94.49,-86.48 177.81,-116.75l0 42.55c-68.54,25.91 -121.34,55.68 -142.81,93.81 -41.26,73.3 32.61,185.55 333.4,377.01 270.19,171.93 290.22,163.04 593.09,124.51l0 40.28c-321.87,40.71 -337.07,47.33 -616.58,-133.01zm1203.31 -76.17c24.1,-19.86 40.63,-40.15 50.07,-60.3 13.38,-28.57 12.11,-57.47 -2.25,-84.7 -21.49,-40.71 -71.23,-78.63 -144.93,-108.29 -266.14,-107.12 -435.86,-272.34 -518.92,-430.1 -39.07,-74.19 -59.15,-147.16 -61.23,-212.04 -2.12,-66.69 14.75,-125.21 49.5,-168.54 11.71,-14.61 25.42,-27.45 41.04,-38.26l0 52.28c-3.46,3.53 -6.72,7.23 -9.8,11.07 -28.66,35.73 -42.55,85.12 -40.73,142.19 1.9,58.93 20.48,125.84 56.7,194.63 79.22,150.45 242.05,308.44 498.36,411.58 82.75,33.31 139.6,77.73 165.49,126.8 20.34,38.57 22.08,79.63 3.02,120.31 -15.1,32.25 -43.52,63.96 -86.31,93.39l0 -50.03zm140.6 -931.2c230.39,26.86 291.78,-43.09 307.44,-152.66 6.19,-43.34 5.99,-92.95 5.78,-145.25 -1.14,-287.05 -2.62,-652.42 953.33,-635.87 147.43,2.54 366.97,22.88 570.53,66.34 154.47,32.95 300.41,79.39 400.13,141.64 36.37,22.7 61,47.22 75.32,72.87 21.83,39.12 19.87,79.56 -0.84,119.53 -19.07,36.82 -54.54,73.06 -101.87,107.1 -41.32,29.71 -92.09,58.06 -149.16,84.01 -17.03,-6.75 -34.79,-13.54 -53.37,-20.39 69.67,-28.98 131.2,-61.63 179.14,-96.11 42.35,-30.47 73.62,-61.97 89.67,-92.96 14.43,-27.86 16.06,-55.56 1.44,-81.75 -10.99,-19.69 -31.07,-39.26 -61.5,-58.25 -95.42,-59.58 -236.86,-104.38 -387.28,-136.47 -201.26,-42.96 -417.74,-63.08 -562.85,-65.56 -915.15,-15.84 -913.75,326.63 -912.68,595.7 0.22,54.08 0.42,105.38 -6.11,151.07 -19.57,136.92 -94.18,223.14 -378.24,183.41 9.72,-12.89 20.1,-25.03 31.12,-36.41zm1720.33 -234.45c-94.38,19.05 -190.41,30.09 -279.92,30.26 -95.98,0.19 -184.68,-12.1 -256.31,-40.28 -253.46,-99.77 -412.34,-95.74 -498.82,-38.56 -68.27,45.13 -91.11,125.3 -79.61,213.05 11.96,91.1 60.43,189.99 133.73,268.12 26.96,28.74 57.29,54.62 90.41,76.22 46.33,41.88 101.81,76.58 166.43,104.12 -112.24,-13.47 -211.13,-73.07 -286.01,-152.9 -78.95,-84.16 -131.25,-191.25 -144.24,-290.38 -13.45,-102.53 14.55,-197.02 97.18,-251.65 96.54,-63.84 268.05,-70.64 535.52,34.64 66.89,26.31 150.6,37.78 241.72,37.61 69.71,-0.12 143.76,-7.15 218,-19.56 23.43,7.5 44.07,17.27 61.92,29.3zm330.72 352.72c156.29,10.2 265.94,56.15 335.48,119.88 55.29,50.68 85.57,112.52 94.1,176.88 8.47,63.99 -4.64,130.34 -36.14,190.58 -64.21,122.76 -204.99,220.6 -394.22,220.6 -633.94,0 -958.14,146.35 -1089.05,319.25 -69.87,92.3 -83.77,192.23 -60.06,280.36 23.83,88.55 85.38,165.56 166.03,211.43 109.11,62.03 253.55,66.79 387.26,-34.19 8.84,-6.67 21.41,-4.92 28.08,3.92 6.67,8.84 4.92,21.42 -3.92,28.09 -148.34,112.03 -309.26,106.34 -431.18,37.02 -89.85,-51.1 -158.42,-136.99 -185.02,-235.92 -26.72,-99.35 -11.34,-211.64 66.81,-314.86 137.46,-181.56 472.22,-335.25 1121.05,-335.25 172.84,0 300.85,-88.25 358.74,-198.95 27.73,-53.02 39.31,-111.16 31.94,-166.9 -7.33,-55.35 -33.53,-108.67 -81.41,-152.55 -46.43,-42.55 -112.96,-76.39 -202.06,-95.25 -32.26,-20.62 -67.75,-38.67 -106.43,-54.12z"/>
   <circle class="fil3" cx="1959.28" cy="4000.96" r="86.87"/>
   <circle class="fil3" cx="2679.07" cy="4389.8" r="86.87"/>
   <circle class="fil3" cx="3853.88" cy="3264.63" r="86.87"/>
   <circle class="fil4" cx="5806.4" cy="4034.04" r="86.87"/>
   <circle class="fil3" cx="4755.67" cy="4249.15" r="86.87"/>
   <path class="fil2" d="M5866.76 2382.12c-11.04,0 -20,-8.97 -20,-20 0,-11.04 8.96,-20 20,-20l62.08 -0.11c428.59,-1.1 1193.67,-3.06 1372.76,392.61 27.21,60.12 44.63,121.51 51.94,181.28 10.97,89.48 -0.57,175.54 -35.41,248.67 -35.17,73.77 -93.88,134.28 -176.84,171.83 -39.87,18.05 -85.31,30.76 -136.32,37.01 -110.23,13.53 -209.28,40.02 -296.73,76.4 1.8,-15.79 4.25,-31.2 7.36,-46.2 85.01,-33.04 179.98,-57.21 284.51,-70.04 46.9,-5.75 88.46,-17.33 124.69,-33.73 73.75,-33.37 125.9,-87.08 157.08,-152.52 31.5,-66.13 41.87,-144.56 31.81,-226.56 -6.82,-55.81 -23.15,-113.27 -48.66,-169.64 -168.42,-372.08 -916.88,-370.16 -1336.19,-369.09l-62.08 0.12zm369.7 1674.66c-1.66,73.68 12.13,146.47 41.93,214.41 50.76,115.68 148.16,217.6 295.06,286.35 124.96,58.48 249.04,96.91 353.74,96.91 52.86,0 100.54,-9.84 140.4,-31.93 39.46,-21.88 71.88,-56.1 94.8,-105.05 24.82,-53.02 38.68,-123.49 38.68,-214.39 0,-451.09 392.55,-623.79 688.99,-754.18 122.78,-54.01 228.55,-100.56 278.02,-154.92 46.3,-50.93 39.56,-113.33 -58.61,-206.11l0 -51.77c7.37,5.02 13.16,9.35 17.03,12.87 129.68,117.98 136.03,200.75 71.24,272 -55.24,60.7 -164.58,108.82 -291.52,164.66 -286.12,125.84 -664.98,292.51 -664.98,717.45 0,96.81 -15.26,172.92 -42.61,231.32 -26.72,57.11 -64.9,97.24 -111.59,123.12 -46.32,25.67 -100.53,37.09 -159.85,37.09 -110.8,0 -240.67,-39.99 -370.68,-100.83 -156.36,-73.18 -260.35,-182.35 -314.85,-306.59 -41.16,-93.83 -54.03,-196.11 -39.91,-297.88 4.68,9.97 9.52,19.89 14.51,29.71 6.52,12.83 13.25,25.42 20.2,37.77zm1308.44 -1265.98c-6.31,-7.97 -12.31,-16.05 -17.91,-24.2 -21.14,-30.74 -39.05,-64.81 -48.89,-99.86 -10.18,-36.37 -11.78,-73.94 0.33,-110.32 12.02,-36.06 37.31,-70.32 80.69,-100.16 113.1,-77.79 257.7,-109.98 405.39,-108.57 166.51,1.54 337.47,45.82 471.37,115.3 95.59,49.62 179.92,86.2 266.6,112.19 31.2,9.37 62.77,17.37 95.31,24.15 -20.48,8.19 -40.62,17.24 -60.41,27.15 -15.57,-3.99 -30.99,-8.26 -46.33,-12.87 -89.18,-26.75 -175.68,-64.25 -273.51,-115.02 -128.79,-66.84 -293.21,-109.41 -453.35,-110.9 -140.03,-1.32 -276.55,28.75 -382.31,101.5 -35.64,24.52 -56.11,51.72 -65.45,79.79 -9.34,28.02 -7.91,57.71 0.27,86.91 7.18,25.59 19.49,50.87 34.35,74.47l-6.14 60.43zm1760.98 -227.07c44.64,-23.44 85.1,-52.33 123.52,-84.52 76.92,-64.48 157.87,-121.77 239.35,-171.62l0 47.04c-72.66,45.76 -144.74,97.6 -213.62,155.33 -30.43,25.49 -62.15,49.06 -96.15,69.78 -17.31,-6.02 -35.01,-11.38 -53.1,-16.01zm948.23 -489.43c20.55,-3.19 40.2,-5.49 58.76,-6.84 86.66,-6.33 152.4,7.61 185.39,42.75 35.38,37.66 33.91,95.22 -17.4,172.9 -101.84,154.17 -413.03,404.13 -1052.71,758.15 -133.33,73.79 -179.89,129.98 -215.98,173.53 -56.94,68.71 -90.07,108.62 -343.96,135.55 4.85,-14.46 10.39,-28.48 16.64,-42.07 218.34,-24.92 247.55,-60.1 296.4,-119.05 38.09,-45.98 87.25,-105.27 227.58,-182.95 633.19,-350.43 939.7,-595.54 1038.61,-745.26 39.25,-59.39 43.51,-100.09 21.64,-123.35 -24.24,-25.83 -78.79,-35.64 -153.38,-30.19 -19.38,1.42 -39.94,3.87 -61.58,7.38l0 -40.54zm-2007.83 1513.43c-22.36,39.71 -36.65,82.93 -43.79,128.13 -14.02,88.67 -0.69,185.24 33.34,278.25 54.02,147.71 159.94,285.83 291.31,369.41 301.61,191.88 536.3,-5.68 800.08,-227.73 170.78,-143.78 353.46,-297.56 575.46,-367.85 183.86,-58.23 322.4,-40.01 409.08,18.15 41.51,27.86 71.22,64.81 88.49,106.99l0.41 1.12c16.87,41.82 21.57,88.55 13.44,136.42 -14.06,82.74 -66.41,169.41 -159.99,240.2l0 -51.41c69.76,-59.97 109.25,-129.31 120.46,-195.38 6.89,-40.65 3.07,-79.99 -10.94,-114.82l-0.39 -0.9c-14.32,-34.98 -39.09,-65.72 -73.75,-88.97 -77.36,-51.91 -203.78,-67.27 -374.73,-13.14 -214.72,67.99 -394.1,219 -561.8,360.17 -275.66,232.06 -520.93,438.52 -847.32,230.87 -138.78,-88.3 -250.59,-233.92 -307.48,-389.49 -36.23,-99.05 -50.34,-202.5 -35.21,-298.17 10.97,-69.4 37.26,-134.62 81.52,-191.13 0.02,23.41 0.61,46.48 1.8,69.26z"/>
   <g>
    <path class="fil5" d="M6481.41 2518.27c-93.43,177.12 71.8,281.73 81.69,298.36 7.71,12.96 -7.91,18.59 -13.86,17.55 3.64,4.4 112.09,48.83 216.02,-5.81 28.06,-14.74 25.92,-29.55 29.78,-24.67 18.98,23.95 7.77,51.58 11.67,59.59 30.75,-12.42 72.78,-73.72 89.73,-118.96 31.84,-84.92 9.84,-128.79 13.51,-171.48 0.67,-7.74 22.58,-23.83 44.85,-6.17 -60.95,-107.56 -168.44,-139.72 -172.18,-149.48 -5.32,-13.75 20.82,-22.93 20.96,-24.77 -70.04,-13.66 -192.57,34 -252.03,87.58 -25.14,22.64 -22.51,-14.88 -18.5,-26.84 2.97,-8.81 -23.36,22.17 -40.73,47.56 -4.42,6.45 -8.27,12.55 -10.9,17.54z"/>
    <g style="clip-path:url(#id3)">
     <g>
     </g>
     <g style="clip-path:url(#id4)">
      <image id="Layer_x0020_1_1" x="-9359.46" y="-5043.95" width="31014.83" height="17449.23" xlink:href="logo_Images/logo_ImgID2.html"/>
     </g>
     <g style="clip-path:url(#id5)">
     </g>
    </g>
    <path class="fil1" d="M6481.41 2518.27c-93.43,177.12 71.8,281.73 81.69,298.36 7.71,12.96 -7.91,18.59 -13.86,17.55 3.64,4.4 112.09,48.83 216.02,-5.81 28.06,-14.74 25.92,-29.55 29.78,-24.67 18.98,23.95 7.77,51.58 11.67,59.59 30.75,-12.42 72.78,-73.72 89.73,-118.96 31.84,-84.92 9.84,-128.79 13.51,-171.48 0.67,-7.74 22.58,-23.83 44.85,-6.17 -60.95,-107.56 -168.44,-139.72 -172.18,-149.48 -5.32,-13.75 20.82,-22.93 20.96,-24.77 -70.04,-13.66 -192.57,34 -252.03,87.58 -25.14,22.64 -22.51,-14.88 -18.5,-26.84 2.97,-8.81 -23.36,22.17 -40.73,47.56 -4.42,6.45 -8.27,12.55 -10.9,17.54z"/>
    <path class="fil0" d="M6492.3 2500.73c17.39,-25.39 43.7,-56.37 40.73,-47.54 -4.02,11.94 -6.64,49.48 18.49,26.84 16.21,-14.61 37.21,-28.84 60.62,-41.52 8.77,-4.74 17.87,-9.28 27.19,-13.52 56.3,-25.68 120.31,-41.11 164.23,-32.56 -0.15,1.84 -26.28,11.02 -20.96,24.78 3.76,9.75 111.25,41.92 172.18,149.47 -22.25,-17.66 -44.19,-1.57 -44.85,6.18 -3.66,42.69 18.34,86.56 -13.5,171.47 -16.96,45.25 -58.98,106.53 -89.73,118.97 -3.9,-8.02 7.31,-35.65 -11.67,-59.61 -3.86,-4.88 -1.72,9.93 -29.78,24.68 -103.93,54.64 -212.38,10.21 -216.02,5.8 5.96,1.05 21.59,-4.58 13.87,-17.55 -9.64,-16.22 -171.76,-119.28 -84.57,-292.77 0.93,-1.85 1.89,-3.71 2.88,-5.58 2.63,-4.99 6.47,-11.08 10.9,-17.54zm-632.86 -1075.68c253.11,54.05 290.35,258.33 716.11,954.01 -35.61,22.85 -84.43,66.05 -112.54,107.33 -77.52,-38.84 -163.5,-88.45 -231.44,-131.67 -108.4,-94.85 -140.44,-172.54 -243.24,-397.6 0,0 47.65,117.29 93.01,235.23 -41.02,-80.39 -101.4,-170.6 -177.41,-217.18 0,0 115,87.79 228.95,358.9 2.08,4.96 3.83,8.78 5.24,11.55 10.03,28.85 17.62,52.58 21.3,67.75 19.05,104.28 39.52,246.05 25.75,316.57 -82.19,-62.69 -148,-91.54 -201.95,-107.42 -18.07,-5.31 97.45,0.34 82.79,-7.3 -236.63,-123.12 -483.56,-146.15 -483.56,-146.15l98.2 -39.33c-140.74,-65.31 -453.98,-109.63 -595.64,-112.52l108.13 -30.8c-197.8,-42.96 -441.29,-52.68 -569.32,-15.13 -12.81,3.76 10.91,-31.37 10.91,-31.37l-57.45 6.13c130.4,-153.05 812.47,-921.27 1282.18,-820.99zm719.95 960.27c6.09,9.96 12.27,20 18.53,30.16 -8.55,4.17 -16.84,8.5 -24.78,12.94 -20.31,11.35 -2.95,-23.97 6.25,-43.1zm47.26 17.15c-388.43,-690.24 -492.66,-957.82 -746.37,-1011.02 -513.04,-107.59 -1211.87,684.62 -1361.96,863.41 -83.75,19.49 -125.17,55.48 -143.9,145.65l-27.84 158.21c-11,48.56 44.49,98.44 130.07,93.09 0,0 205.63,-8.31 800.1,134.54 561.57,134.96 740.87,306.84 740.87,306.84 87.28,57.42 150.2,17.86 198.72,-68.19l46.02 -138.95c2.69,-28.99 6.88,-51.52 -35.03,-108.15 37.93,-93.32 -36.72,-413.9 -36.72,-413.9 48.52,39.07 154.72,99.4 258.24,146.65 -82.3,164.87 60.06,276.48 84.26,301.7 13.58,14.16 -48.94,22.6 -48.05,24.66 8.5,19.63 136.38,57.42 281.24,22.87 12.47,-2.98 0.02,45.72 0.02,45.72 57.66,0.34 126.61,-81.1 147.66,-136.26 43.46,-113.84 6.92,-166.55 18.8,-179.56 19.99,-21.88 45.35,4.22 45.35,4.22 -31.61,-115.66 -151.07,-177.8 -160.23,-182.96 -6.57,-3.71 66.82,-30.07 60.09,-33.13 -64.87,-29.51 -166.71,-10.95 -251.35,24.56zm-700.22 211.79c0,0 37.09,14.57 56.26,22.86 41.17,17.82 132.77,63.2 192.91,121.06 13.71,13.2 25.78,27.03 35.25,41.34 16.87,25.49 25.46,52.47 20.29,79.94l-43.9 132.6c-48.52,84.36 -90.07,77.75 -104,75.43 -0.05,-0.01 -0.09,-0.02 -0.14,-0.02 -14.09,-2.35 -29.54,-8.87 -45.96,-19.39 -13.32,-12.04 -51.26,-53.8 -196.2,-121.92 -10.21,-4.79 36.3,0.29 36.3,0.29 -87.06,-27.4 -268.52,-99.18 -388.74,-135.66 -28.65,-8.69 76.93,-2.58 45.58,-11.16 -36.27,-9.9 -209.92,-34.47 -249.94,-44.09 -160.27,-38.52 -417.37,-69.52 -506.83,-136.97 -11.71,-8.85 42.07,39.66 28.04,37.32 -124.22,-20.75 -208.41,-31.23 -260.79,-33.3 -50.1,-1.97 -69.36,-27.79 -67.42,-22.54 8.68,23.37 -0.26,19.98 -2.49,20.13 -43.42,2.78 -104.26,-16.4 -96.85,-55.94l27.76 -157.73c10.4,-49.89 34.26,-84.87 79.75,-107.34 18.58,-9.2 40.77,-16.29 67.13,-21.47 11.95,-2.34 24.75,-4.3 38.46,-5.86l-26.17 34.75c131.21,-31.67 209.66,-69.84 507.07,-20.33 -5.51,5.43 -77.09,47.73 -77.09,47.73 0,0 258.31,9.34 609.45,103.36 -2.63,4.75 -64.11,35.37 -64.11,35.37 166.96,36.93 275.52,49.19 434.59,128.06 -30.88,-1.14 -47.29,11.9 -48.2,13.51z"/>
    <g style="clip-path:url(#id6)">
     <g>
     </g>
     <g style="clip-path:url(#id7)">
      <image id="Layer_x0020_1_2" x="-9359.46" y="-5043.95" width="31014.83" height="17449.23" xlink:href="logo_Images/logo_ImgID3.html"/>
     </g>
     <g style="clip-path:url(#id8)">
     </g>
    </g>
    <path class="fil1" d="M6492.3 2500.73c17.39,-25.39 43.7,-56.37 40.73,-47.54 -4.02,11.94 -6.64,49.48 18.49,26.84 16.21,-14.61 37.21,-28.84 60.62,-41.52 8.77,-4.74 17.87,-9.28 27.19,-13.52 56.3,-25.68 120.31,-41.11 164.23,-32.56 -0.15,1.84 -26.28,11.02 -20.96,24.78 3.76,9.75 111.25,41.92 172.18,149.47 -22.25,-17.66 -44.19,-1.57 -44.85,6.18 -3.66,42.69 18.34,86.56 -13.5,171.47 -16.96,45.25 -58.98,106.53 -89.73,118.97 -3.9,-8.02 7.31,-35.65 -11.67,-59.61 -3.86,-4.88 -1.72,9.93 -29.78,24.68 -103.93,54.64 -212.38,10.21 -216.02,5.8 5.96,1.05 21.59,-4.58 13.87,-17.55 -9.64,-16.22 -171.76,-119.28 -84.57,-292.77 0.93,-1.85 1.89,-3.71 2.88,-5.58 2.63,-4.99 6.47,-11.08 10.9,-17.54zm-632.86 -1075.68c253.11,54.05 290.35,258.33 716.11,954.01 -35.61,22.85 -84.43,66.05 -112.54,107.33 -77.52,-38.84 -163.5,-88.45 -231.44,-131.67 -108.4,-94.85 -140.44,-172.54 -243.24,-397.6 0,0 47.65,117.29 93.01,235.23 -41.02,-80.39 -101.4,-170.6 -177.41,-217.18 0,0 115,87.79 228.95,358.9 2.08,4.96 3.83,8.78 5.24,11.55 10.03,28.85 17.62,52.58 21.3,67.75 19.05,104.28 39.52,246.05 25.75,316.57 -82.19,-62.69 -148,-91.54 -201.95,-107.42 -18.07,-5.31 97.45,0.34 82.79,-7.3 -236.63,-123.12 -483.56,-146.15 -483.56,-146.15l98.2 -39.33c-140.74,-65.31 -453.98,-109.63 -595.64,-112.52l108.13 -30.8c-197.8,-42.96 -441.29,-52.68 -569.32,-15.13 -12.81,3.76 10.91,-31.37 10.91,-31.37l-57.45 6.13c130.4,-153.05 812.47,-921.27 1282.18,-820.99zm719.95 960.27c6.09,9.96 12.27,20 18.53,30.16 -8.55,4.17 -16.84,8.5 -24.78,12.94 -20.31,11.35 -2.95,-23.97 6.25,-43.1zm47.26 17.15c-388.43,-690.24 -492.66,-957.82 -746.37,-1011.02 -513.04,-107.59 -1211.87,684.62 -1361.96,863.41 -83.75,19.49 -125.17,55.48 -143.9,145.65l-27.84 158.21c-11,48.56 44.49,98.44 130.07,93.09 0,0 205.63,-8.31 800.1,134.54 561.57,134.96 740.87,306.84 740.87,306.84 87.28,57.42 150.2,17.86 198.72,-68.19l46.02 -138.95c2.69,-28.99 6.88,-51.52 -35.03,-108.15 37.93,-93.32 -36.72,-413.9 -36.72,-413.9 48.52,39.07 154.72,99.4 258.24,146.65 -82.3,164.87 60.06,276.48 84.26,301.7 13.58,14.16 -48.94,22.6 -48.05,24.66 8.5,19.63 136.38,57.42 281.24,22.87 12.47,-2.98 0.02,45.72 0.02,45.72 57.66,0.34 126.61,-81.1 147.66,-136.26 43.46,-113.84 6.92,-166.55 18.8,-179.56 19.99,-21.88 45.35,4.22 45.35,4.22 -31.61,-115.66 -151.07,-177.8 -160.23,-182.96 -6.57,-3.71 66.82,-30.07 60.09,-33.13 -64.87,-29.51 -166.71,-10.95 -251.35,24.56zm-700.22 211.79c0,0 37.09,14.57 56.26,22.86 41.17,17.82 132.77,63.2 192.91,121.06 13.71,13.2 25.78,27.03 35.25,41.34 16.87,25.49 25.46,52.47 20.29,79.94l-43.9 132.6c-48.52,84.36 -90.07,77.75 -104,75.43 -0.05,-0.01 -0.09,-0.02 -0.14,-0.02 -14.09,-2.35 -29.54,-8.87 -45.96,-19.39 -13.32,-12.04 -51.26,-53.8 -196.2,-121.92 -10.21,-4.79 36.3,0.29 36.3,0.29 -87.06,-27.4 -268.52,-99.18 -388.74,-135.66 -28.65,-8.69 76.93,-2.58 45.58,-11.16 -36.27,-9.9 -209.92,-34.47 -249.94,-44.09 -160.27,-38.52 -417.37,-69.52 -506.83,-136.97 -11.71,-8.85 42.07,39.66 28.04,37.32 -124.22,-20.75 -208.41,-31.23 -260.79,-33.3 -50.1,-1.97 -69.36,-27.79 -67.42,-22.54 8.68,23.37 -0.26,19.98 -2.49,20.13 -43.42,2.78 -104.26,-16.4 -96.85,-55.94l27.76 -157.73c10.4,-49.89 34.26,-84.87 79.75,-107.34 18.58,-9.2 40.77,-16.29 67.13,-21.47 11.95,-2.34 24.75,-4.3 38.46,-5.86l-26.17 34.75c131.21,-31.67 209.66,-69.84 507.07,-20.33 -5.51,5.43 -77.09,47.73 -77.09,47.73 0,0 258.31,9.34 609.45,103.36 -2.63,4.75 -64.11,35.37 -64.11,35.37 166.96,36.93 275.52,49.19 434.59,128.06 -30.88,-1.14 -47.29,11.9 -48.2,13.51z"/>
    <path class="fil4" d="M6159.41 2413.36c-3.67,-15.16 -11.26,-38.9 -21.29,-67.75 -1.41,-2.77 -3.16,-6.6 -5.24,-11.55 -113.95,-271.11 -228.95,-358.9 -228.95,-358.9 76.01,46.57 136.39,136.79 177.41,217.18 -45.36,-117.94 -93.01,-235.23 -93.01,-235.23 102.8,225.06 134.83,302.75 243.24,397.6 67.95,43.23 153.92,92.84 231.44,131.67 28.1,-41.28 76.93,-84.48 112.54,-107.33 -425.76,-695.68 -462.99,-899.96 -716.11,-954.01 -469.7,-100.29 -1151.77,667.94 -1282.18,820.99l57.45 -6.13c0,0 -23.72,35.13 -10.91,31.37 128.03,-37.55 371.52,-27.82 569.32,15.13l-108.13 30.8c141.66,2.89 454.9,47.22 595.64,112.52l-98.2 39.33c0,0 246.92,23.03 483.56,146.15 14.67,7.64 -100.85,1.98 -82.79,7.3 53.95,15.88 119.76,44.73 201.95,107.42 13.77,-70.52 -6.7,-212.29 -25.76,-316.57zm419.98 -28.03c-9.2,19.14 -26.55,54.45 -6.25,43.1 7.95,-4.44 16.23,-8.77 24.78,-12.94 -6.27,-10.16 -12.44,-20.2 -18.53,-30.16z"/>
    <g style="clip-path:url(#id9)">
     <g>
     </g>
     <g style="clip-path:url(#id10)">
      <image id="Layer_x0020_1_3" x="-9359.46" y="-5043.95" width="31014.83" height="17449.23" xlink:href="logo_Images/logo_ImgID4.html"/>
     </g>
     <g style="clip-path:url(#id11)">
     </g>
    </g>
    <path class="fil1" d="M6159.41 2413.36c-3.67,-15.16 -11.26,-38.9 -21.29,-67.75 -1.41,-2.77 -3.16,-6.6 -5.24,-11.55 -113.95,-271.11 -228.95,-358.9 -228.95,-358.9 76.01,46.57 136.39,136.79 177.41,217.18 -45.36,-117.94 -93.01,-235.23 -93.01,-235.23 102.8,225.06 134.83,302.75 243.24,397.6 67.95,43.23 153.92,92.84 231.44,131.67 28.1,-41.28 76.93,-84.48 112.54,-107.33 -425.76,-695.68 -462.99,-899.96 -716.11,-954.01 -469.7,-100.29 -1151.77,667.94 -1282.18,820.99l57.45 -6.13c0,0 -23.72,35.13 -10.91,31.37 128.03,-37.55 371.52,-27.82 569.32,15.13l-108.13 30.8c141.66,2.89 454.9,47.22 595.64,112.52l-98.2 39.33c0,0 246.92,23.03 483.56,146.15 14.67,7.64 -100.85,1.98 -82.79,7.3 53.95,15.88 119.76,44.73 201.95,107.42 13.77,-70.52 -6.7,-212.29 -25.76,-316.57zm419.98 -28.03c-9.2,19.14 -26.55,54.45 -6.25,43.1 7.95,-4.44 16.23,-8.77 24.78,-12.94 -6.27,-10.16 -12.44,-20.2 -18.53,-30.16z"/>
    <path class="fil5" d="M5974.63 2600.74c-159.06,-78.86 -267.62,-91.11 -434.59,-128.04 0,0 61.5,-30.62 64.12,-35.38 -351.13,-94.01 -609.45,-103.36 -609.45,-103.36 0,0 71.6,-42.29 77.1,-47.73 -297.42,-49.52 -375.86,-11.34 -507.07,20.32l26.17 -34.74c-88.41,10.1 -166.69,37.61 -185.34,134.69l-27.76 157.73c-7.41,39.53 53.43,58.71 96.86,55.93 2.21,-0.15 11.15,3.24 2.48,-20.13 -1.95,-5.23 17.32,20.58 67.41,22.54 52.38,2.08 136.58,12.55 260.8,33.31 14.02,2.34 -39.74,-46.17 -28.04,-37.33 89.47,67.46 346.57,98.45 506.83,136.97 40.02,9.63 213.68,34.19 249.95,44.1 31.33,8.57 -74.24,2.46 -45.58,11.16 120.2,36.48 301.68,108.25 388.73,135.65 0,0 -46.52,-5.07 -36.3,-0.27 144.93,68.11 182.89,109.87 196.21,121.91l46.09 19.43c13.92,2.32 55.47,8.92 104,-75.44l43.89 -132.6c5.17,-27.46 -3.41,-54.44 -20.27,-79.94 -60.41,-91.21 -209.22,-155.71 -284.43,-185.26 0.91,-1.6 17.32,-14.64 48.2,-13.51z"/>
    <g style="clip-path:url(#id12)">
     <g>
     </g>
     <g style="clip-path:url(#id13)">
      <image id="Layer_x0020_1_4" x="-9359.46" y="-5043.95" width="31014.83" height="17449.23" xlink:href="logo_Images/logo_ImgID5.html"/>
     </g>
     <g style="clip-path:url(#id14)">
     </g>
    </g>
    <path class="fil1" d="M5974.63 2600.74c-159.06,-78.86 -267.62,-91.11 -434.59,-128.04 0,0 61.5,-30.62 64.12,-35.38 -351.13,-94.01 -609.45,-103.36 -609.45,-103.36 0,0 71.6,-42.29 77.1,-47.73 -297.42,-49.52 -375.86,-11.34 -507.07,20.32l26.17 -34.74c-88.41,10.1 -166.69,37.61 -185.34,134.69l-27.76 157.73c-7.41,39.53 53.43,58.71 96.86,55.93 2.21,-0.15 11.15,3.24 2.48,-20.13 -1.95,-5.23 17.32,20.58 67.41,22.54 52.38,2.08 136.58,12.55 260.8,33.31 14.02,2.34 -39.74,-46.17 -28.04,-37.33 89.47,67.46 346.57,98.45 506.83,136.97 40.02,9.63 213.68,34.19 249.95,44.1 31.33,8.57 -74.24,2.46 -45.58,11.16 120.2,36.48 301.68,108.25 388.73,135.65 0,0 -46.52,-5.07 -36.3,-0.27 144.93,68.11 182.89,109.87 196.21,121.91l46.09 19.43c13.92,2.32 55.47,8.92 104,-75.44l43.89 -132.6c5.17,-27.46 -3.41,-54.44 -20.27,-79.94 -60.41,-91.21 -209.22,-155.71 -284.43,-185.26 0.91,-1.6 17.32,-14.64 48.2,-13.51z"/>
   </g>
   <circle class="fil3" cx="6489.13" cy="4538.05" r="86.87"/>
   <circle class="fil4" cx="7223.46" cy="4206.01" r="86.87"/>
   <circle class="fil4" cx="7250.98" cy="2713.3" r="86.87"/>
   <circle class="fil3" cx="7803" cy="3616.3" r="86.87"/>
   <circle class="fil4" cx="7876.93" cy="2376.25" r="86.87"/>
   <circle class="fil3" cx="10000.93" cy="3777.13" r="86.87"/>
   <circle class="fil4" cx="8801.69" cy="4460.28" r="86.87"/>
   <circle class="fil4" cx="9156.61" cy="3254.45" r="86.87"/>
   <circle class="fil4" cx="10463.53" cy="2262.32" r="86.87"/>
   <circle class="fil3" cx="8285.47" cy="4152.4" r="86.87"/>
   <circle class="fil3" cx="9850.99" cy="2766.92" r="86.87"/>
   <polygon class="fil4" points="5183.04,4761.22 2115.17,4761.22 2115.17,5146.54 5183.04,5146.54 "/>
   <g style="clip-path:url(#id15)">
    <g>
    </g>
    <g style="clip-path:url(#id16)">
     <image id="Layer_x0020_1_5" x="-9359.46" y="-5043.95" width="31014.83" height="17449.23" xlink:href="logo_Images/logo_ImgID6.html"/>
    </g>
    <g style="clip-path:url(#id17)">
    </g>
   </g>
   <polygon class="fil1" points="5183.04,4761.22 2115.17,4761.22 2115.17,5146.54 5183.04,5146.54 "/>
   <polygon class="fil3" points="5183.04,4761.22 5183.04,5146.54 10254.1,5146.54 10254.1,4761.22 "/>
   <g style="clip-path:url(#id18)">
    <g>
    </g>
    <g style="clip-path:url(#id19)">
     <image id="Layer_x0020_1_6" x="-9359.46" y="-5043.95" width="31014.83" height="17449.23" xlink:href="logo_Images/logo_ImgID7.html"/>
    </g>
    <g style="clip-path:url(#id20)">
    </g>
   </g>
   <polygon class="fil1" points="5183.04,4761.22 5183.04,5146.54 10254.1,5146.54 10254.1,4761.22 "/>
   <path class="fil0" d="M5412.19 4692.66c-70.16,-68.79 -158.53,-103.32 -265.08,-103.32 -109.17,0 -198.21,34.53 -267.04,103.32 -21.07,21.1 -38.92,43.94 -53.56,68.56 -33.18,55.81 -49.74,120.67 -49.74,194.62 0,72.63 15.98,136.2 47.99,190.71 14.94,25.45 33.37,48.94 55.31,70.45 68.83,67.62 157.87,101.36 267.04,101.36 106.54,0 194.91,-34.43 265.08,-103.31 21.58,-21.17 39.84,-44.02 54.78,-68.51 33.66,-55.17 50.5,-118.74 50.5,-190.71 0,-73.95 -16.91,-138.81 -50.71,-194.62 -14.91,-24.62 -33.1,-47.46 -54.57,-68.56z"/>
   <path class="fil6" d="M568.3 1890.9c49.81,-26.81 96.2,-52.4 143.24,-76.78 14.52,-7.53 17.29,-18.86 18.63,-33.15 1.94,-20.8 0.46,-42.21 9.66,-62.02 9.39,-20.24 22.32,-36.62 46.43,-37.2 23.95,-0.57 47.15,8.98 54.22,31.45 7.72,24.45 17.91,16.2 31.74,10.11 14.68,-6.47 29.51,-12.93 44.79,-17.71 28.48,-8.91 51.75,0.06 67.08,25.28 14.33,23.5 12.28,47.15 -5.06,69.02 -15.17,19.09 -36.42,29.47 -57.64,39.54 -16.77,7.95 -21.91,15.86 -9.13,33.35 17.72,24.22 13.8,49.7 -6.77,70.73 -20.19,20.61 -47.5,21.91 -67.99,6.12 -35.29,-27.14 -64,-17.72 -96.39,3.54 -30.91,20.27 -64.26,36.74 -100.69,57.23 47.38,39.85 101.94,59.28 152.1,86.01 11.03,5.9 20.73,-4.72 30.23,-10.15 24.67,-14.18 50.53,-23.43 76.2,-4.45 24.45,18.1 26.43,44.14 15.82,70.3 -6.85,16.81 2.32,22.02 13.68,28.48 16.08,9.13 33.01,16.58 46.05,30.73 23.34,25.28 26.2,52.85 9.2,81.56 -17.38,29.39 -44.18,33.61 -74.19,21.78 -20.49,-8.1 -40.42,-17.64 -61.56,-26.96 -2.7,6.72 -4.75,12.48 -7.26,17.95 -11.63,25.32 -31.41,38.25 -59.2,35.21 -27.76,-3.04 -45.63,-23.72 -43,-47.84 7.23,-66.08 -40.99,-84.18 -84.33,-108.1 -27.99,-15.4 -55.9,-30.88 -90.92,-50.27 0,52.44 0,98.82 0,145.21 0,15.98 11.21,24.19 22.66,31.68 17.83,11.63 33.73,25.13 44.87,43.57 12.74,21.14 11.64,42.33 -0.12,63.39 -11.44,20.45 -29.73,25.89 -50.79,20.22 -21.45,-5.78 -20.88,5.82 -21.03,21.19 -0.23,19.65 -0.69,39.92 -5.36,58.86 -7.76,31.6 -30.34,47.72 -62.94,45.86 -31.59,-1.79 -48.82,-21.14 -54.11,-51.49 -1.9,-10.94 -2.93,-22.16 -3.11,-33.26 -0.46,-26.43 5.4,-50.88 -40.23,-41.34 -35.24,7.42 -55.74,-53.08 -32.17,-89.43 3.35,-5.1 7.23,-11.37 12.35,-13.5 57.38,-24.04 55.98,-71.87 54.34,-123.13 -2.66,-82.66 -0.83,-82.79 -73,-42.97 -11.93,6.57 -23.09,15.09 -35.63,19.93 -43.15,16.57 -69.43,41.67 -62.84,93.5 3.61,28.41 -13.69,50.65 -42.93,57.01 -29.28,6.31 -51.18,-7.08 -62.09,-34.61 -6.57,-16.65 -14.61,-15.74 -27.8,-8.74 -14.14,7.49 -28.97,14.11 -44.14,19.21 -27.49,9.24 -53.47,5.2 -67.42,-22.09 -14.18,-27.68 -16.96,-57.19 9.43,-81.45 6.31,-5.82 13.01,-12.51 20.76,-15.21 32.78,-11.45 49.77,-26.88 28.75,-64.15 -10.42,-18.52 3.8,-35.93 18.21,-48.48 20.46,-17.8 48.32,-17.34 66.01,-4.45 34.52,25.18 60.64,13.17 90.42,-5.55 32.21,-20.19 66,-37.79 106.01,-60.46 -52.06,-29.31 -97.61,-55.21 -143.38,-80.69 -18.03,-10 -29.89,4.83 -43.66,12.06 -26.2,13.76 -53.26,24.25 -78.74,0.03 -21.44,-20.45 -26.09,-46.31 -8.22,-70.38 15.33,-20.65 8.9,-29.61 -11.14,-37.83 -18.48,-7.53 -35.51,-17.8 -48.56,-33.35 -20.75,-24.8 -24.06,-51.64 -5.17,-78.37 18.45,-26.09 44.38,-28.94 72.78,-18.25 5.78,2.16 11.68,4.55 16.74,8.05 23.91,16.54 40.3,20.95 59.44,-11.64 21.44,-36.65 70.41,-27.68 88.9,11.95 2.09,4.45 5.4,9.5 4.87,13.88 -8.98,71.18 40.3,95.25 92.17,122.78 79.5,42.21 78.13,44.79 79.43,-45.82 0.22,-14.86 -0.77,-29.88 1.13,-44.56 3.13,-23.88 -5.89,-39.88 -25.66,-52.82 -17.49,-11.45 -34.53,-24.22 -45.37,-43.12 -12.4,-21.6 -10.65,-43.04 1.67,-63.5 12.01,-20 31.67,-24.22 51.86,-17.04 18.36,6.51 21.07,-0.53 21.41,-16.16 0.46,-20.99 1.52,-42.08 4.1,-62.88 3.95,-31.75 24.75,-48.03 54.91,-50.65 30.42,-2.59 52.17,11.3 63.35,40.77 10.87,28.79 2.74,58.97 7.33,91.94 32.51,-10.38 60.85,-8.39 74.42,28.56 11.55,31.52 2.39,60.57 -37.12,83.09 -28.89,16.46 -34.67,37.64 -33.73,66.65 1.22,37.12 0.5,74.31 0.68,111.45 0,2.4 0.88,4.76 2.52,12.79z"/>
   <path class="fil6" d="M11769.55 2951.72c49.35,-11.02 95.46,-21.82 141.83,-31.43 14.32,-2.97 19.45,-12.05 24.05,-24.03 6.7,-17.42 10.6,-36.2 23.31,-51.03 12.97,-15.14 28.06,-26.12 48.94,-20.78 20.75,5.3 38.4,19.12 39.06,40.18 0.73,22.91 11.49,18.27 24.87,16.38 14.19,-2.01 28.51,-4 42.83,-4.41 26.66,-0.77 44.52,12.58 51.62,37.98 6.64,23.69 -0.84,43.55 -21.04,58.17 -17.68,12.75 -38.47,16.55 -59.17,20.09 -16.36,2.79 -22.68,8.35 -15.91,26.49 9.39,25.13 -0.14,46.1 -22.93,59.23 -22.36,12.85 -46.17,7.36 -59.99,-11.18 -23.8,-31.89 -50.79,-30.72 -83.81,-20.26 -31.5,9.96 -64.18,16.07 -100.48,24.9 31.13,45.74 73.39,75.66 110.08,110.8 8.07,7.74 18.98,0.95 28.47,-1.43 24.67,-6.23 49.15,-7.94 66.65,14.61 16.66,21.48 12.07,44.37 -3.39,64.32 -9.95,12.81 -3.33,19.52 4.89,27.82 11.63,11.75 24.39,22.25 32.19,37.57 13.98,27.41 9.77,51.82 -11.8,72.42 -22.06,21.09 -46.15,18.25 -69.11,0.81 -15.68,-11.93 -30.52,-24.95 -46.46,-38.09 -3.95,5.13 -7.1,9.59 -10.59,13.69 -16.13,18.98 -36.28,25.32 -59.46,15.98 -23.15,-9.33 -33.53,-31.45 -25.44,-51.56 22.19,-55.13 -14.92,-82.36 -46.43,-113.43 -20.36,-20.02 -40.63,-40.08 -66.08,-65.24 -12.68,45.13 -23.9,85.05 -35.12,124.97 -3.86,13.75 3.8,23.53 11.84,32.74 12.54,14.32 22.95,29.78 28.08,48.35 5.85,21.27 -0.22,39.23 -15.43,54.52 -14.8,14.84 -31.85,15.09 -48.61,5.12 -17.05,-10.16 -19.37,-0.04 -23.22,13.14 -4.95,16.86 -10.25,34.19 -18.85,49.36 -14.31,25.31 -37.64,33.73 -65.24,24.24 -26.76,-9.18 -36.9,-30 -34.11,-57.39 1.01,-9.88 2.84,-19.79 5.37,-29.38 5.99,-22.85 16.94,-42.48 -24.63,-45.3 -32.12,-2.15 -35.14,-59.16 -6.06,-84.74 4.11,-3.58 8.98,-8.03 13.9,-8.63 55.19,-6.8 65.55,-48.31 76.53,-92.81 17.7,-71.77 19.31,-71.43 -52.43,-54.63 -11.86,2.77 -23.51,7.4 -35.48,8.53 -41.14,3.83 -69.82,19.07 -76.69,65.26 -3.76,25.32 -24.03,40.27 -50.73,38.67 -26.72,-1.65 -42.33,-18.46 -45.06,-44.79 -1.63,-15.92 -8.76,-17.08 -21.81,-14.25 -13.99,3.03 -28.34,5.13 -42.63,5.85 -25.9,1.3 -47.27,-8.45 -52.68,-35.31 -5.51,-27.25 -0.77,-53.32 27.82,-67.82 6.84,-3.48 14.22,-7.62 21.54,-8.07 30.98,-1.92 49.33,-11.1 40.25,-48.25 -4.49,-18.45 11.96,-30 27.4,-37.32 21.91,-10.36 45.78,-3.23 57.88,12.14 23.63,30.02 49.01,26 79.16,17.09 32.6,-9.59 65.93,-16.56 105.84,-26.39 -37.71,-37.81 -70.64,-71.11 -103.88,-104.11 -13.09,-12.97 -26.89,-3.07 -40.48,-0.19 -25.87,5.51 -51.71,7.99 -67.78,-19.01 -13.51,-22.79 -11.24,-46.16 9.96,-62.55 18.18,-14.07 14.81,-23.34 -0.45,-35.25 -14.08,-10.95 -26.25,-23.91 -33.72,-40.44 -11.86,-26.36 -8.22,-50.26 14.5,-68.69 22.18,-17.99 45.19,-14.17 67.04,1.89 4.45,3.26 8.94,6.75 12.44,10.99 16.58,20.02 29.62,27.77 53.96,4.35 27.32,-26.35 67.3,-6.79 73.62,31.77 0.72,4.34 2.35,9.49 0.84,13.13 -24.94,59.08 11.65,91.71 49.62,127.94 58.21,55.55 56.4,57.44 79.43,-20.22 3.79,-12.74 6.57,-25.9 11.76,-38.08 8.46,-19.79 4.58,-35.74 -9.32,-51.65 -12.28,-14.08 -23.85,-29.19 -28.61,-48.08 -5.44,-21.58 1.25,-39.61 16.8,-54.24 15.18,-14.31 33.11,-13.18 48.76,-2.11 14.23,10.04 18.25,4.63 22.33,-8.74 5.47,-17.95 11.48,-35.85 18.74,-53.13 11.08,-26.36 32.91,-35.34 59.5,-30.3 26.8,5.13 42.17,22.33 44.65,50.39 2.4,27.41 -11.9,51.41 -15.91,80.9 30.48,-1.07 54.39,7.49 57.13,42.57 2.32,29.92 -12.58,52.71 -52.03,62.53 -28.84,7.17 -38.94,24.01 -45.14,49.2 -7.92,32.23 -17.54,64.06 -26.36,96.07 -0.58,2.07 -0.39,4.31 -0.93,11.61z"/>
   <path class="fil6" d="M11043.2 5521.57c51.2,-62.11 98.52,-120.78 147.36,-178.19 15.08,-17.73 12.64,-34.14 6.7,-53.69 -8.63,-28.44 -22.1,-55.84 -20.64,-86.88 1.49,-31.7 9.7,-60.24 41.14,-73.96 31.25,-13.64 66.93,-13.54 88.35,12.25 23.32,28.05 32.3,11.69 47.26,-3.76 15.85,-16.41 31.91,-32.9 49.47,-47.43 32.72,-27.04 68.2,-27.76 101.95,-2.79 31.52,23.24 41.54,55.49 30.47,93.62 -9.72,33.31 -32.12,58.41 -54.65,83.1 -17.81,19.49 -20.32,32.67 5.92,48.83 36.37,22.37 44.92,58.04 29.14,96.8 -15.51,38.01 -50.77,54.4 -86.26,44.64 -61.08,-16.77 -93.82,11.08 -125.06,56.52 -29.82,43.32 -64.87,82.95 -101.82,129.54 83.83,27 166.16,23.23 246.6,31.46 17.7,1.84 24.77,-17.36 34.35,-29.64 24.87,-31.96 53.96,-58.04 97.97,-46.85 41.94,10.69 58.56,43.93 58.66,84.09 0.03,25.82 14.9,27.76 33.35,30.15 26.1,3.37 52.4,4.07 77.19,15.7 44.35,20.74 62.94,55.52 56.01,102.48 -7.09,48.06 -40.11,68.04 -86,68.61 -31.36,0.36 -62.72,-1.49 -95.59,-2.39 0.06,10.32 0.46,18.99 0.09,27.55 -1.7,39.61 -20.79,67.28 -59.03,78.22 -38.19,10.93 -72.87,-6.7 -82.38,-39.87 -26.04,-90.93 -99.28,-88.83 -169.24,-97.02 -45.15,-5.22 -90.24,-10.59 -146.8,-17.29 28.21,69.07 53.17,130.17 78.13,191.27 8.59,21.04 27.78,25.83 46.88,29.54 29.75,5.72 57.95,14.95 82.55,33.25 28.16,20.99 38.1,49.49 33.96,83.55 -4.07,33.1 -25.24,50.1 -56.03,53.97 -31.36,3.93 -24.37,18.9 -16.31,39.22 10.28,26.01 20.58,52.95 24.61,80.41 6.78,45.78 -14.29,79.18 -58.22,94.25 -42.58,14.65 -75.68,-1.58 -98.97,-38.71 -8.39,-13.39 -15.78,-27.62 -22,-42.14 -14.82,-34.56 -20.26,-69.91 -75.23,-32.8 -42.44,28.73 -101.98,-39.93 -90.48,-100.5 1.66,-8.51 3.41,-18.86 9.01,-24.43 62.65,-62.53 35.07,-124.77 5.34,-191.4 -47.98,-107.45 -45.64,-108.59 -119.28,-17.32 -12.18,15.09 -22.28,32.3 -36.21,45.42 -47.92,45.05 -69.03,92.24 -32.48,156.96 20.03,35.47 9.22,74.08 -25.88,98.18 -35.17,24.06 -71.22,18.21 -100.4,-12.17 -17.62,-18.4 -27.7,-12.89 -41.32,3.43 -14.61,17.48 -30.57,34.18 -47.81,49.05 -31.24,26.96 -67.61,35.62 -100.68,7.17 -33.58,-28.83 -53.11,-66.21 -31.39,-112.36 5.18,-11.06 10.39,-23.47 19.16,-31.2 37.02,-32.71 51.1,-62.19 3.35,-99.95 -23.68,-18.79 -14.32,-49.38 -2.09,-73.66 17.38,-34.45 54.33,-48.83 84.55,-41.37 59.02,14.57 86.97,-15.3 116.12,-55.97 31.56,-43.93 66.6,-85.29 107.11,-136.66 -84.35,-10.61 -158.28,-20.2 -232.28,-29.13 -29.13,-3.48 -36.77,22.43 -51.01,39.36 -27.1,32.22 -57.11,60.61 -103.7,42.41 -39.26,-15.4 -59.27,-46.96 -48.68,-88.28 9.07,-35.44 -4.22,-43.79 -35.03,-43.82 -28.39,0.02 -56.35,-4.34 -81.89,-17.8 -40.68,-21.5 -59.48,-55.07 -48.98,-100.44 10.26,-44.29 42.89,-61.99 86.05,-63.19 8.78,-0.26 17.83,-0.28 26.38,1.61 40.4,8.92 64.35,5.91 72.02,-47.3 8.53,-59.82 77.85,-74.34 123.52,-32.1 5.14,4.73 12.22,9.61 13.89,15.66 26.47,98.58 104.32,103.78 187.45,112.13 127.43,12.82 127.01,16.97 79.97,-103.08 -7.7,-19.7 -17.09,-38.95 -22.48,-59.31 -8.74,-33.12 -29.21,-49.36 -62.22,-55.75 -29.2,-5.66 -58.51,-13.33 -82.95,-32.39 -27.94,-21.78 -37.18,-50.96 -31.96,-84.54 5.06,-32.81 28.69,-48.94 59.16,-50.35 27.68,-1.31 27.45,-12.03 19.49,-32.8 -10.69,-27.89 -20.64,-56.25 -28.42,-85.04 -11.87,-43.95 6.77,-76.57 45.07,-96.25 38.67,-19.77 74.79,-13.2 105.37,19.61 29.81,32.07 35.34,76.2 59.13,117.15 37.24,-31.16 75.62,-43.8 113.38,-2.42 32.18,35.31 35.74,78.5 -4.19,129.41 -29.2,37.23 -25.42,68.23 -8.57,105.93 21.58,48.23 40.63,97.6 60.86,146.43 1.29,3.16 3.71,5.79 10.18,15.48z"/>
   <path class="fil6" d="M3284.27 5982.34c34.72,-7.76 67.17,-15.36 99.8,-22.12 10.08,-2.09 13.68,-8.48 16.93,-16.91 4.71,-12.27 7.46,-25.49 16.4,-35.91 9.13,-10.66 19.75,-18.38 34.44,-14.62 14.61,3.73 27.03,13.46 27.48,28.27 0.51,16.12 8.08,12.86 17.5,11.53 9.99,-1.42 20.07,-2.81 30.14,-3.11 18.76,-0.54 31.33,8.84 36.31,26.72 4.68,16.67 -0.59,30.64 -14.8,40.94 -12.44,8.98 -27.07,11.65 -41.64,14.13 -11.51,1.96 -15.96,5.88 -11.2,18.64 6.61,17.68 -0.1,32.44 -16.14,41.68 -15.73,9.04 -32.49,5.18 -42.21,-7.87 -16.75,-22.44 -35.74,-21.62 -58.97,-14.26 -22.17,7.01 -45.16,11.31 -70.7,17.52 21.9,32.19 51.64,53.24 77.46,77.96 5.68,5.45 13.36,0.67 20.03,-1 17.35,-4.39 34.59,-5.59 46.9,10.27 11.72,15.12 8.5,31.22 -2.39,45.26 -7,9.01 -2.34,13.73 3.45,19.58 8.19,8.26 17.16,15.65 22.65,26.44 9.84,19.28 6.87,36.47 -8.3,50.96 -15.53,14.84 -32.48,12.83 -48.63,0.57 -11.04,-8.39 -21.47,-17.56 -32.69,-26.79 -2.78,3.61 -5,6.75 -7.46,9.63 -11.35,13.36 -25.52,17.82 -41.83,11.25 -16.29,-6.57 -23.6,-22.13 -17.9,-36.28 15.62,-38.79 -10.49,-57.96 -32.67,-79.82 -14.33,-14.09 -28.59,-28.2 -46.5,-45.91 -8.93,31.75 -16.82,59.85 -24.71,87.94 -2.72,9.67 2.67,16.56 8.33,23.04 8.82,10.08 16.15,20.96 19.76,34.02 4.12,14.97 -0.15,27.61 -10.85,38.36 -10.41,10.44 -22.41,10.62 -34.21,3.6 -12,-7.15 -13.63,-0.03 -16.33,9.25 -3.48,11.86 -7.21,24.06 -13.27,34.73 -10.08,17.81 -26.49,23.74 -45.91,17.06 -18.83,-6.46 -25.97,-21.11 -24.01,-40.39 0.71,-6.95 2,-13.92 3.78,-20.68 4.21,-16.08 11.92,-29.88 -17.33,-31.88 -22.61,-1.5 -24.72,-41.63 -4.26,-59.63 2.89,-2.52 6.31,-5.65 9.77,-6.07 38.84,-4.79 46.12,-33.99 53.86,-65.31 12.45,-50.51 13.58,-50.27 -36.9,-38.44 -8.34,1.95 -16.54,5.21 -24.96,6 -28.96,2.69 -49.14,13.42 -53.97,45.92 -2.65,17.82 -16.91,28.34 -35.7,27.21 -18.8,-1.16 -29.78,-12.99 -31.71,-31.52 -1.15,-11.21 -6.16,-12.02 -15.34,-10.03 -9.84,2.13 -19.95,3.62 -30,4.12 -18.21,0.91 -33.25,-5.95 -37.06,-24.85 -3.88,-19.17 -0.53,-37.51 19.57,-47.71 4.82,-2.45 10.01,-5.37 15.16,-5.68 21.8,-1.35 34.72,-7.81 28.32,-33.95 -3.16,-12.99 8.42,-21.11 19.28,-26.25 15.42,-7.3 32.22,-2.28 40.73,8.53 16.62,21.12 34.48,18.29 55.7,12.03 22.94,-6.75 46.4,-11.66 74.48,-18.57 -26.54,-26.61 -49.71,-50.04 -73.1,-73.26 -9.22,-9.12 -18.92,-2.16 -28.48,-0.12 -18.21,3.87 -36.39,5.62 -47.7,-13.38 -9.5,-16.04 -7.91,-32.48 7.01,-44.02 12.79,-9.9 10.42,-16.42 -0.31,-24.8 -9.91,-7.71 -18.48,-16.83 -23.73,-28.46 -8.35,-18.55 -5.78,-35.37 10.2,-48.34 15.61,-12.65 31.8,-9.97 47.18,1.34 3.13,2.29 6.3,4.74 8.76,7.72 11.67,14.09 20.85,19.55 37.97,3.07 19.23,-18.54 47.36,-4.78 51.8,22.37 0.51,3.04 1.65,6.67 0.59,9.23 -17.55,41.57 8.19,64.53 34.92,90.03 40.97,39.08 39.69,40.42 55.9,-14.23 2.66,-8.96 4.62,-18.23 8.27,-26.79 5.96,-13.92 3.22,-25.15 -6.55,-36.34 -8.65,-9.9 -16.79,-20.55 -20.13,-33.83 -3.83,-15.19 0.88,-27.87 11.82,-38.16 10.68,-10.07 23.3,-9.28 34.31,-1.49 10.01,7.06 12.85,3.26 15.71,-6.15 3.85,-12.63 8.08,-25.22 13.19,-37.38 7.8,-18.56 23.16,-24.87 41.87,-21.33 18.86,3.61 29.68,15.72 31.43,35.47 1.69,19.28 -8.38,36.17 -11.21,56.92 21.45,-0.75 38.27,5.27 40.21,29.95 1.63,21.06 -8.86,37.09 -36.61,43.99 -20.3,5.05 -27.4,16.89 -31.77,34.62 -5.58,22.68 -12.34,45.08 -18.55,67.61 -0.41,1.45 -0.28,3.03 -0.66,8.17z"/>
   <path class="fil6" d="M4168.53 619.68c70.87,-38.14 136.88,-74.55 203.8,-109.23 20.66,-10.71 24.61,-26.83 26.51,-47.17 2.76,-29.6 0.65,-60.06 13.75,-88.24 13.36,-28.79 31.76,-52.1 66.05,-52.92 34.08,-0.81 67.09,12.77 77.15,44.75 10.99,34.79 25.49,23.04 45.17,14.39 20.88,-9.2 41.98,-18.4 63.73,-25.21 40.53,-12.66 73.63,0.1 95.44,35.97 20.39,33.43 17.47,67.09 -7.19,98.2 -21.59,27.15 -51.82,41.93 -82.01,56.25 -23.87,11.31 -31.17,22.56 -12.99,47.45 25.22,34.46 19.64,70.71 -9.63,100.63 -28.73,29.33 -67.57,31.17 -96.73,8.7 -50.2,-38.62 -91.05,-25.21 -137.14,5.03 -43.99,28.84 -91.42,52.27 -143.25,81.43 67.4,56.7 145.03,84.33 216.4,122.37 15.69,8.39 29.49,-6.71 43.01,-14.44 35.11,-20.18 71.9,-33.33 108.41,-6.33 34.79,25.75 37.6,62.81 22.51,100.02 -9.74,23.91 3.3,31.33 19.47,40.53 22.88,12.99 46.97,23.58 65.52,43.72 33.22,35.97 37.28,75.2 13.1,116.05 -24.73,41.81 -62.87,47.82 -105.56,30.99 -29.16,-11.52 -57.5,-25.09 -87.58,-38.36 -3.85,9.57 -6.76,17.76 -10.35,25.54 -16.55,36.03 -44.68,54.43 -84.23,50.09 -39.5,-4.32 -64.93,-33.75 -61.19,-68.05 10.28,-94.03 -58.32,-119.78 -119.99,-153.82 -39.82,-21.91 -79.53,-43.93 -129.36,-71.52 0,74.61 0,140.61 0,206.61 0,22.73 15.95,34.42 32.24,45.07 25.37,16.55 47.99,35.75 63.84,62 18.13,30.08 16.56,60.21 -0.16,90.19 -16.28,29.1 -42.31,36.84 -72.28,28.77 -30.51,-8.22 -29.7,8.28 -29.92,30.14 -0.33,27.97 -0.98,56.8 -7.63,83.75 -11.03,44.96 -43.17,67.89 -89.53,65.24 -44.96,-2.54 -69.47,-30.09 -76.99,-73.26 -2.7,-15.57 -4.16,-31.53 -4.43,-47.32 -0.65,-37.6 7.68,-72.39 -57.24,-58.81 -50.15,10.55 -79.31,-75.52 -45.77,-127.24 4.75,-7.26 10.28,-16.18 17.58,-19.21 81.64,-34.19 79.63,-102.25 77.31,-175.17 -3.79,-117.62 -1.18,-117.78 -103.87,-61.14 -16.98,9.35 -32.84,21.47 -50.69,28.35 -61.4,23.59 -98.78,59.29 -89.42,133.03 5.13,40.41 -19.48,72.06 -61.08,81.1 -41.66,8.98 -72.83,-10.07 -88.35,-49.24 -9.35,-23.7 -20.78,-22.4 -39.56,-12.44 -20.12,10.66 -41.22,20.07 -62.8,27.33 -39.12,13.14 -76.07,7.41 -95.93,-31.43 -20.18,-39.39 -24.13,-81.37 13.42,-115.88 8.98,-8.29 18.51,-17.8 29.54,-21.65 46.64,-16.29 70.82,-38.25 40.9,-91.27 -14.82,-26.35 5.42,-51.13 25.91,-68.98 29.12,-25.32 68.77,-24.67 93.92,-6.33 49.13,35.81 86.29,18.72 128.65,-7.91 45.82,-28.73 93.91,-53.78 150.83,-86.01 -74.07,-41.71 -138.88,-78.55 -204.01,-114.8 -25.65,-14.23 -42.52,6.87 -62.11,17.15 -37.27,19.58 -75.79,34.51 -112.04,0.05 -30.51,-29.1 -37.11,-65.89 -11.69,-100.13 21.8,-29.38 12.65,-42.14 -15.85,-53.82 -26.29,-10.72 -50.53,-25.32 -69.09,-47.46 -29.54,-35.27 -34.24,-73.47 -7.36,-111.5 26.24,-37.12 63.14,-41.17 103.55,-25.97 8.22,3.08 16.61,6.48 23.81,11.47 34.03,23.53 57.35,29.8 84.56,-16.56 30.52,-52.15 100.19,-39.39 126.49,16.99 2.97,6.33 7.68,13.52 6.93,19.75 -12.77,101.27 57.34,135.52 131.13,174.69 113.13,60.05 111.17,63.73 113.02,-65.2 0.33,-21.14 -1.08,-42.52 1.62,-63.4 4.44,-33.97 -8.38,-56.74 -36.51,-75.14 -24.89,-16.28 -49.13,-34.46 -64.54,-61.35 -17.64,-30.73 -15.16,-61.23 2.38,-90.34 17.09,-28.47 45.06,-34.46 73.79,-24.24 26.12,9.25 29.97,-0.76 30.46,-22.99 0.65,-29.86 2.16,-59.89 5.84,-89.48 5.62,-45.16 35.22,-68.33 78.12,-72.06 43.28,-3.68 74.23,16.07 90.13,58 15.47,40.96 3.9,83.91 10.44,130.81 46.26,-14.77 86.56,-11.96 105.88,40.63 16.44,44.85 3.41,86.19 -52.81,118.22 -41.11,23.42 -49.33,53.56 -47.99,94.83 1.74,52.81 0.71,105.72 0.98,158.57 0,3.42 1.25,6.77 3.58,18.18z"/>
   <path class="fil6" d="M6953.93 6262.66c32.54,-46.28 62.56,-89.93 93.7,-132.78 9.61,-13.23 7.02,-24.61 1.81,-37.99 -7.58,-19.47 -18.49,-37.94 -19.13,-59.78 -0.67,-22.3 3.56,-42.74 24.86,-54.04 21.16,-11.24 46.18,-13.09 62.57,3.84 17.85,18.4 23.26,6.46 32.91,-5.17 10.23,-12.35 20.6,-24.77 32.12,-35.89 21.48,-20.71 46.3,-23.12 71.3,-7.43 23.33,14.6 32.09,36.67 26.38,63.97 -5.02,23.87 -19.38,42.66 -33.83,61.17 -11.44,14.61 -12.49,23.98 6.77,33.9 26.69,13.72 34.59,38.26 25.61,66.27 -8.82,27.47 -32.66,40.85 -58.05,35.91 -43.71,-8.47 -65.15,12.81 -84.61,46.33 -18.57,31.96 -41.01,61.61 -64.4,96.25 60.2,14.42 117.69,7.36 174.51,8.81 12.5,0.33 16.42,-13.5 22.48,-22.61 15.71,-23.74 34.69,-43.58 66.14,-38.09 29.96,5.24 43.39,27.64 45.62,55.77 1.41,18.1 11.93,18.66 24.99,19.35 18.47,0.96 36.94,0.04 54.94,6.85 32.19,12.15 47.08,35.53 44.75,68.81 -2.39,34.06 -24.46,49.84 -56.58,52.7 -21.95,1.94 -44.04,2.32 -67.12,3.45 0.6,7.23 1.34,13.29 1.54,19.31 0.94,27.86 -10.96,48.27 -37.17,57.99 -26.18,9.71 -51.42,-0.78 -59.87,-23.51 -23.13,-62.33 -74.34,-56.92 -123.81,-58.9 -31.91,-1.24 -63.8,-2.58 -103.8,-4.24 23.48,46.89 44.25,88.37 65.02,129.85 7.16,14.29 20.86,16.6 34.45,18.18 21.16,2.42 41.42,7.36 59.63,18.86 20.86,13.2 29.36,32.63 28.28,56.73 -1.07,23.41 -14.99,36.47 -36.37,40.83 -21.76,4.44 -16.06,14.55 -9.32,28.36 8.6,17.68 17.26,36.01 21.56,55.03 7.21,31.72 -5.76,56.25 -35.74,69.18 -29.05,12.55 -53.13,2.96 -71.44,-21.81 -6.6,-8.94 -12.54,-18.52 -17.67,-28.35 -12.24,-23.43 -17.96,-47.91 -54.48,-18.94 -28.2,22.41 -73.62,-22.5 -68.81,-65.57 0.7,-6.06 1.37,-13.4 5,-17.6 40.55,-47.18 17.87,-89.32 -6.54,-134.42 -39.39,-72.73 -37.81,-73.65 -84.52,-5.74 -7.73,11.23 -13.88,23.84 -22.93,33.77 -31.17,34.14 -43.43,68.35 -14.33,111.74 15.94,23.78 10.43,51.42 -12.87,70.19 -23.35,18.76 -48.94,16.6 -71.01,-3.14 -13.34,-11.95 -20.1,-7.54 -28.77,4.62 -9.29,13.03 -19.59,25.59 -30.88,36.94 -20.44,20.57 -45.47,28.6 -70.17,10.43 -25.08,-18.4 -40.77,-43.54 -28.03,-77.05 3.04,-8.02 6.02,-17.01 11.75,-22.89 24.19,-24.91 32.47,-46.33 -3.02,-70.22 -17.6,-11.9 -12.68,-33.84 -5.42,-51.51 10.33,-25.07 35.45,-37.13 57.04,-33.52 42.14,7.05 60.12,-15.4 78.36,-45.46 19.76,-32.47 42.1,-63.35 67.72,-101.53 -59.68,-2.9 -112,-5.66 -164.34,-7.95 -20.6,-0.87 -24.56,17.7 -33.64,30.33 -17.26,24.04 -36.77,45.54 -70.39,35.29 -28.34,-8.69 -44.06,-29.73 -38.85,-59.25 4.45,-25.32 -5.31,-30.47 -26.9,-28.84 -19.89,1.54 -39.73,-0.02 -58.35,-8.08 -29.66,-12.88 -44.64,-35.4 -39.71,-67.76 4.81,-31.58 26.73,-45.74 56.9,-48.9 6.13,-0.65 12.48,-1.15 18.57,-0.29 28.79,4.09 45.42,0.69 47.93,-37.02 2.77,-42.38 50.57,-56.28 84.85,-29.13 3.86,3.04 9.08,6.08 10.56,10.23 23.84,67.67 78.68,67.13 137.39,68.51 89.99,2.15 89.92,5.07 50.51,-76.54 -6.45,-13.39 -14.06,-26.38 -18.93,-40.36 -7.9,-22.74 -23.12,-33.02 -46.6,-35.73 -20.76,-2.4 -41.72,-6.2 -59.87,-18.25 -20.75,-13.76 -28.79,-33.72 -26.93,-57.53 1.78,-23.26 17.48,-35.84 38.75,-38.45 19.33,-2.41 18.59,-9.91 11.9,-24.04 -8.99,-18.97 -17.49,-38.31 -24.49,-58.07 -10.68,-30.16 0.63,-54.02 26.42,-69.87 26.04,-15.94 51.71,-13.27 74.89,8.08 22.61,20.87 28.85,51.5 47.73,78.92 24.43,-23.84 50.65,-34.76 79.33,-7.79 24.45,23.02 29.26,53.09 4.01,90.92 -18.47,27.65 -14.15,49.18 -0.32,74.69 17.71,32.64 33.72,66.22 50.52,99.35 1.08,2.15 2.91,3.86 7.97,10.31z"/>
   <path class="fil6" d="M8103.28 1076.5c34.72,-7.75 67.17,-15.36 99.8,-22.11 10.08,-2.09 13.68,-8.48 16.92,-16.91 4.72,-12.26 7.46,-25.48 16.4,-35.9 9.13,-10.66 19.75,-18.38 34.44,-14.62 14.61,3.72 27.03,13.45 27.49,28.27 0.51,16.12 8.08,12.86 17.5,11.52 9.98,-1.42 20.07,-2.8 30.13,-3.11 18.76,-0.54 31.33,8.85 36.32,26.73 4.68,16.67 -0.59,30.64 -14.81,40.94 -12.44,8.98 -27.07,11.65 -41.63,14.13 -11.51,1.96 -15.96,5.87 -11.21,18.64 6.61,17.68 -0.1,32.44 -16.13,41.67 -15.74,9.05 -32.49,5.19 -42.21,-7.86 -16.74,-22.44 -35.73,-21.62 -58.96,-14.26 -22.17,7.01 -45.16,11.31 -70.71,17.52 21.91,32.19 51.65,53.24 77.47,77.96 5.68,5.45 13.35,0.67 20.03,-1.01 17.35,-4.38 34.59,-5.58 46.9,10.28 11.72,15.12 8.49,31.22 -2.39,45.26 -7.01,9.01 -2.35,13.73 3.44,19.58 8.19,8.26 17.17,15.65 22.66,26.44 9.84,19.28 6.87,36.46 -8.31,50.96 -15.53,14.84 -32.47,12.83 -48.63,0.57 -11.03,-8.39 -21.47,-17.56 -32.68,-26.8 -2.79,3.62 -5,6.75 -7.46,9.63 -11.35,13.36 -25.53,17.82 -41.84,11.24 -16.29,-6.56 -23.6,-22.13 -17.9,-36.27 15.61,-38.79 -10.5,-57.96 -32.67,-79.82 -14.33,-14.09 -28.6,-28.2 -46.5,-45.91 -8.92,31.75 -16.81,59.85 -24.71,87.94 -2.72,9.67 2.68,16.55 8.33,23.04 8.82,10.08 16.15,20.96 19.76,34.02 4.12,14.97 -0.15,27.61 -10.86,38.36 -10.41,10.44 -22.4,10.62 -34.2,3.6 -12,-7.15 -13.63,-0.03 -16.34,9.25 -3.48,11.86 -7.21,24.06 -13.27,34.73 -10.07,17.81 -26.49,23.73 -45.91,17.05 -18.83,-6.45 -25.97,-21.1 -24,-40.38 0.7,-6.95 2,-13.92 3.77,-20.68 4.22,-16.08 11.93,-29.88 -17.32,-31.88 -22.61,-1.51 -24.73,-41.63 -4.27,-59.63 2.9,-2.52 6.31,-5.65 9.78,-6.07 38.84,-4.79 46.12,-33.99 53.85,-65.31 12.46,-50.51 13.58,-50.27 -36.89,-38.44 -8.35,1.95 -16.55,5.21 -24.97,6 -28.96,2.69 -49.14,13.42 -53.97,45.92 -2.65,17.81 -16.91,28.34 -35.69,27.21 -18.8,-1.16 -29.79,-12.99 -31.71,-31.52 -1.15,-11.21 -6.16,-12.02 -15.35,-10.03 -9.84,2.13 -19.94,3.62 -29.99,4.12 -18.22,0.91 -33.26,-5.95 -37.06,-24.85 -3.88,-19.17 -0.54,-37.51 19.57,-47.72 4.81,-2.45 10.01,-5.36 15.16,-5.68 21.8,-1.35 34.72,-7.81 28.32,-33.95 -3.15,-12.99 8.43,-21.11 19.28,-26.26 15.42,-7.29 32.22,-2.27 40.73,8.54 16.63,21.12 34.48,18.29 55.7,12.03 22.94,-6.75 46.4,-11.66 74.48,-18.57 -26.54,-26.61 -49.72,-50.04 -73.1,-73.26 -9.22,-9.12 -18.93,-2.16 -28.49,-0.12 -18.21,3.87 -36.38,5.62 -47.69,-13.38 -9.5,-16.04 -7.91,-32.49 7,-44.02 12.79,-9.9 10.42,-16.42 -0.31,-24.8 -9.9,-7.71 -18.48,-16.82 -23.73,-28.45 -8.35,-18.55 -5.78,-35.37 10.21,-48.34 15.6,-12.65 31.8,-9.97 47.18,1.33 3.13,2.3 6.29,4.75 8.76,7.73 11.66,14.09 20.84,19.55 37.97,3.07 19.22,-18.54 47.35,-4.78 51.8,22.37 0.5,3.04 1.65,6.67 0.59,9.23 -17.55,41.57 8.19,64.53 34.92,90.03 40.96,39.08 39.69,40.42 55.89,-14.23 2.67,-8.96 4.62,-18.23 8.27,-26.79 5.96,-13.92 3.22,-25.15 -6.55,-36.34 -8.64,-9.9 -16.78,-20.55 -20.13,-33.83 -3.83,-15.19 0.88,-27.87 11.82,-38.16 10.68,-10.07 23.3,-9.28 34.31,-1.49 10.01,7.07 12.85,3.27 15.71,-6.14 3.85,-12.63 8.08,-25.23 13.19,-37.38 7.79,-18.56 23.16,-24.87 41.87,-21.33 18.86,3.61 29.67,15.71 31.42,35.46 1.69,19.28 -8.37,36.18 -11.2,56.93 21.45,-0.75 38.27,5.27 40.2,29.95 1.63,21.05 -8.86,37.08 -36.61,43.99 -20.3,5.05 -27.4,16.89 -31.77,34.62 -5.58,22.68 -12.34,45.08 -18.55,67.61 -0.4,1.45 -0.28,3.03 -0.65,8.16z"/>
   <path class="fil7" d="M1929.84 5598.85c-1.46,24.38 -29.21,25.08 -46.82,31.47 -114.33,41.06 -229.28,80.59 -343.94,120.64l0.81 2.34c-110.49,38.6 -220.07,79.75 -331.72,114.5 -47.75,14.8 -53.26,34.97 -35.34,76.95 21.16,49.59 36.15,101.84 54.87,152.41 10.83,29.34 3.18,45.63 -27.42,55.44 -60.02,19.22 -119.65,39.79 -178.26,62.76 -34.31,13.23 -48.73,1.02 -58.68,-30.74 -16.08,-51.5 -37.59,-101.59 -51.71,-153.52 -11.02,-40.63 -28.75,-47.19 -67.3,-33.48 -173.72,62.05 -348.23,121.88 -522.68,181.82 -48.96,16.85 -98.29,32.33 -147.98,46.81 -30.32,8.97 -44.43,-1.23 -32.02,-34.06 75.06,-197.66 150.69,-395.04 224.8,-593 11.35,-30.33 32.9,-25.73 54.71,-22.86 180.3,23.5 326.49,-40.81 444.12,-174.49 20.23,-23.07 38.21,-24.85 64.33,-17.84 141.66,37.74 261.75,-4.96 363.65,-104.03 33.94,-32.97 60.77,-32.73 99.24,-7.68 160.23,104.37 325.22,200.7 494.82,289.05 16.94,8.95 43.99,13.13 42.53,37.51zm-465.12 -532.6c-1.73,1.35 -2.49,4.11 -4.25,5.1 -125.58,66.48 -227.01,168.9 -320.54,223.93 -103.36,36.48 -173.74,27.7 -243.35,3.78 -24.18,-8.3 -40.12,-13.61 -60.99,15.05 -111.83,154.16 -259.18,223.37 -450.98,174.64 -41.2,-10.35 -70.65,25.8 -108.69,28.09 -46.09,2.85 -103.4,36.12 -134.69,-1.06 -26.01,-30.78 18.42,-76.29 33.32,-114.36 45.87,-117.37 95.56,-233.08 141.39,-350.31 16.32,-41.69 37.44,-59.94 85.46,-51.47 87.51,15.29 164.22,-12.12 227.09,-75.33 23.67,-23.64 49.54,-36.04 84.24,-33.04 94.03,7.89 178.44,-13.09 242.87,-88.34 18.88,-21.96 41.53,-24.38 66.51,-10.23 142.8,80.84 285.71,161.39 435.14,229.66 24.4,11.1 30.75,24.87 7.47,43.89zm-352.48 -431.62c-41.97,21.54 -84.43,42.11 -125.12,62.32 -25.47,0.91 -42.28,9.9 -58.26,29.47 -63.44,77.77 -146.13,110.28 -245.61,89.79 -32.44,-6.67 -52.69,0.66 -74.47,25.88 -60.19,69.51 -135.47,99.93 -229.03,80.75 -69.54,-14.07 -125.12,43.33 -193.43,42.69 -23.67,-0.23 -52.78,21.81 -69.95,1.19 -17.74,-21.42 7.19,-46.38 16.71,-67.69 101.9,-227.04 169.53,-464.37 219.8,-707.49 24.97,-121.19 26.97,-121.76 126.16,-41.45 148.73,120.26 296.16,242.09 464.26,334.97 55.17,30.59 111.29,59.23 168.45,85.63 50.11,22.98 41.61,42.83 0.48,63.94z"/>
   <path class="fil7" d="M11780.71 2012.53c-9.6,11.08 -23.07,1.28 -33.8,-2.1 -69.46,-22.18 -138.65,-45.32 -207.9,-68.1l-0.46 1.42c-66.72,-21.95 -133.96,-42.36 -199.83,-66.57 -28.15,-10.38 -38.14,-2.79 -44.93,23.76 -8.02,31.35 -19.96,61.71 -29.51,92.64 -5.55,17.93 -15.15,22.9 -33.31,16.4 -35.61,-12.75 -71.53,-24.73 -107.83,-35.18 -21.17,-6.22 -23.59,-17.3 -16.73,-36.06 11.14,-30.4 19.17,-62.12 31.41,-92.02 9.59,-23.38 3.54,-32.97 -19.84,-40.52 -105.41,-33.86 -210.39,-69.07 -315.37,-104.21 -29.47,-9.85 -58.63,-20.48 -87.59,-31.73 -17.72,-6.79 -20.72,-16.8 -2.83,-27.92 107.92,-66.76 216.02,-133.18 323.59,-200.43 16.48,-10.31 25.07,-0.25 34.41,9.08 77.32,77.02 170.44,99.75 275.28,79.01 18.06,-3.6 27.28,2.11 37.16,14.99 53.7,69.7 126.5,93.2 211.22,83.21 28.21,-3.32 40.9,6.59 50.09,32.57 38.23,108.22 81.65,214.34 130.2,318.36 4.79,10.45 16.15,22.31 6.57,33.39zm-27.14 -423.54c-1.32,0.01 -2.69,1.05 -3.89,0.88 -84.1,-14.17 -169.81,-2.42 -234.46,-10.35 -62.56,-20.36 -92.88,-50.24 -117.31,-87.04 -8.49,-12.79 -14.15,-21.13 -34.55,-15.09 -109.56,32.6 -205.02,11.79 -278.6,-81.45 -15.84,-19.97 -43.08,-13.51 -62.03,-26.3 -23,-15.47 -62.45,-20.55 -63.78,-49.68 -1.15,-24.16 36.62,-29.62 57.62,-42.32 64.7,-39.17 130.62,-76.15 195.25,-115.26 22.99,-13.9 39.72,-14.88 59.51,6.68 36.1,39.24 82.65,54.18 135.69,47.03 19.9,-2.63 36.75,0.91 52.2,15.01 41.91,38.09 89.79,58.91 147.95,46.59 17.01,-3.57 28.68,3.55 35.42,19.41 38.52,90.65 77.19,181.19 123.45,268.27 7.57,14.2 5.57,23.08 -12.46,23.64zm-10.34 -334.31c-27.85,-5.06 -55.6,-10.76 -82.35,-15.99 -12.47,-8.87 -23.76,-10.72 -38.52,-7.23 -58.62,13.89 -109.87,-0.81 -149.79,-46.9 -13.02,-15.02 -25.34,-18.93 -44.92,-14.85 -54.05,11.14 -101.02,-1.86 -138.59,-45.15 -27.99,-32.09 -75.43,-25.04 -107.74,-50.28 -11.18,-8.75 -33.11,-8.88 -33.76,-24.97 -0.63,-16.68 20.36,-19.48 32.68,-26.15 131.43,-70.96 250.29,-159.32 363.01,-256.79 56.14,-48.63 57.3,-48.16 75.23,26.31 26.94,111.59 52.7,223.45 98.87,329.07 15.12,34.72 31.39,68.85 48.99,102.29 15.48,29.24 4.19,35.59 -23.12,30.64z"/>
   <circle class="fil4" cx="2248.84" cy="2933.68" r="86.87"/>
   <circle class="fil4" cx="3067.9" cy="3727.93" r="86.87"/>
   <circle class="fil4" cx="4085.53" cy="2511.75" r="86.87"/>
   <circle class="fil4" cx="4772.22" cy="2991.6" r="86.87"/>
  </g>
 </g>
</svg>
