<svg width="183" height="32" fill="none" xmlns="http://www.w3.org/2000/svg"><path d="M125.162 21.949c2.42 0 3.636-.649 3.636-2.18 0-1.734-1.316-2.349-3.949-2.349h-1.996v4.529h2.309zm-.67-7.67c1.986 0 2.979-.347 2.979-2.047 0-1.62-1.071-2.27-3.224-2.27h-1.406v4.316h1.651zm-6.246-7.816h6.67c4.652 0 7.073 1.677 7.073 5.266 0 1.588-.949 2.773-1.908 3.4v.055c1.294.459 3.28 1.867 3.28 4.473 0 3.488-2.042 5.88-7.642 5.88h-7.485V6.464h.012zM143.666 21.781v-2.325l-2.209.056c-1.316.033-2.287.458-2.287 1.532 0 .872.837 1.24 1.64 1.24.859.012 1.874-.234 2.856-.503zm-8.857-.458c0-3.723 3.391-4.472 6.291-4.472h2.555v-.917c0-1.297-.837-1.677-2.666-1.677-1.451 0-3.012.324-4.384.648l-.893-3.265c1.673-.648 3.603-1.185 5.957-1.185 4.551 0 6.381 1.286 6.381 4.607v6.552c0 .492.479.592 1.316.626l-.167 3.399c-.346.022-.703.022-1.049.022-1.774 0-3.659-.29-4.06-1.565-1.082.838-2.611 1.666-4.228 1.666-3.235.011-5.053-1.498-5.053-4.439zM151.566 10.811h4.496v1.476c.892-.67 2.822-1.867 4.797-1.867 4.596 0 4.919 2.538 4.919 5.881v9.236h-4.473V16.68c0-2.024-.458-2.37-1.963-2.37-1.339 0-2.555.436-3.28.783v10.443h-4.496V10.81zM168.676 5.2h4.484v11.057l4.072-5.445h4.819l-5.355 6.787 6.236 7.938h-5.544l-4.228-6.082v6.082h-4.484V5.2z" fill="#DC1734"/><path d="M4.676 10.32V4.687h9.136v9.157h-2.053L6.717 8.778l-.256-.246-1.785 1.789z" fill="#008355"/><path d="M0 16l6.459-6.484L12.918 16l-1.45 1.453H3.981v2.527L0 16.001z" fill="#DC1734"/><path d="M4.676 27.315h5.633l-1.54-1.543-.245-.245 5.288-5.312v-2.057H4.676v9.157z" fill="#008355"/><path d="M15.963 32l-6.46-6.473 6.46-6.474 1.461 1.453v7.503h2.521L15.963 32z" fill="#DC1734"/><path d="M27.253 27.315h-9.136v-9.157h2.064l5.042 5.054.245.246.246-.246 1.54-1.543v5.646z" fill="#008355"/><path d="M31.925 16l-6.458 6.473L19.007 16l1.462-1.464h7.485v-2.527l3.971 3.991z" fill="#DC1734"/><path d="M27.253 4.686v9.157h-9.136v-2.069l5.042-5.053.257-.247-.257-.245-1.528-1.543h5.622z" fill="#008355"/><path d="M22.422 6.474l-6.459 6.474-1.45-1.465V3.98h-2.52L15.962 0l6.46 6.474z" fill="#DC1734"/><path d="M48.458 6.463h-7.395v19.075h4.607v-5.39h1.394c5.678 0 8.746-3.152 8.746-6.91 0-4.27-3.068-6.775-7.352-6.775zM47.22 16.604h-1.562v-6.552h2.21c2.453 0 3.234 1.376 3.234 3.287 0 1.778-1.026 3.265-3.882 3.265zm55.486-10.14h-6.247l-6.403 19.074h4.74l1.808-5.58h5.979l1.807 5.58h4.741l-6.425-19.075zm-5.042 10.174l1.907-7.346 1.908 7.346h-3.815zM61.588 6.463l-6.403 19.075h4.73l1.796-5.58h5.979l1.807 5.58h4.74L67.836 6.463h-6.247zm1.216 10.175l1.907-7.346 1.908 7.346h-3.815zm17.424-5.188c0-.816.591-1.543 2.51-1.543 1.952 0 3.112.38 4.518.783l1.316-3.198c-1.483-.649-2.945-1.308-5.979-1.308-3.38 0-6.871 1.599-6.871 5.288 0 6.508 9.09 5.669 9.09 8.777 0 1.163-1.048 1.879-3.357 1.879-2.108 0-3.357-.269-5.064-.872l-1.294 3.31c1.294.704 2.911 1.24 5.522 1.34.122.482.267.985.267 1.454 0 .95-1.372 1.488-2.052 1.901l1.54 2.706c1.695-.704 4.272-1.9 4.272-4.092 0-.76-.302-1.52-.603-2.192h-.022c2.967-.581 5.444-2.292 5.444-5.59.022-6.094-9.237-6.094-9.237-8.643z" fill="#008355"/></svg>