<svg width="54" height="39" fill="none" xmlns="http://www.w3.org/2000/svg"><rect x=".5" y=".5" width="53" height="37.118" rx="3.5" fill="#fff" stroke="#D9D9D9"/><path d="M31.39 18.843c0 7.092-5.683 12.842-12.695 12.842C11.684 31.685 6 25.935 6 18.843 6 11.75 11.684 6 18.695 6c7.012 0 12.695 5.75 12.695 12.843z" fill="#ED0006"/><path d="M47.86 18.843c0 7.092-5.684 12.842-12.695 12.842-7.012 0-12.695-5.75-12.695-12.842C22.47 11.75 28.152 6 35.165 6c7.011 0 12.695 5.75 12.695 12.843z" fill="#0099DF"/><path fill-rule="evenodd" clip-rule="evenodd" d="M26.93 28.618a12.875 12.875 0 004.46-9.775c0-3.914-1.73-7.42-4.46-9.775a12.875 12.875 0 00-4.46 9.775c0 3.914 1.73 7.419 4.46 9.775z" fill="#6C6BBD"/></svg>