<svg width="54" height="39" fill="none" xmlns="http://www.w3.org/2000/svg"><rect x=".5" y=".5" width="53" height="37.118" rx="3.5" fill="#fff" stroke="#D9D9D9"/><path d="M7.28 21.89a2.027 2.027 0 00-.81-.348c-.29-.116-.578-.116-.868-.116-.173 0-.347 0-.52.058-.174.058-.29.116-.405.174a.697.697 0 00-.289.289c-.058.116-.116.231-.116.347 0 .116 0 .231.058.29.058.057.116.173.231.23.116.058.232.116.405.174.174.058.347.058.52.116l.406.057c.23.058.462.058.694.174.23.058.404.173.578.29.173.115.347.288.405.462.115.173.173.405.173.694 0 .289-.058.578-.173.81-.116.23-.29.404-.52.578a1.804 1.804 0 01-.753.347 4.49 4.49 0 01-.925.115c-.173 0-.405 0-.636-.058-.231-.057-.405-.057-.636-.173-.232-.058-.405-.173-.579-.231L3 25.822l.52-.752c.116.116.232.173.347.231.116.058.29.174.463.232.174.057.347.115.52.115.174.058.348.058.521.058.174 0 .347 0 .52-.058.174-.058.29-.116.405-.173a.697.697 0 00.29-.29c.057-.115.115-.23.115-.346 0-.232-.115-.405-.347-.52a3.33 3.33 0 00-.983-.29l-.29-.058c-.23-.058-.404-.058-.635-.173-.232-.058-.405-.174-.579-.29-.173-.115-.289-.289-.404-.462-.116-.174-.174-.405-.174-.694 0-.29.058-.579.174-.752.115-.231.289-.405.52-.578.231-.174.463-.29.752-.347.29-.058.578-.116.867-.116.405 0 .81.058 1.157.174.347.115.636.289.983.462l-.462.694zm3.238.462c.29 0 .52.058.752.173.231.116.405.232.578.405.174.174.29.405.405.636.116.232.116.52.116.868v.347h-2.95c0 .173.058.347.174.462a.697.697 0 00.289.29l.347.173c.116.058.29.058.405.058.173 0 .405-.058.578-.116.174-.058.405-.173.578-.289l.463.636c-.231.232-.52.347-.752.463-.289.058-.578.116-.867.116a1.84 1.84 0 01-.81-.174c-.231-.116-.463-.231-.636-.405-.174-.173-.347-.405-.405-.636-.116-.231-.173-.52-.173-.867 0-.29.057-.579.173-.868.116-.231.231-.463.405-.694.173-.173.405-.347.636-.405.116-.115.347-.173.694-.173zm-.058.81c-.173 0-.289 0-.405.057-.115.058-.23.116-.289.232-.115.115-.173.173-.231.289a.836.836 0 00-.116.405h2.082c-.058-.29-.173-.579-.347-.752-.173-.174-.405-.232-.694-.232zm4.627-.81c.289 0 .578.058.81.173.23.116.462.29.635.463l-.578.578a1.259 1.259 0 00-.462-.289c-.174-.058-.347-.116-.52-.116a1.09 1.09 0 00-.464.116.593.593 0 00-.347.29.933.933 0 00-.23.404c-.059.174-.116.347-.116.52 0 .174.057.348.115.521.058.174.116.29.231.405.116.115.232.173.347.289.116.058.29.116.463.116.174 0 .347-.058.52-.116.174-.058.29-.174.463-.29l.52.58c-.173.23-.404.346-.635.462-.232.116-.52.173-.81.173a2.32 2.32 0 01-.868-.173c-.23-.116-.462-.231-.636-.463-.173-.173-.347-.405-.405-.694a1.847 1.847 0 01-.173-.81c0-.289.058-.578.174-.81.115-.23.23-.462.404-.693a2.58 2.58 0 01.636-.463c.347-.115.637-.173.926-.173zM21.1 24.78c0 .289-.058.578-.173.81a2.077 2.077 0 01-.405.578c-.174.173-.347.231-.578.347-.232.058-.463.115-.694.115-.232 0-.463-.058-.694-.115a1.2 1.2 0 01-.579-.347c-.173-.116-.289-.347-.405-.579a1.846 1.846 0 01-.173-.81v-2.313h.867v2.198c0 .174 0 .347.058.463.058.115.116.231.232.347.115.057.173.115.289.173.115.058.231.058.405.058.115 0 .289 0 .404-.058.116-.058.232-.116.29-.173.115-.058.173-.174.23-.347.059-.116.059-.29.059-.463v-2.197h.867v2.313zm3.18-2.43h.348c.116 0 .231.059.29.059l-.232.867c-.116-.058-.174-.058-.347-.116-.116 0-.232-.057-.347-.057-.116 0-.29 0-.405.057-.116.058-.231.116-.29.232-.057.115-.173.231-.173.347-.058.115-.058.289-.058.462V26.4H22.2v-3.99h.867v.462c.116-.173.29-.347.52-.404.174-.058.406-.116.695-.116zm2.893 0c.289 0 .52.059.751.174.232.116.405.232.579.405.173.174.289.405.404.636.116.232.116.52.116.868v.347h-2.892c0 .173.058.347.174.462a.697.697 0 00.29.29l.346.173c.116.058.29.058.405.058.173 0 .405-.058.578-.116.174-.058.405-.173.579-.289l.404.636c-.23.232-.52.347-.751.463-.29.058-.579.116-.868.116-.289 0-.578-.058-.81-.174-.23-.116-.462-.231-.636-.405-.173-.173-.347-.405-.404-.636-.116-.231-.174-.52-.174-.867 0-.29.058-.579.174-.868.115-.231.23-.463.404-.694.174-.173.405-.347.637-.405.115-.115.404-.173.694-.173zm0 .81c-.174 0-.29 0-.405.058-.116.058-.232.116-.29.232-.115.115-.173.173-.23.289a.82.82 0 00-.116.405h2.082c-.058-.29-.174-.579-.348-.752-.173-.174-.404-.232-.694-.232zm5.667-2.66c.231 0 .52 0 .752.058.231.058.462.116.694.231.231.116.405.232.578.405.173.174.29.347.405.52l-.81.521c-.173-.289-.405-.463-.694-.636-.289-.174-.578-.231-.925-.231-.29 0-.578.058-.81.173-.231.116-.462.231-.636.463-.173.173-.347.405-.405.694a2.12 2.12 0 00-.173.867c0 .29.058.579.173.868.116.289.232.462.405.694.174.173.405.347.636.404.232.116.52.174.81.174.347 0 .636-.058.925-.231.29-.174.52-.347.694-.637l.752.579c-.116.173-.29.347-.463.52a1.2 1.2 0 01-.578.347 2.814 2.814 0 01-.636.232c-.231.058-.463.058-.752.058-.462 0-.867-.058-1.214-.232-.347-.173-.694-.347-.983-.636-.29-.29-.463-.578-.637-.983-.173-.347-.23-.752-.23-1.215 0-.462.057-.867.23-1.214.174-.347.347-.694.636-.983.29-.29.579-.463.984-.636.405-.058.81-.174 1.272-.174zm5.147 1.85c.29 0 .578.059.867.174.29.116.463.232.694.463.174.173.347.405.463.694.116.231.173.52.173.81 0 .289-.057.578-.173.81-.116.23-.231.462-.463.693a2.078 2.078 0 01-.694.463c-.289.116-.52.173-.867.173a2.32 2.32 0 01-.867-.173 1.83 1.83 0 01-.695-.463 2.08 2.08 0 01-.462-.694 1.848 1.848 0 01-.174-.81c0-.289.058-.578.174-.81.116-.23.231-.462.462-.693.174-.174.405-.347.694-.463a2.32 2.32 0 01.868-.173zm0 .81c-.174 0-.347.058-.52.116-.174.058-.29.174-.405.29-.116.115-.174.23-.29.404-.057.174-.115.347-.115.52 0 .174.058.348.115.521.058.174.174.29.29.405.115.115.231.173.404.289.174.058.347.116.52.116.174 0 .348-.058.521-.116.174-.058.29-.174.405-.29.116-.115.174-.23.29-.404.057-.174.115-.347.115-.52 0-.174-.058-.347-.116-.52-.057-.174-.173-.29-.289-.406-.115-.115-.231-.173-.405-.289-.173-.058-.347-.116-.52-.116zm4.8-.81c.29 0 .52.059.752.174.231.116.405.232.52.405v-2.487h.868v6.015h-.868v-.463c-.115.174-.289.347-.52.405a1.601 1.601 0 01-.752.174c-.29 0-.52-.058-.81-.174-.231-.116-.462-.231-.636-.463-.173-.173-.347-.405-.405-.694-.115-.231-.173-.52-.173-.867 0-.29.058-.578.173-.868a4.32 4.32 0 01.405-.694c.174-.173.405-.346.636-.462.232.058.52 0 .81 0zm.058.81c-.174 0-.347.058-.52.116-.174.058-.29.174-.406.29a.933.933 0 00-.23.404c-.059.174-.059.347-.059.52 0 .174 0 .348.058.521.058.174.116.29.231.405.116.115.232.231.405.289.174.058.29.116.52.116.174 0 .348-.058.521-.116.174-.058.29-.174.405-.29a.933.933 0 00.231-.404c.058-.174.116-.347.116-.52 0-.174-.058-.347-.116-.52a.933.933 0 00-.23-.406c-.117-.115-.232-.231-.406-.289-.173-.058-.289-.116-.52-.116zm4.973-.81c.29 0 .52.059.752.174.231.116.405.232.578.405.174.174.29.405.405.636.116.232.116.52.116.868v.347h-2.95c0 .173.058.347.174.462a.697.697 0 00.29.29l.346.173c.116.058.29.058.405.058.173 0 .405-.058.578-.116.174-.058.405-.173.579-.289l.404.636c-.231.232-.52.347-.751.463-.29.058-.579.116-.868.116-.29 0-.578-.058-.81-.174-.23-.116-.462-.231-.636-.405-.173-.173-.347-.405-.404-.636-.116-.231-.174-.52-.174-.867 0-.29.058-.579.173-.868.116-.231.232-.463.405-.694.174-.173.405-.347.637-.405.173-.115.462-.173.751-.173zm2.256 4.107v-.174h.057v-.057h-.23v.057h.057l.116.174zm.404 0v-.231h-.057l-.058.173-.058-.173h-.058v.23h.058v-.173l.058.174h.058l.058-.174v.174zM47.76 23.16c-.173 0-.289 0-.404.058-.116.058-.232.116-.29.232-.115.115-.173.173-.23.289a.82.82 0 00-.117.405h2.082c-.057-.29-.173-.579-.347-.752-.173-.174-.404-.232-.694-.232z" fill="#F59E1F"/><path d="M10.171 18.246h-.983v-4.974L7.453 17.61h-1.04L4.62 13.272v4.916h-.983v-6.014H5.14l1.735 4.337 1.735-4.337h1.504v6.072h.057zm5.148 0h-.926v-.52c-.116.173-.347.346-.52.462a1.602 1.602 0 01-.752.173c-.29 0-.578-.057-.81-.173-.231-.116-.462-.231-.636-.463a2.08 2.08 0 01-.463-.694 2.321 2.321 0 01-.173-.867c0-.29.058-.636.173-.868.116-.289.232-.52.463-.694.174-.173.405-.347.636-.462.232-.116.52-.174.81-.174.289 0 .578.058.752.174.231.115.405.231.52.462v-.52h.925v4.164zm-2.083-3.412c-.173 0-.347.058-.52.115-.173.058-.29.174-.405.29a.932.932 0 00-.231.404c-.058.174-.058.347-.058.52 0 .174 0 .348.058.521.058.174.116.29.231.405.116.116.232.232.405.29.174.057.347.115.52.115.174 0 .348-.058.521-.116.174-.058.29-.173.405-.289a.933.933 0 00.231-.405c.058-.173.116-.347.116-.52 0-.174-.058-.347-.116-.52-.058-.174-.173-.29-.231-.405-.116-.116-.232-.232-.405-.29-.173-.115-.347-.115-.52-.115zm6.246.289c-.058-.058-.115-.058-.231-.116s-.174-.058-.29-.115c-.115-.058-.23-.058-.346-.058-.116 0-.231-.058-.405-.058a1.45 1.45 0 00-.578.116c-.116.115-.232.23-.232.347 0 .057 0 .115.058.173.058.058.058.116.174.116.057.057.115.057.231.057.058 0 .174.058.29.058l.404.058c.463.058.81.174 1.041.405.231.173.405.463.405.81 0 .173-.058.404-.116.52-.058.174-.231.29-.347.405-.173.116-.347.231-.578.29a3.46 3.46 0 01-.81.115h-.347c-.116 0-.289-.058-.462-.058a4.18 4.18 0 01-.463-.173 1.259 1.259 0 01-.463-.29l.405-.694c.058.058.174.116.231.174.116.058.174.116.29.116.115.057.23.057.346.115.116 0 .29.058.463.058.29 0 .52-.058.694-.116.174-.115.232-.231.232-.347a.318.318 0 00-.174-.289 2.683 2.683 0 00-.52-.173l-.405-.058c-.463-.058-.81-.174-1.041-.405-.232-.231-.347-.463-.347-.81 0-.23.058-.404.115-.578.058-.173.174-.29.347-.405.174-.115.347-.173.52-.289.232-.058.463-.116.695-.116.347 0 .636.058.925.116.29.058.52.174.752.347l-.463.752zm4.28-.231H22.2v1.792c0 .116 0 .232.058.347.058.116.058.174.116.232.058.057.116.115.231.115.058 0 .174.058.232.058.115 0 .289 0 .404-.058a2.77 2.77 0 00.405-.173l.347.694c-.173.116-.347.231-.578.289-.232.058-.463.116-.694.116-.463 0-.81-.116-1.099-.405-.29-.29-.405-.694-.405-1.215v-1.85h-.81v-.81h.81v-1.272h.926v1.272h1.561v.868h.058zm2.776-.926c.289 0 .578.058.81.174.23.115.462.231.636.462.173.174.289.405.404.694.116.29.174.579.174.868v.347h-3.065c0 .173.058.347.173.463.058.115.174.23.29.346.115.058.23.174.346.174.116.058.29.058.405.058.232 0 .405-.058.636-.116a1.2 1.2 0 00.579-.347l.462.636c-.231.232-.52.347-.81.463a4.469 4.469 0 01-.925.116 2.32 2.32 0 01-.867-.174c-.231-.115-.463-.231-.694-.462a2.082 2.082 0 01-.463-.694 2.32 2.32 0 01-.173-.868c0-.347.058-.636.173-.867.116-.29.232-.52.405-.694a2.58 2.58 0 01.636-.463c.29-.058.579-.116.868-.116zm0 .81c-.174 0-.29 0-.405.058-.116.058-.231.115-.347.231-.116.116-.174.174-.231.347-.058.116-.116.29-.116.405h2.14c-.058-.347-.174-.578-.347-.752-.174-.231-.405-.29-.694-.29zm5.089-.81h.347c.116 0 .231.058.347.116l-.231.867c-.116-.057-.232-.057-.347-.115-.116 0-.232-.058-.347-.058-.116 0-.29 0-.405.058-.116.058-.232.115-.29.231-.057.116-.173.231-.23.347-.059.116-.059.29-.059.463v2.255h-.925v-4.164h.868v.463a1.36 1.36 0 01.52-.463c.29.058.52 0 .752 0zm3.123 0c.289 0 .578.058.867.174.29.115.52.289.694.52l-.578.636c-.174-.115-.29-.23-.463-.347-.173-.057-.347-.115-.52-.115a1.09 1.09 0 00-.463.115c-.173.058-.289.174-.405.29a.93.93 0 00-.231.404c-.058.174-.116.347-.116.52 0 .174.058.348.116.521.058.174.173.29.231.405.116.116.232.232.405.29.174.057.29.115.463.115.173 0 .405-.058.578-.116.174-.058.347-.173.463-.289l.578.636a1.58 1.58 0 01-.694.52c-.29.116-.578.174-.867.174-.347 0-.636-.058-.868-.173a2.08 2.08 0 01-.694-.463 2.08 2.08 0 01-.463-.694 2.322 2.322 0 01-.173-.867c0-.29.058-.579.173-.868.116-.289.232-.52.463-.694a2.08 2.08 0 01.694-.462c.174-.174.463-.232.81-.232zm6.361 4.28h-.925v-.52c-.116.173-.347.346-.52.462a1.601 1.601 0 01-.752.173 1.84 1.84 0 01-.81-.173c-.231-.116-.463-.231-.636-.463a2.081 2.081 0 01-.463-.694 2.32 2.32 0 01-.173-.867c0-.29.057-.636.173-.868.116-.289.231-.52.463-.694.173-.173.405-.347.636-.462a1.84 1.84 0 01.81-.174c.289 0 .578.058.751.174.232.115.405.231.52.462v-.52h.926v4.164zm-2.082-3.412c-.173 0-.347.058-.52.115-.174.058-.29.174-.405.29a.93.93 0 00-.231.404c-.058.174-.058.347-.058.52 0 .174.058.348.058.521.058.174.115.29.231.405.116.116.231.232.405.29.173.057.347.115.52.115.174 0 .347-.058.52-.116.174-.058.29-.173.406-.289a.932.932 0 00.23-.405c.059-.173.117-.347.117-.52 0-.174-.058-.347-.116-.52-.058-.174-.174-.29-.231-.405-.116-.116-.232-.232-.405-.29-.174-.115-.347-.115-.52-.115zm5.494-.868h.347c.116 0 .232.058.347.116l-.231.867c-.116-.057-.231-.057-.347-.115-.116 0-.231-.058-.347-.058-.116 0-.29 0-.405.058-.115.058-.231.115-.289.231-.058.116-.173.231-.231.347-.058.116-.058.29-.058.463v2.255h-.925v-4.164h.867v.463c.116-.174.29-.347.52-.463.29.058.52 0 .752 0zm3.008 0c.289 0 .578.058.751.174.232.115.405.231.52.462V12h.926v6.246h-.925v-.52c-.116.173-.347.346-.52.462a1.601 1.601 0 01-.752.173 1.84 1.84 0 01-.81-.173c-.231-.116-.463-.231-.636-.463a2.078 2.078 0 01-.463-.694 2.32 2.32 0 01-.173-.867c0-.29.057-.636.173-.868.116-.289.231-.52.463-.694a2.54 2.54 0 01.636-.462 1.84 1.84 0 01.81-.174zm3.238 3.875h.116c.058 0 .058.058.058.058l.057.058v.231c0 .058-.057.058-.057.058l-.058.058h-.232c-.057 0-.057-.058-.057-.058l-.058-.058v-.231c0-.058.058-.058.058-.058l.057-.058h.116zm0 .463h.058s.058 0 .058-.058l.058-.058v-.116s0-.057-.058-.057l-.058-.058h-.116s-.058 0-.058.058l-.057.057v.116s0 .058.057.058l.058.058h.058zm0-.347h.058v.115h-.058l.058.116h-.058l-.058-.116v.116h-.058v-.231h.116zm-.058.115h.058-.058zm-3.065-3.238c-.173 0-.347.058-.52.115-.174.058-.29.174-.405.29a.932.932 0 00-.231.404c-.116.174-.116.347-.116.52 0 .174.058.348.058.521.057.174.115.29.231.405.116.116.231.232.405.29.173.057.347.115.52.115.174 0 .347-.058.52-.116.174-.058.29-.173.406-.289a.933.933 0 00.231-.405c.058-.173.116-.347.116-.52 0-.174-.058-.347-.116-.52-.058-.174-.173-.29-.231-.405-.116-.116-.232-.232-.405-.29-.116-.115-.29-.115-.463-.115z" fill="#E41522"/></svg>