<?xml version="1.0" encoding="UTF-8"?> <svg xmlns="http://www.w3.org/2000/svg" width="81" height="48" viewBox="0 0 81 48" fill="none"> <path d="M25.2103 26.6934C29.9056 26.6934 33.0636 29.7288 33.0636 35.3469V47.9951H27.5383V36.4686C27.5383 33.4726 26.2515 31.977 23.8007 31.977C20.6869 31.977 19.2331 34.181 19.2331 38.0527V47.9951H13.7471V36.4686C13.7471 33.4726 12.4161 31.977 9.96528 31.977C6.89073 31.977 5.48115 34.181 5.48115 38.0527V47.9951H0V27.1903H5.31907V30.3929C6.56657 28.189 8.5999 26.6885 11.7972 26.6885C14.7441 26.6885 17.0328 27.9381 18.2361 30.5602C19.5622 28.1939 21.9688 26.6934 25.2103 26.6934ZM53.112 33.4332C53.112 24.7355 59.2169 18.8713 66.9868 18.8713C74.7566 18.8713 80.8615 24.7404 80.8615 33.4332C80.8615 42.1261 74.7566 47.9951 66.9868 47.9951C59.2169 47.9951 53.112 42.131 53.112 33.4332ZM75.0464 33.4332C75.0464 28.066 71.6379 24.6961 66.9868 24.6961C62.2915 24.6961 58.9272 28.066 58.9272 33.4332C58.9272 38.8004 62.2915 42.1703 66.9868 42.1703C71.6428 42.1703 75.0464 38.8004 75.0464 33.4332ZM27.0521 17.8137C26.9047 19.4174 28.0835 20.8342 29.6846 20.9769L34.4192 21.4098C36.0203 21.5574 37.4348 20.3767 37.5772 18.773C37.7246 17.1692 36.5458 15.7524 34.9447 15.6097L30.2101 15.1768C28.6139 15.0341 27.1994 16.2148 27.0521 17.8137ZM33.9772 2.93693C32.656 3.85197 32.3318 5.66728 33.2454 6.99064L36.9093 12.2792C37.8228 13.6025 39.6351 13.9272 40.9563 13.0122C42.2775 12.0971 42.6016 10.2818 41.6881 8.95846L38.0242 3.66995C37.1107 2.34659 35.2984 2.02189 33.9772 2.93693ZM50.8577 0.103273C49.3057 -0.319809 47.7095 0.595229 47.2871 2.14981L45.6025 8.34844C45.1801 9.8981 46.0936 11.5019 47.6456 11.9249C49.1976 12.348 50.7939 11.433 51.2162 9.87842L52.9009 3.67978C53.3183 2.1252 52.4048 0.526354 50.8577 0.103273ZM62.3259 12.0086C61.653 10.5475 59.9242 9.91285 58.4655 10.5868L54.1533 12.5792C52.6946 13.2532 52.061 14.9849 52.7339 16.446C53.4067 17.9071 55.1356 18.5417 56.5942 17.8678L60.9064 15.8753C62.3651 15.1964 62.9987 13.4648 62.3259 12.0086ZM45.9758 18.8713C45.1605 18.8713 44.3746 19.1567 43.7509 19.6831L35.038 27.0083C33.8102 28.0414 33.6481 29.8813 34.6795 31.1112C35.7109 32.3411 37.5478 32.5034 38.7756 31.4703L43.6183 27.4018V48H49.4334V22.3396C49.4334 20.421 47.8863 18.8713 45.9758 18.8713Z" fill="#02205F"></path> </svg> 