<svg width="54" height="39" fill="none" xmlns="http://www.w3.org/2000/svg"><rect x=".5" y=".5" width="53" height="37.118" rx="3.5" fill="#fff" stroke="#D9D9D9"/><path fill-rule="evenodd" clip-rule="evenodd" d="M15.75 26.278h-3.79L9.117 15.115c-.135-.514-.421-.968-.843-1.182A12.096 12.096 0 004.8 12.752v-.43h6.106c.843 0 1.475.645 1.58 1.395l1.475 8.053 3.79-9.448h3.684L15.75 26.278zm7.793 0h-3.58l2.948-13.956h3.58l-2.948 13.956zm7.579-10.09c.105-.751.737-1.181 1.474-1.181 1.16-.108 2.422.108 3.475.643l.632-3.004A8.835 8.835 0 0033.439 12c-3.474 0-6.003 1.933-6.003 4.616 0 2.041 1.791 3.113 3.055 3.758 1.368.644 1.895 1.074 1.79 1.718 0 .965-1.054 1.395-2.106 1.395-1.264 0-2.528-.322-3.685-.86l-.632 3.007c1.264.536 2.632.752 3.896.752 3.896.106 6.317-1.825 6.317-4.724 0-3.65-4.95-3.864-4.95-5.474zM48.6 26.278l-2.843-13.956h-3.053c-.632 0-1.264.43-1.475 1.073l-5.264 12.883h3.686l.735-2.04h4.528l.422 2.04H48.6zM43.232 16.08l1.052 5.26h-2.948l1.896-5.26z" fill="#172B85"/></svg>