<svg width="54" height="39" fill="none" xmlns="http://www.w3.org/2000/svg"><rect x=".5" y=".5" width="53" height="37.118" rx="3.5" fill="#fff" stroke="#D9D9D9"/><path fill-rule="evenodd" clip-rule="evenodd" d="M27.18 28.355a12.887 12.887 0 01-8.333 3.033C11.752 31.388 6 25.704 6 18.694 6 11.684 11.752 6 18.847 6c3.18 0 6.09 1.142 8.333 3.033A12.888 12.888 0 0135.514 6c7.095 0 12.846 5.683 12.846 12.694 0 7.01-5.751 12.694-12.846 12.694-3.18 0-6.09-1.142-8.334-3.033z" fill="#ED0006"/><path fill-rule="evenodd" clip-rule="evenodd" d="M27.18 28.355c2.761-2.328 4.513-5.792 4.513-9.661 0-3.869-1.752-7.333-4.514-9.662A12.887 12.887 0 0135.512 6c7.095 0 12.847 5.683 12.847 12.694 0 7.01-5.752 12.694-12.847 12.694-3.18 0-6.09-1.142-8.333-3.033z" fill="#F9A000"/><path fill-rule="evenodd" clip-rule="evenodd" d="M27.18 28.355c2.762-2.328 4.513-5.793 4.513-9.661 0-3.869-1.751-7.333-4.513-9.661-2.762 2.328-4.513 5.792-4.513 9.66 0 3.87 1.751 7.334 4.513 9.662z" fill="#FF5E00"/></svg>