<svg width="54" height="39" fill="none" xmlns="http://www.w3.org/2000/svg"><rect x=".5" y=".5" width="53" height="37.118" rx="3.5" fill="#fff" stroke="#D9D9D9"/><path d="M21.63 12.257l-5.734 14.08h-3.742L9.332 15.1c-.17-.69-.32-.945-.84-1.236-.851-.476-2.257-.921-3.492-1.198l.083-.409h6.024c.766 0 1.456.525 1.632 1.435l1.49 8.148 3.682-9.583h3.719zm5.058 0l-2.927 14.08h-3.54l2.927-14.08h3.54zm9.6 9.483c.015-3.715-4.991-3.921-4.958-5.581.012-.505.479-1.042 1.501-1.18.507-.067 1.906-.121 3.49.63l.62-2.987c-.85-.317-1.947-.622-3.31-.622-3.499 0-5.96 1.913-5.98 4.654-.023 2.027 1.758 3.157 3.098 3.833 1.38.69 1.842 1.133 1.835 1.749-.01.945-1.101 1.363-2.116 1.378-1.78.03-2.812-.495-3.635-.89l-.643 3.087c.828.39 2.354.73 3.935.747 3.72 0 6.152-1.89 6.163-4.818zm9.24 4.597H48.8l-2.859-14.08h-3.02c-.68 0-1.252.407-1.506 1.032l-5.311 13.048h3.717l.737-2.103h4.54l.43 2.103zm-3.951-4.988l1.864-5.288 1.07 5.288h-2.934zm-10.36 8.864H29.78v1.378h1.609v.414h-2.094v-3.822h2.011v.414H29.78v1.208h1.438v.408zm.914-2.234h.484v4.026h-.484v-4.026zm1.707 2.744c.01.675.424.953.914.953.347 0 .562-.062.739-.142l.088.358c-.171.079-.468.175-.893.175-.82 0-1.31-.561-1.31-1.389s.473-1.474 1.25-1.474c.876 0 1.102.782 1.102 1.287 0 .102-.006.176-.017.232h-1.873zm1.421-.357c.006-.312-.127-.805-.672-.805-.496 0-.705.46-.744.805h1.416zm3.106 1.543a1.829 1.829 0 01-.766.158c-.804 0-1.327-.56-1.327-1.4 0-.845.562-1.463 1.432-1.463.286 0 .54.073.672.147l-.11.38a1.161 1.161 0 00-.562-.13c-.611 0-.942.47-.942 1.038 0 .634.397 1.026.926 1.026.275 0 .457-.068.594-.13l.083.373zm1.36-3.306v.657h.694v.38h-.694v1.48c0 .34.094.533.364.533.132 0 .21-.01.28-.034l.023.38a1.29 1.29 0 01-.43.068c-.226 0-.408-.08-.523-.21-.133-.153-.188-.396-.188-.72V29.64h-.413v-.38h.413v-.51l.474-.147zm1.371 1.514c0-.323-.006-.601-.022-.857h.424l.022.545h.016c.122-.369.42-.601.744-.601.05 0 .088.005.133.011v.47c-.05-.01-.1-.01-.166-.01-.341 0-.584.26-.65.635-.01.068-.016.152-.016.232v1.463h-.485v-1.888zm4.296.493c0 1.015-.688 1.457-1.328 1.457-.716 0-1.277-.544-1.277-1.412 0-.913.589-1.451 1.322-1.451.765 0 1.283.572 1.283 1.406zm-2.11.029c0 .6.33 1.054.805 1.054.462 0 .81-.448.81-1.066 0-.465-.226-1.05-.8-1.05-.567 0-.815.545-.815 1.061zm2.853-.636c0-.289-.006-.516-.022-.742h.43l.027.453h.011a.983.983 0 01.882-.51c.369 0 .942.227.942 1.168v1.633h-.485v-1.582c0-.442-.16-.811-.617-.811-.314 0-.562.233-.65.51a.727.727 0 00-.033.233v1.65h-.485v-2.002z" fill="#1A1F71"/></svg>